<svg id="logros" xmlns="http://www.w3.org/2000/svg" viewBox="0 0 108 108"><defs><style>.cls-1{fill:#ff665b;}.cls-2{fill:#24c0ff;}.cls-3{fill:#d1efff;}.cls-4,.cls-5{fill:none;stroke:#453075;stroke-linecap:round;stroke-linejoin:round;}.cls-4{stroke-width:3px;}.cls-5{stroke-width:2px;}</style></defs><title>logro-construir-10</title><g id="Construir_AV" data-name="Construir AV"><rect class="cls-1" width="108" height="108"/><polygon class="cls-2" points="78.65 51.03 78.65 82.37 54 80.25 54 51.03 78.65 51.03"/><polygon class="cls-3" points="54 25.63 78.65 51.03 54 51.03 54 25.63"/><polygon class="cls-2" points="54 51.03 54 80.25 29.35 82.37 29.35 51.03 54 51.03"/><polygon class="cls-3" points="54 25.63 54 51.03 29.35 51.03 54 25.63"/><polyline class="cls-4" points="78.65 51.03 78.65 82.37 54 80.25 29.35 82.37 29.35 51.03"/><polygon class="cls-4" points="29.35 51.03 54 25.63 78.65 51.03 54 51.03 29.35 51.03"/><polyline class="cls-5" points="54 25.63 54 51.03 54 80.25"/></g></svg>