<svg id="logros" xmlns="http://www.w3.org/2000/svg" viewBox="0 0 108 108"><defs><style>.cls-1{fill:#544d89;}.cls-2{fill:#423372;stroke:#423372;stroke-miterlimit:10;stroke-width:5px;}.cls-3{fill:#b2675d;}.cls-4{fill:#ffb888;}.cls-5{fill:none;}.cls-6{fill:#ffc66c;}.cls-7{fill:#ff7676;}.cls-8{fill:#fff;}.cls-9{fill:#ed8053;}</style></defs><title>logro-modo-noche</title><g id="Modo_Noche" data-name="Modo Noche"><rect class="cls-1" width="108" height="108"/><path class="cls-2" d="M81.76,76.2,73.38,74l8.29-2.48h0a5.22,5.22,0,1,0-3-10l-6.17,1.85c5.18-9.41.43-21.54.2-22.1a1.3,1.3,0,0,0-2.5.48,10.4,10.4,0,0,1-1.57,5.94c.35-3.39-.4-8.44-5.74-13.78-7.84-7.84-7.43-11.81-7.43-11.81a1.3,1.3,0,0,0-1.77-1.45c-6.62,2.76-5.95,9.58-5.41,15.07.46,4.67.48,6.92-1.33,7.37a3.37,3.37,0,0,1-3.11-.4c-1.54-1.28-1.71-4.44-1.65-5.56a1.3,1.3,0,0,0-2-1.19C36,38.5,33.59,43,33,49.45c-.6,6.6,1,11.44,3.4,15l-7.54-2a5.22,5.22,0,1,0-2.62,10.1l8.37,2.18L26.33,77.2a5.22,5.22,0,1,0,3,10L54.1,79.79l25,6.5a5.22,5.22,0,1,0,2.62-10.1Z"/><rect class="cls-3" x="22.33" y="70.02" width="63.35" height="8.7" rx="4.35" ry="4.35" transform="matrix(0.97, 0.25, -0.25, 0.97, 20.44, -11.19)"/><circle class="cls-4" cx="81.02" cy="81.58" r="3.89"/><rect class="cls-5" x="22.33" y="70.02" width="63.35" height="8.7" rx="4.35" ry="4.35" transform="matrix(0.97, 0.25, -0.25, 0.97, 20.44, -11.19)"/><path class="cls-6" d="M49.88,72.93S32.57,69.47,34.3,50.43c.62-6.83,3.35-10.54,6.61-12.49,0,0-.55,9,6.37,7.3s-3.46-18.17,6.92-22.5c0,0-.87,4.33,7.79,13s4.33,16.44,4.33,16.44,5.19-1.73,5.19-9.52c0,0,5.72,14.25-1.73,23.36C62,75.53,49.88,72.93,49.88,72.93Z"/><path class="cls-7" d="M49,70.67s-13.84-3.34-10.38-25.9c0,0,16,14.62,15.57-13.37a67.87,67.87,0,0,1,5.62,7.1c2.52,3.76,5.19,4.18,2.6,15,0,0,5.19.84,7.35-1.25C69.78,52.29,72.37,72.34,49,70.67Z"/><path class="cls-8" d="M50.31,72.5s-10.38-6.92-3.46-14.71c0,0,4.33,6.92,3.46,0s3.46-9.52,3.46-9.52.87,5.19,6.92,9.52S60.69,76.82,50.31,72.5Z"/><rect class="cls-9" x="22.33" y="70.02" width="63.35" height="8.7" rx="4.35" ry="4.35" transform="translate(-19.05 18.59) rotate(-16.65)"/><circle class="cls-4" cx="27.38" cy="82.45" r="3.89"/><rect class="cls-5" x="22.33" y="70.02" width="63.35" height="8.7" rx="4.35" ry="4.35" transform="translate(-19.05 18.59) rotate(-16.65)"/></g></svg>