<svg id="logros" xmlns="http://www.w3.org/2000/svg" viewBox="0 0 108 108"><defs><style>.cls-1{fill:#98a3e9;}.cls-2{fill:#ffb944;}.cls-3{fill:#453075;stroke:#423372;stroke-miterlimit:10;}</style></defs><title>logro-racha-3</title><g id="Racha_diaria" data-name="Racha diaria"><rect class="cls-1" width="108" height="108"/><polygon class="cls-2" points="61.55 22.22 32.38 60.77 51.66 60.77 46.97 85.78 75.62 48.79 56.08 48.79 61.55 22.22"/><path class="cls-3" d="M47,86.56a.78.78,0,0,1-.77-.93l4.52-24.08H32.38a.78.78,0,0,1-.62-1.25L60.93,21.75a.78.78,0,0,1,1.39.63L57,48H75.62a.78.78,0,0,1,.62,1.26l-28.66,37A.78.78,0,0,1,47,86.56ZM34,60H51.66a.78.78,0,0,1,.77.93L48.33,82.74,74,49.57H56.08a.78.78,0,0,1-.77-.94l4.77-23.19Z"/></g></svg>