<svg id="logros" xmlns="http://www.w3.org/2000/svg" viewBox="0 0 108 108"><defs><style>.cls-1{fill:#ff8a59;}.cls-2{fill:#f66;}.cls-3{fill:none;stroke:#40396e;stroke-linejoin:round;stroke-width:3px;}</style></defs><title>logro-guardar-10</title><g id="Guardados"><rect class="cls-1" width="108" height="108"/><path class="cls-2" d="M31.8,22.66H63.54a2.7,2.7,0,0,1,2.7,2.7V76L47.67,62.5,29.1,76V25.36A2.7,2.7,0,0,1,31.8,22.66Z"/><path class="cls-3" d="M31.8,22.66H63.54a2.7,2.7,0,0,1,2.7,2.7V76L47.67,62.5,29.1,76V25.36A2.7,2.7,0,0,1,31.8,22.66Z"/><path class="cls-2" d="M44.46,32H76.2a2.7,2.7,0,0,1,2.7,2.7V85.34L60.33,71.83,41.76,85.34V34.69A2.7,2.7,0,0,1,44.46,32Z"/><path class="cls-3" d="M44.46,32H76.2a2.7,2.7,0,0,1,2.7,2.7V85.34L60.33,71.83,41.76,85.34V34.69A2.7,2.7,0,0,1,44.46,32Z"/></g></svg>