<svg id="logros" xmlns="http://www.w3.org/2000/svg" viewBox="0 0 108 108"><defs><style>.cls-1{fill:#ed8053;}.cls-2{fill:#ffc66c;}.cls-3{fill:#403670;stroke:#423372;stroke-miterlimit:10;}</style></defs><title>logro-calificar-app</title><g id="Calificar_App" data-name="Calificar App"><rect class="cls-1" width="108" height="108"/><polygon class="cls-2" points="26.77 47.58 45.05 45.63 54 28.71 62.56 45.05 81.23 47.58 68 61.59 70.73 79.29 54 71.51 37.08 79.29 40.19 61.39 26.77 47.58"/><path class="cls-3" d="M37.08,80.45a1.17,1.17,0,0,1-1.15-1.37l3-17.31-13-13.38a1.17,1.17,0,0,1,.71-2l17.67-1.88L53,28.17a1.17,1.17,0,0,1,1-.62h0a1.17,1.17,0,0,1,1,.63L63.31,44l18.08,2.45a1.17,1.17,0,0,1,.69,2L69.25,62l2.64,17.14a1.17,1.17,0,0,1-1.65,1.24L54,72.79,37.57,80.35A1.17,1.17,0,0,1,37.08,80.45ZM54,70.34a1.18,1.18,0,0,1,.49.11l14.75,6.86L66.85,61.76a1.17,1.17,0,0,1,.3-1L78.82,48.43,62.4,46.21a1.17,1.17,0,0,1-.88-.61L54,31.22l-7.91,15a1.17,1.17,0,0,1-.91.61l-15.9,1.69L41,60.58a1.16,1.16,0,0,1,.31,1L38.61,77.3l14.9-6.85A1.18,1.18,0,0,1,54,70.34Z"/></g></svg>