<svg id="logros" xmlns="http://www.w3.org/2000/svg" viewBox="0 0 108 108"><defs><style>.cls-1{fill:#ff8a59;}.cls-2{fill:#f66;}.cls-3{fill:none;stroke:#40396e;stroke-linejoin:round;stroke-width:3px;}.cls-4,.cls-5{fill:#40396e;}.cls-4{stroke:#ff8a59;stroke-miterlimit:10;stroke-width:8px;}</style></defs><title>logro-guardar-50</title><g id="Guardados"><rect class="cls-1" width="108" height="108"/><path class="cls-2" d="M28.56,22.66H60.3a2.7,2.7,0,0,1,2.7,2.7V76L44.43,62.5,25.86,76V25.36A2.7,2.7,0,0,1,28.56,22.66Z"/><path class="cls-3" d="M28.56,22.66H60.3a2.7,2.7,0,0,1,2.7,2.7V76L44.43,62.5,25.86,76V25.36A2.7,2.7,0,0,1,28.56,22.66Z"/><path class="cls-2" d="M41.23,32H73a2.7,2.7,0,0,1,2.7,2.7V85.34L57.1,71.83,38.53,85.34V34.69A2.7,2.7,0,0,1,41.23,32Z"/><path class="cls-3" d="M41.23,32H73a2.7,2.7,0,0,1,2.7,2.7V85.34L57.1,71.83,38.53,85.34V34.69A2.7,2.7,0,0,1,41.23,32Z"/><rect class="cls-4" x="74.17" y="45.73" width="3" height="12.94"/><rect class="cls-4" x="69.2" y="50.7" width="12.94" height="3"/><rect class="cls-5" x="74.17" y="45.73" width="3" height="12.94"/><rect class="cls-5" x="69.2" y="50.7" width="12.94" height="3"/></g></svg>