<svg id="logros" xmlns="http://www.w3.org/2000/svg" viewBox="0 0 108 108"><defs><style>.cls-1{fill:#ff665b;}.cls-2{fill:#d1efff;}.cls-3{fill:#24c0ff;}.cls-4,.cls-5{fill:none;stroke:#453075;stroke-miterlimit:10;}.cls-4{stroke-width:3px;}.cls-5{stroke-width:2px;}</style></defs><title>logro-construir-50</title><g id="Construir_AV" data-name="Construir AV"><rect class="cls-1" width="108" height="108"/><polygon class="cls-2" points="54 26.82 81.05 75.65 59.28 75.65 54 70.65 54 26.82"/><polygon class="cls-3" points="59.48 75.85 54.14 81.18 48.61 75.65 59.28 75.85 59.48 75.85"/><polygon class="cls-3" points="59.28 75.65 59.28 75.85 48.61 75.65 54 70.65 59.28 75.65"/><polygon class="cls-2" points="54 26.82 54 70.65 48.61 75.65 26.95 75.65 54 26.82"/><polygon class="cls-4" points="48.61 75.65 26.95 75.65 54 26.82 81.05 75.65 59.28 75.65 54 70.65 48.61 75.65"/><line class="cls-5" x1="54" y1="70.65" x2="54" y2="26.82"/><polyline class="cls-4" points="48.61 75.65 54.14 81.18 59.48 75.85"/></g></svg>