<svg id="logros" xmlns="http://www.w3.org/2000/svg" viewBox="0 0 108 108"><defs><style>.cls-1{fill:#ffc66c;}.cls-2{fill:#97a9c7;}.cls-3{fill:#453075;}.cls-4{fill:#7982a9;}.cls-5{fill:#f2f2f2;}.cls-6{fill:#403670;stroke:#403670;stroke-linecap:round;stroke-linejoin:round;stroke-width:2px;}</style></defs><title>logro-compartir-app</title><g id="Compartir_app" data-name="Compartir app"><rect class="cls-1" width="108" height="108"/><polygon class="cls-2" points="23.42 47.23 23.42 82.64 84.58 82.64 84.58 47.23 54.15 25.56 23.42 47.23"/><path class="cls-3" d="M85.44,83.5H22.56V46.78L54.16,24.5,85.44,46.79ZM24.28,81.78H83.72V47.67L54.15,26.61,24.28,47.68Z"/><polygon class="cls-4" points="23.42 47.23 54.15 67.54 84.58 47.23 23.42 47.23"/><polygon class="cls-5" points="36.73 56.02 36.73 41.51 71.35 41.51 71.35 55.96 54.15 67.54 36.73 56.02"/><path class="cls-3" d="M85.44,83.5H22.56V46.78L54.16,24.5,85.44,46.79ZM24.28,81.78H83.72V47.67L54.15,26.61,24.28,47.68Z"/><path class="cls-6" d="M85.44,83.5H22.56V46.78L54.16,24.5,85.44,46.79ZM24.28,81.78H83.72V47.67L54.15,26.61,24.28,47.68Z"/></g></svg>