<svg id="logros" xmlns="http://www.w3.org/2000/svg" viewBox="0 0 108 108"><defs><style>.cls-1{fill:#544d89;}.cls-2{fill:#d1efff;}.cls-3,.cls-5{fill:#453075;}.cls-3{stroke:#423372;}.cls-3,.cls-6{stroke-miterlimit:10;}.cls-4{fill:#24c0ff;}.cls-6{fill:none;stroke:#544d89;stroke-width:8px;}.cls-7{fill:#40396e;}</style></defs><title>logro-compartir-50</title><g id="Compartir_AV" data-name="Compartir AV"><rect class="cls-1" width="108" height="108"/><polygon class="cls-2" points="29.39 25.33 59.82 15.57 50.21 46 40.73 39.97 36 39.4 35.42 33.94 29.39 25.33"/><path class="cls-3" d="M50.21,46.43a.43.43,0,0,1-.23-.07l-9.39-6-4.64-.56a.43.43,0,0,1-.38-.38L35,34.1l-6-8.52a.43.43,0,0,1,.22-.66l30.43-9.76a.43.43,0,0,1,.54.54L50.62,46.13a.43.43,0,0,1-.26.27ZM36.39,39l4.4.53a.44.44,0,0,1,.18.06l9,5.73,9.2-29.1L30.08,25.56l5.69,8.13a.43.43,0,0,1,.08.2Z"/><polygon class="cls-4" points="40.73 39.97 53.36 22.17 35.42 33.94 36 39.4 40.73 39.97"/><path class="cls-5" d="M40.73,40.4h-.05l-4.74-.57a.43.43,0,0,1-.38-.38L35,34a.43.43,0,0,1,.19-.4L53.13,21.81a.43.43,0,0,1,.59.61L41.08,40.22A.43.43,0,0,1,40.73,40.4ZM36.39,39l4.14.5L51.69,23.78,35.88,34.16Z"/><polygon class="cls-2" points="23.68 45.48 84.32 38.74 54.79 92.04 39.35 77.17 30.7 74.3 31.7 63.88 23.68 45.48"/><path class="cls-3" d="M54.63,92.84a.82.82,0,0,1-.41-.21L38.91,77.89l-8.47-2.81a.82.82,0,0,1-.56-.86l1-10.21L22.93,45.8a.82.82,0,0,1,.66-1.15l60.64-6.73A.82.82,0,0,1,85,39.14L55.51,92.44a.82.82,0,0,1-.6.41A.81.81,0,0,1,54.63,92.84Zm-23-19.12,8,2.66a.83.83,0,0,1,.31.19L54.59,90.7l28.24-51-58,6.43,7.57,17.38a.82.82,0,0,1,.06.41Z"/><polygon class="cls-4" points="39.35 77.17 69.73 48.65 31.7 63.88 30.7 74.3 39.35 77.17"/><path class="cls-5" d="M39.19,78l-.1,0-8.65-2.87a.82.82,0,0,1-.56-.86l1-10.42a.82.82,0,0,1,.51-.69l38-15.22a.82.82,0,0,1,.87,1.36L39.91,77.77A.82.82,0,0,1,39.19,78Zm-7.6-4.25,7.56,2.51L66,51,32.47,64.45Z"/><rect class="cls-6" x="72.4" y="57.42" width="3" height="12.94"/><rect class="cls-6" x="67.43" y="62.39" width="12.94" height="3"/><rect class="cls-7" x="72.4" y="57.42" width="3" height="12.94"/><rect class="cls-7" x="67.43" y="62.39" width="12.94" height="3"/></g></svg>