<svg id="logros" xmlns="http://www.w3.org/2000/svg" viewBox="0 0 108 108"><defs><style>.cls-1{fill:#544d89;}.cls-2{fill:#d1efff;}.cls-3,.cls-5{fill:#453075;}.cls-3{stroke:#423372;stroke-miterlimit:10;}.cls-4{fill:#24c0ff;}</style></defs><title>logro-compartir-1</title><g id="Compartir_AV" data-name="Compartir AV"><rect class="cls-1" width="108" height="108"/><polygon class="cls-2" points="24.95 43.59 83.05 24.95 64.69 83.05 46.6 71.54 37.56 70.44 36.46 60.03 24.95 43.59"/><path class="cls-3" d="M64.69,83.87a.82.82,0,0,1-.44-.13L46.32,72.33l-8.86-1.07a.82.82,0,0,1-.72-.73l-1.08-10.2L24.28,44.06a.82.82,0,0,1,.42-1.25L82.8,24.17a.82.82,0,0,1,1,1L65.47,83.3a.82.82,0,0,1-.5.52A.81.81,0,0,1,64.69,83.87ZM38.31,69.71l8.39,1a.83.83,0,0,1,.34.12L64.23,81.78,81.79,26.22,26.26,44,37.13,59.56a.82.82,0,0,1,.14.39Z"/><polygon class="cls-4" points="46.6 71.54 70.72 37.56 36.46 60.03 37.56 70.44 46.6 71.54"/><path class="cls-5" d="M46.6,72.36h-.1l-9-1.1a.82.82,0,0,1-.72-.73l-1.1-10.41a.82.82,0,0,1,.37-.77L70.27,36.87A.82.82,0,0,1,71.39,38L47.27,72A.82.82,0,0,1,46.6,72.36Zm-8.29-2.66,7.91,1,21.31-30L37.33,60.44Z"/></g></svg>