<svg id="logros" xmlns="http://www.w3.org/2000/svg" viewBox="0 0 108 108"><defs><style>.cls-1{fill:#98a3e9;}.cls-2{fill:#403670;}.cls-3{fill:#ed8053;}.cls-4{fill:#b8695d;}.cls-5{fill:#ffc36b;}</style></defs><title>logro-primer-inicio</title><g id="Primer_inicio" data-name="Primer inicio"><rect class="cls-1" width="108" height="108"/><path class="cls-2" d="M66.86,43.89H41.14V28.73a5.06,5.06,0,0,1,5.05-5.05H61.81a5.06,5.06,0,0,1,5.05,5.05ZM46.65,38.38h14.7V29.19H46.65Z"/><rect class="cls-3" x="21.84" y="35.62" width="64.32" height="46.86" rx="2.38" ry="2.38"/><path class="cls-2" d="M84,84.32H24a4,4,0,0,1-4-4V37.8a4,4,0,0,1,4-4H84a4,4,0,0,1,4,4V80.3A4,4,0,0,1,84,84.32ZM24,37.46a.34.34,0,0,0-.34.34V80.3a.34.34,0,0,0,.34.34H84a.34.34,0,0,0,.34-.34V37.8a.34.34,0,0,0-.34-.34Z"/><rect class="cls-1" x="56.97" y="61.24" width="23.41" height="8.27" transform="translate(-23.49 43.1) rotate(-30)"/><rect class="cls-4" x="34.7" y="35.62" width="3.68" height="47.78"/><rect class="cls-4" x="69.62" y="35.62" width="3.68" height="47.78"/><path class="cls-2" d="M26.7,32.86h4.06a1.19,1.19,0,0,1,1.19,1.19v1.57a0,0,0,0,1,0,0H25.51a0,0,0,0,1,0,0V34.05A1.19,1.19,0,0,1,26.7,32.86Z"/><circle class="cls-5" cx="53.08" cy="49.41" r="5.51"/><path class="cls-2" d="M77.24,32.86H81.3a1.19,1.19,0,0,1,1.19,1.19v1.57a0,0,0,0,1,0,0H76.05a0,0,0,0,1,0,0V34.05A1.19,1.19,0,0,1,77.24,32.86Z"/><path class="cls-2" d="M84,84.32H24a4,4,0,0,1-4-4V37.8a4,4,0,0,1,4-4H84a4,4,0,0,1,4,4V80.3A4,4,0,0,1,84,84.32ZM24,37.46a.34.34,0,0,0-.34.34V80.3a.34.34,0,0,0,.34.34H84a.34.34,0,0,0,.34-.34V37.8a.34.34,0,0,0-.34-.34Z"/></g></svg>