<svg id="logros" xmlns="http://www.w3.org/2000/svg" viewBox="0 0 108 108"><defs><style>.cls-1{fill:#98a3e9;}.cls-2{fill:#ffb944;}.cls-3{fill:#453075;stroke:#423372;stroke-miterlimit:10;}</style></defs><title>logro-racha-10</title><g id="Racha_diaria" data-name="Racha diaria"><rect class="cls-1" width="108" height="108"/><polygon class="cls-2" points="52.33 22.22 23.15 60.77 42.43 60.77 37.74 85.78 66.39 48.79 46.85 48.79 52.33 22.22"/><path class="cls-3" d="M37.74,86.56a.78.78,0,0,1-.77-.93l4.52-24.08H23.15a.78.78,0,0,1-.62-1.25L51.7,21.75a.78.78,0,0,1,1.39.63L47.81,48H66.39A.78.78,0,0,1,67,49.27l-28.66,37A.78.78,0,0,1,37.74,86.56ZM24.72,60H42.43a.78.78,0,0,1,.77.93L39.1,82.74,64.8,49.57H46.86a.78.78,0,0,1-.77-.94l4.77-23.19Z"/><polygon class="cls-2" points="70.78 22.22 41.61 60.77 60.88 60.77 56.2 85.78 84.85 48.79 65.31 48.79 70.78 22.22"/><path class="cls-3" d="M56.19,86.56a.78.78,0,0,1-.77-.93l4.52-24.08H41.61A.78.78,0,0,1,41,60.3L70.16,21.75a.78.78,0,0,1,1.39.63L66.27,48H84.85a.78.78,0,0,1,.62,1.26l-28.66,37A.78.78,0,0,1,56.19,86.56ZM43.18,60H60.88a.78.78,0,0,1,.77.93L57.56,82.74l25.7-33.17H65.31a.78.78,0,0,1-.77-.94l4.77-23.19Z"/></g></svg>