<svg id="logros" xmlns="http://www.w3.org/2000/svg" viewBox="0 0 108 108"><defs><style>.cls-1{fill:#544d89;}.cls-2{fill:#d1efff;}.cls-3,.cls-5{fill:#453075;}.cls-3{stroke:#423372;stroke-miterlimit:10;}.cls-4{fill:#24c0ff;}</style></defs><title>logro-compartir-10</title><g id="Compartir_AV" data-name="Compartir AV"><rect class="cls-1" width="108" height="108"/><polygon class="cls-2" points="25.61 24.84 56.04 15.08 46.42 45.51 36.95 39.48 32.21 38.91 31.64 33.45 25.61 24.84"/><path class="cls-3" d="M46.42,45.94a.43.43,0,0,1-.23-.07l-9.39-6-4.64-.56a.43.43,0,0,1-.38-.38l-.56-5.34-6-8.52a.43.43,0,0,1,.22-.66l30.43-9.76a.43.43,0,0,1,.54.54L46.83,45.64a.43.43,0,0,1-.26.27ZM32.61,38.52l4.4.53a.44.44,0,0,1,.18.06l9,5.73,9.2-29.1L26.3,25.07,32,33.2a.43.43,0,0,1,.08.2Z"/><polygon class="cls-4" points="36.95 39.48 49.58 21.68 31.64 33.45 32.21 38.91 36.95 39.48"/><path class="cls-5" d="M37,39.91H36.9l-4.74-.57a.43.43,0,0,1-.38-.38l-.57-5.45a.43.43,0,0,1,.19-.4L49.34,21.32a.43.43,0,0,1,.59.61L37.3,39.73A.43.43,0,0,1,37,39.91Zm-4.34-1.39,4.14.5L47.91,23.29,32.1,33.67Z"/><polygon class="cls-2" points="23.68 45.97 84.32 39.23 54.79 92.53 39.35 77.66 30.7 74.79 31.7 64.37 23.68 45.97"/><path class="cls-3" d="M54.63,93.34a.82.82,0,0,1-.41-.21L38.91,78.38l-8.47-2.81a.82.82,0,0,1-.56-.86l1-10.21L22.93,46.29a.82.82,0,0,1,.66-1.15l60.64-6.73A.82.82,0,0,1,85,39.63L55.51,92.93a.82.82,0,0,1-.6.41A.81.81,0,0,1,54.63,93.34Zm-23-19.12,8,2.66a.83.83,0,0,1,.31.19L54.59,91.2l28.24-51-58,6.43L32.45,64a.82.82,0,0,1,.06.41Z"/><polygon class="cls-4" points="39.35 77.66 69.73 49.14 31.7 64.37 30.7 74.79 39.35 77.66"/><path class="cls-5" d="M39.19,78.47l-.1,0-8.65-2.87a.82.82,0,0,1-.56-.86l1-10.42a.82.82,0,0,1,.51-.69l38-15.22a.82.82,0,0,1,.87,1.36L39.91,78.26A.82.82,0,0,1,39.19,78.47Zm-7.6-4.25,7.56,2.51L66,51.52,32.47,64.94Z"/></g></svg>