<svg xmlns="http://www.w3.org/2000/svg" viewBox="0 0 108 108"><defs><style>.cls-1{fill:#ffc66c;}.cls-2,.cls-8{fill:#ededed;}.cls-2,.cls-3,.cls-5{stroke:#403670;}.cls-2,.cls-3,.cls-5,.cls-8{stroke-linecap:round;stroke-linejoin:round;stroke-width:3px;}.cls-3{fill:#fff;}.cls-4{fill:#e89a64;}.cls-5{fill:none;}.cls-6{fill:#c63838;}.cls-7{fill:#f66;}.cls-8{stroke:#ededed;}</style></defs><title>solemnidad-14</title><g id="colecionables"><g id="Cuerpo_y_Sangre_de_Cristo" data-name="Cuerpo y Sangre de Cristo"><rect class="cls-1" width="108" height="108"/><circle class="cls-2" cx="47.15" cy="53.85" r="21.07"/><line class="cls-3" x1="47.15" y1="47.83" x2="47.15" y2="60.48"/><path class="cls-4" d="M61.75,38.66c0,8-11.49,23.7-4.9,33.89L69.2,62.62l-2-16.88Z"/><circle class="cls-5" cx="47.15" cy="53.85" r="21.07"/><line class="cls-3" x1="53.48" y1="54.15" x2="40.82" y2="54.15"/><path class="cls-6" d="M81.92,63.64h0c0,.25,0,.5,0,.75a10.83,10.83,0,0,1-16.49,9.23L70.64,61.8l.45-.22c9.37-4.52,6.27-14.07,6.1-14.57C79.65,53.2,81.92,59.92,81.92,63.64Z"/><path class="cls-7" d="M77.19,47c.17.5,3.27,10.05-6.1,14.57l-.45.22L77.18,47Z"/><path class="cls-7" d="M77.18,47,70.64,61.8c-10,5.08-5.21,11.82-5.21,11.82a10.82,10.82,0,0,1-5.16-9.23c0-.25,0-.5,0-.75h0c0-8.11,10.82-30.56,10.82-30.56S74.27,39.67,77.18,47Z"/><path class="cls-6" d="M70.64,61.8,65.43,73.62S60.65,66.88,70.64,61.8Z"/><path class="cls-5" d="M77.18,47c-2.91-7.32-6.09-13.91-6.09-13.91S60.27,55.53,60.27,63.64h0c0,.25,0,.5,0,.75a10.83,10.83,0,1,0,21.65,0c0-.25,0-.5,0-.75h0c0-3.72-2.27-10.44-4.73-16.63"/><path class="cls-5" d="M65.43,73.62s-4.78-6.74,5.21-11.82l.45-.22c9.37-4.52,6.27-14.07,6.1-14.57v0"/><line class="cls-8" x1="69.91" y1="45.95" x2="68.49" y2="49.7"/></g></g></svg>