<svg xmlns="http://www.w3.org/2000/svg" viewBox="0 0 108 108"><defs><style>.cls-1{fill:#96cc76;}.cls-2{fill:#5aa145;}.cls-3{fill:#80c45b;}.cls-4{fill:none;stroke:#403670;stroke-linecap:round;stroke-linejoin:round;stroke-width:3px;}</style></defs><title>solemnidad-06</title><g id="colecionables"><g id="Domingo_de_ramos" data-name="Domingo de ramos"><rect class="cls-1" width="108" height="108"/><path class="cls-2" d="M60.24,66.82c.57.5,1.15,1,1.76,1.5-.66.91-4.66,5.64-13.89,2.52a17.71,17.71,0,0,1-8.33-5.66,55.64,55.64,0,0,1,8.33-2.45C51.59,62.08,55.52,63.55,60.24,66.82Z"/><path class="cls-3" d="M65.42,46.4s5.53,6.39,3.32,13.88-4.67,9.46-4.67,9.46S55.48,59,65.42,46.4Z"/><path class="cls-2" d="M55.23,43.21c6.75-5.77,5.89-3.44,5.89-3.44s1.35,9.46-2,12.53a66.14,66.14,0,0,1-6.6,5.23h0c-.06,0-.33.15-.79.32C51.16,56.59,48.87,48.65,55.23,43.21Z"/><path class="cls-3" d="M33.65,34s13.56-.36,14.46,18.88c0,0-6.26-1.47-10.81-9.82C35.6,39.95,33.75,37.32,33.65,34Z"/><path class="cls-3" d="M50,55.71c.46.64,1,1.38,1.67,2.19A22.91,22.91,0,0,1,35.95,58c-8.72-3.27-9-6-9-6A37.07,37.07,0,0,1,50,55.71Z"/><path class="cls-4" d="M48.11,52.91s-6.26-1.47-10.81-9.82c-1.7-3.14-3.55-5.77-3.65-9.06C33.65,34,47.21,33.67,48.11,52.91Z"/><path class="cls-4" d="M76.1,77.59A80.48,80.48,0,0,1,62,68.32c-.61-.5-1.19-1-1.76-1.5a69.68,69.68,0,0,1-8.61-8.92c-.65-.81-1.21-1.55-1.67-2.19a33.34,33.34,0,0,1-1.85-2.8"/><path class="cls-4" d="M52.55,57.54l-.71.48a.76.76,0,0,1-.08-.16c-.6-1.27-2.89-9.21,3.47-14.65,6.75-5.77,5.89-3.44,5.89-3.44s1.35,9.46-2,12.53a66.14,66.14,0,0,1-6.6,5.23"/><path class="cls-4" d="M64.07,69.74S55.48,59,65.42,46.4c0,0,5.53,6.39,3.32,13.88S64.07,69.74,64.07,69.74Z"/><path class="cls-4" d="M60.24,66.82c.61.42,1.23.87,1.87,1.35l-.11.15c-.66.91-4.66,5.64-13.89,2.52a17.71,17.71,0,0,1-8.33-5.66,55.64,55.64,0,0,1,8.33-2.45C51.59,62.08,55.52,63.55,60.24,66.82Z"/><path class="cls-4" d="M52.56,57.53h0c-.06,0-.33.15-.79.32l-.13,0A22.91,22.91,0,0,1,35.95,58c-8.72-3.27-9-6-9-6a37.07,37.07,0,0,1,23,3.66l.1,0"/></g></g></svg>