<svg xmlns="http://www.w3.org/2000/svg" viewBox="0 0 108.5 108.5"><defs><style>.cls-1{fill:#403670;}.cls-2{fill:#96cc76;}.cls-3{fill:#f66;}.cls-4{fill:#98a3e9;}</style></defs><title>solemnidad-10</title><g id="colecionables"><g id="Divina_Misericordia" data-name="Divina Misericordia"><polygon class="cls-1" points="108.25 99.21 108.25 108.25 107.09 108.25 64.56 65.71 69.66 60.61 108.25 99.21"/><path class="cls-2" d="M108.25.25v99L69.66,60.61l5.79-5.79a16.31,16.31,0,0,0,4.81-11.61,16.42,16.42,0,0,0-25.91-13.4,16.42,16.42,0,0,0-21.1,25l5.81,5.81L.25,99.44V.25Z"/><path class="cls-3" d="M64.56,65.71l42.53,42.54h-6.31l-13.5-13.5a3.61,3.61,0,1,0-5.1,5.1l8.4,8.4H58V87.89a3.6,3.6,0,0,0,2.42.41,3.51,3.51,0,0,0,1.9-1,3.6,3.6,0,0,0,0-5.1L58,77.89V72.3Z"/><path class="cls-1" d="M100.78,108.25H90.58l-8.4-8.4a3.61,3.61,0,1,1,5.1-5.1Z"/><path class="cls-3" d="M71.21,35.84a10.43,10.43,0,0,1,0,14.74l-5.79,5.79-8.5-8.5a4.89,4.89,0,0,0-.55-.45l-.12-.06a3,3,0,0,0-.5-.27L55.54,47a2.44,2.44,0,0,0-.46-.14,3.36,3.36,0,0,0-.71-.08,3.53,3.53,0,0,0-.72.08,2.69,2.69,0,0,0-.46.14l-.21.06a3.46,3.46,0,0,0-.5.27l-.12.06a6,6,0,0,0-.55.45L43.3,56.39l-5.81-5.81A10.42,10.42,0,0,1,52.23,35.84a3,3,0,0,0,4.24,0,10.45,10.45,0,0,1,14.74,0Z"/><rect class="cls-1" x="62.44" y="60.6" width="7.21" height="3" transform="translate(-24.57 64.89) rotate(-45)"/><rect class="cls-1" x="60.32" y="58.48" width="7.21" height="3" transform="translate(-23.69 62.77) rotate(-45)"/><polygon class="cls-3" points="64.56 65.71 57.97 72.3 57.97 68.06 62.44 63.59 64.56 65.71"/><path class="cls-1" d="M62.29,82.21a3.6,3.6,0,0,1,0,5.1,3.51,3.51,0,0,1-1.9,1A3.66,3.66,0,0,1,58,87.88v-10Z"/><polygon class="cls-3" points="62.44 63.59 57.97 68.06 57.97 63.82 60.32 61.47 62.44 63.59"/><polygon class="cls-3" points="60.32 61.47 57.97 63.82 57.97 59.12 60.32 61.47"/><path class="cls-3" d="M58,87.88a3.66,3.66,0,0,0,2.42.42A3.6,3.6,0,0,1,58,87.89Z"/><path class="cls-1" d="M58,87.89v20.36H50.76V87.77h0a2.78,2.78,0,0,0,.51-.41l3-3,3,3A3.31,3.31,0,0,0,58,87.89Z"/><path class="cls-1" d="M58,87.88h0a3.31,3.31,0,0,1-.77-.58l-3-3-3,3a2.78,2.78,0,0,1-.51.41V77.66l.94-.94a3.6,3.6,0,0,1,5.1,0L58,77.89Z"/><path class="cls-1" d="M56.47,35.84a3,3,0,0,1-4.24,0A10.42,10.42,0,0,0,37.49,50.58l5.81,5.81-2.12,2.12L35.37,52.7a13.42,13.42,0,0,1,19-19,13.42,13.42,0,0,1,19,19l-5.79,5.79-2.12-2.12,5.79-5.79A10.42,10.42,0,0,0,56.47,35.84Z"/><path class="cls-1" d="M53,47.09l.21-.06a2.69,2.69,0,0,1,.46-.14,3.53,3.53,0,0,1,.72-.08,3.36,3.36,0,0,1,.71.08,2.44,2.44,0,0,1,.46.14l.21.06a3,3,0,0,1,.5.27l.12.06a4.89,4.89,0,0,1,.55.45l8.5,8.5-5.1,5.1L58,59.12v4.7l-3.62,3.62-3.59-3.59V59.12L48.4,61.49l-5.1-5.1,8.51-8.52a6,6,0,0,1,.55-.45l.12-.06A3.46,3.46,0,0,1,53,47.09Z"/><polygon class="cls-1" points="54.35 71.68 50.76 68.09 50.76 63.85 54.35 67.44 57.97 63.82 57.97 68.06 54.35 71.68"/><path class="cls-1" d="M54.35,71.68,58,68.06V72.3l-1.5,1.5a3,3,0,0,1-2.12.88,3,3,0,0,1-2.12-.88l-1.47-1.47V68.09Z"/><path class="cls-1" d="M51.7,76.72l-.94.94V72.33l1.47,1.47a3,3,0,0,0,2.12.88,3,3,0,0,0,2.12-.88L58,72.3v5.59L56.8,76.72A3.6,3.6,0,0,0,51.7,76.72Z"/><path class="cls-4" d="M50.76,87.76h0l-.21.13Z"/><path class="cls-4" d="M50.76,87.77v20.48H16.83l8.4-8.4a3.61,3.61,0,1,0-5.1-5.1l-13.5,13.5h-5L44.16,65.73l6.6,6.6v5.33l-4.59,4.59a3.6,3.6,0,0,0,2.55,6.15l.34,0a2.11,2.11,0,0,0,.35,0,2,2,0,0,0,.33-.08l.29-.1a1.12,1.12,0,0,0,.25-.11l.27-.14Z"/><polygon class="cls-4" points="50.76 68.09 50.76 72.33 44.16 65.73 46.28 63.61 50.76 68.09"/><polygon class="cls-4" points="50.76 63.85 50.76 68.09 46.28 63.61 48.4 61.49 50.76 63.85"/><polygon class="cls-4" points="50.76 59.12 50.76 63.85 48.4 61.49 50.76 59.12"/><path class="cls-4" d="M50,88.15l.25-.11A1.12,1.12,0,0,1,50,88.15Z"/><path class="cls-2" d="M49.41,88.33a2,2,0,0,0,.33-.08A2,2,0,0,1,49.41,88.33Z"/><path class="cls-1" d="M48.72,88.4a3.6,3.6,0,0,1-2.55-6.15l4.59-4.59v10.1l-.21.14-.27.14-.25.11-.29.1a2,2,0,0,1-.33.08,2.11,2.11,0,0,1-.35,0Z"/><path class="cls-2" d="M49.06,88.38a2.11,2.11,0,0,0,.35,0A2.11,2.11,0,0,1,49.06,88.38Z"/><path class="cls-2" d="M48.72,88.4l.34,0Z"/><rect class="cls-1" x="43.29" y="56.4" width="3" height="7.21" transform="translate(-29.31 49.24) rotate(-45)"/><rect class="cls-1" x="41.17" y="58.52" width="3" height="7.21" transform="translate(-31.43 48.37) rotate(-45)"/><polygon class="cls-1" points="44.16 65.73 1.64 108.25 0.25 108.25 0.25 99.44 39.06 60.63 44.16 65.73"/><path class="cls-1" d="M33.25,31.6a16.45,16.45,0,0,1,21.1-1.79,16.42,16.42,0,0,1,21.1,25l-5.79,5.79-2.12-2.12,5.79-5.79a13.42,13.42,0,0,0-19-19,13.42,13.42,0,0,0-19,19l5.81,5.81-2.12,2.12-5.81-5.81A16.42,16.42,0,0,1,33.25,31.6Z"/><path class="cls-1" d="M25.23,94.75a3.62,3.62,0,0,1,0,5.1l-8.4,8.4H6.63l13.5-13.5A3.6,3.6,0,0,1,25.23,94.75Z"/></g></g></svg>