<svg xmlns="http://www.w3.org/2000/svg" viewBox="0 0 108 108"><defs><style>.cls-1{fill:#ffc66c;}.cls-2{fill:#ddce85;}.cls-2,.cls-4{stroke:#403670;stroke-linecap:round;stroke-linejoin:round;stroke-width:3px;}.cls-3{fill:#dbad6a;}.cls-4{fill:none;}.cls-5{fill:#fff;}</style></defs><title>solemnidad-05</title><g id="colecionables"><g id="La_anunciaci칩n_del_Se침or" data-name="La anunciaci칩n del Se침or"><rect class="cls-1" width="108" height="108"/><circle class="cls-2" cx="53.52" cy="48.25" r="12.67"/><path class="cls-3" d="M53.52,54,40.86,48.25l1,4.88,5.84,7.71h7.24l10.29-4.07V48.25S57.67,50.57,53.52,54Z"/><path class="cls-3" d="M53.52,54c-4.14-3.43-12.67-5.75-12.67-5.75Z"/><circle class="cls-4" cx="53.52" cy="48.25" r="12.67"/><path class="cls-5" d="M38.58,70.89s6.83,3.44,10.26-2.11S51.44,57.44,50,55.67,42.58,52.6,35.37,51.3s-9.69-1.54-15.71-5.67c-5.41-3.71-4.44,7,1.55,9.6,0,0,.08,6.57,5.53,8.22l-.12.37a4.11,4.11,0,0,0,.8,5A10.74,10.74,0,0,0,38.58,70.89Z"/><path class="cls-4" d="M38.58,70.89s6.83,3.44,10.26-2.11S51.44,57.44,50,55.67,42.58,52.6,35.37,51.3s-9.69-1.54-15.71-5.67c-5.41-3.71-4.44,7,1.55,9.6a6.7,6.7,0,0,0,2.23.56"/><path class="cls-4" d="M21.21,55.23s.08,6.57,5.53,8.22a8.91,8.91,0,0,0,2.37.37"/><path class="cls-4" d="M26.62,63.82a4.11,4.11,0,0,0,.8,5,10.74,10.74,0,0,0,11.16,2.11,10,10,0,0,0,1.87-1"/><path class="cls-5" d="M85.83,55.23s-.08,6.57-5.53,8.22l.12.37a4.11,4.11,0,0,1-.8,5,10.74,10.74,0,0,1-11.16,2.11s-6.83,3.44-10.26-2.11S55.61,57.44,57,55.67s7.44-3.07,14.65-4.37,9.69-1.54,15.71-5.67C92.8,41.92,91.82,52.6,85.83,55.23Z"/><path class="cls-4" d="M68.47,70.89s-6.83,3.44-10.26-2.11S55.61,57.44,57,55.67s7.44-3.07,14.65-4.37,9.69-1.54,15.71-5.67c5.41-3.71,4.44,7-1.55,9.6a6.7,6.7,0,0,1-2.23.56"/><path class="cls-4" d="M85.83,55.23s-.08,6.57-5.53,8.22a8.91,8.91,0,0,1-2.37.37"/><path class="cls-4" d="M80.42,63.82a4.11,4.11,0,0,1-.8,5,10.74,10.74,0,0,1-11.16,2.11,10,10,0,0,1-1.87-1"/></g></g></svg>