<svg xmlns="http://www.w3.org/2000/svg" viewBox="0 0 108 108"><defs><style>.cls-1{fill:#544d89;}.cls-2{fill:#403670;}.cls-3{fill:#b2675d;}.cls-4{fill:#ed8053;}</style></defs><title>solemnidad-08</title><g id="colecionables"><g id="Viernes_Santo" data-name="Viernes Santo"><rect class="cls-1" width="108" height="108"/><path class="cls-2" d="M90.78,54.26c0-.23,0-.45,0-.67C90.77,53.81,90.78,54,90.78,54.26Z"/><path class="cls-2" d="M90.72,53.11l0-.3Z"/><path class="cls-2" d="M90.69,52.81c0-.17,0-.34-.08-.5C90.64,52.48,90.67,52.64,90.69,52.81Z"/><path class="cls-2" d="M90.54,52c0-.1,0-.21-.07-.32C90.5,51.74,90.52,51.84,90.54,52Z"/><path class="cls-2" d="M89.3,48.73a2.5,2.5,0,0,0-.21-.35A4.05,4.05,0,0,1,89.3,48.73Z"/><path class="cls-2" d="M88.9,57v1.24h-.47A8.8,8.8,0,0,0,88.9,57Z"/><path class="cls-2" d="M88.9,55.21V57a8.8,8.8,0,0,1-.47,1.24H86.75a8,8,0,0,0,1-3Z"/><path class="cls-2" d="M88.79,47.91a4.66,4.66,0,0,1,.3.47C89,48.22,88.89,48.06,88.79,47.91Z"/><path class="cls-2" d="M88.63,47.68c-.19-.26-.38-.5-.58-.75A8.34,8.34,0,0,1,88.63,47.68Z"/><path class="cls-2" d="M87.76,53.75c0,.16,0,.34,0,.51C87.78,54.09,87.77,53.92,87.76,53.75Z"/><path class="cls-2" d="M84.68,55.21h3a8,8,0,0,1-1,3H83A6.33,6.33,0,0,0,84.68,55.21Z"/><path class="cls-2" d="M87.62,52.66a3.91,3.91,0,0,1,.07.39C87.67,52.92,87.65,52.79,87.62,52.66Z"/><path class="cls-2" d="M87.26,46a5.31,5.31,0,0,1,.4.44C87.53,46.33,87.4,46.18,87.26,46Z"/><path class="cls-2" d="M87.31,51.55c0-.1-.07-.2-.11-.3C87.24,51.35,87.28,51.45,87.31,51.55Z"/><path class="cls-2" d="M88.43,58.21a15.46,15.46,0,0,1-5.51,6c-.12-.53-.25-1-.38-1.56a18.8,18.8,0,0,0,2.53-2.17h0c.18-.18.35-.37.51-.56a10.66,10.66,0,0,0,1.17-1.67Z"/><path class="cls-2" d="M86.68,50.18a7.49,7.49,0,0,1,.47.94C87,50.8,86.85,50.49,86.68,50.18Z"/><path class="cls-2" d="M86.83,45.61c-.29-.28-.59-.55-.89-.82A9.82,9.82,0,0,1,86.83,45.61Z"/><path class="cls-2" d="M86.48,49.86l-.21-.32A2.2,2.2,0,0,1,86.48,49.86Z"/><path class="cls-2" d="M85.84,49a5.9,5.9,0,0,1,.43.59C86.14,49.34,86,49.15,85.84,49Z"/><path class="cls-2" d="M85.35,64.23A18.52,18.52,0,0,0,86.76,63,18.52,18.52,0,0,1,85.35,64.23Z"/><path class="cls-2" d="M85.94,44.79c-.31-.27-.62-.52-.95-.78C85.31,44.25,85.63,44.51,85.94,44.79Z"/><path class="cls-2" d="M83.94,47a7,7,0,0,0-.61-.5,6.74,6.74,0,0,0-.62-.47c-.41-.32-.84-.62-1.28-.9-.21-.15-.43-.29-.65-.42l.81-1.27c4.08,2.61,7.69,5.79,7.69,10.81A9.44,9.44,0,0,1,88.9,57V55.21H87.72a7.34,7.34,0,0,0,.06-1c0-.17,0-.35,0-.51a5.35,5.35,0,0,0-.07-.7,3.91,3.91,0,0,0-.07-.39,5.68,5.68,0,0,0-.31-1.11c0-.1-.07-.2-.11-.3a.5.5,0,0,0,0-.13,7.49,7.49,0,0,0-.47-.94,2.14,2.14,0,0,0-.2-.32,2.2,2.2,0,0,0-.21-.32,5.9,5.9,0,0,0-.43-.59,2.51,2.51,0,0,0-.26-.31c-.15-.19-.33-.38-.51-.57A12.64,12.64,0,0,0,83.94,47Z"/><path class="cls-2" d="M85.58,48.64c-.16-.19-.34-.38-.51-.57C85.25,48.26,85.43,48.45,85.58,48.64Z"/><path class="cls-2" d="M85.58,59.88c-.16.19-.33.38-.51.56Z"/><path class="cls-2" d="M82.54,62.61a19.47,19.47,0,0,0,2.53-2.16,18.8,18.8,0,0,1-2.53,2.17Z"/><path class="cls-2" d="M85,44c-.31-.24-.64-.49-1-.72C84.35,43.51,84.67,43.75,85,44Z"/><path class="cls-2" d="M83.94,47a12.64,12.64,0,0,1,1.13,1.06C84.71,47.7,84.33,47.35,83.94,47Z"/><path class="cls-2" d="M83.14,55.21a3.47,3.47,0,0,0,.14-1h1.5a4.19,4.19,0,0,1-.1,1Z"/><path class="cls-2" d="M84.75,53.77a3.91,3.91,0,0,1,0,.49A3.91,3.91,0,0,0,84.75,53.77Z"/><path class="cls-2" d="M84.75,53.77a2.9,2.9,0,0,0-.06-.41A2.7,2.7,0,0,1,84.75,53.77Z"/><path class="cls-3" d="M85.07,60.45a19.47,19.47,0,0,1-2.53,2.16l-.33-1.27-.24-.9c-.09-.33-.18-.66-.26-1A12.91,12.91,0,0,0,83,58.21h3.71a10.66,10.66,0,0,1-1.17,1.67l-.51.56Z"/><path class="cls-2" d="M84,51.61l-.2-.31A2.7,2.7,0,0,1,84,51.61Z"/><path class="cls-2" d="M83.33,46.51a7,7,0,0,1,.61.5Z"/><path class="cls-2" d="M83.87,65.35c-.2.15-.4.28-.6.42h0Z"/><path class="cls-2" d="M89.28,54.26c0-5-3.61-8.2-7.69-10.81h0l1.46.32c.07-.34.14-.68.2-1,.26.17.52.34.77.53s.66.48,1,.72.64.51.95.78.6.54.89.82l.43.43c.14.14.27.29.4.44s.27.3.39.45.39.49.58.75l.16.23c.1.15.21.31.3.47a2.5,2.5,0,0,1,.21.35,10.69,10.69,0,0,1,1.17,2.9c0,.11.05.22.07.32s0,.24.07.36.06.33.08.5l0,.3c0,.16,0,.32,0,.48s0,.44,0,.67a11.87,11.87,0,0,1-4,8.72,18.52,18.52,0,0,1-1.41,1.25c-.48.4-1,.77-1.48,1.12l-.6.41c-.07-.35-.14-.68-.21-1s-.09-.38-.14-.57a15.46,15.46,0,0,0,5.51-6h.47V57A9.44,9.44,0,0,0,89.28,54.26Z"/><path class="cls-2" d="M83.6,51l.14.19Z"/><path class="cls-2" d="M84.68,55.21a6.33,6.33,0,0,1-1.64,3h-.71V56.72a5.06,5.06,0,0,0,.81-1.51Z"/><path class="cls-2" d="M83.33,46.51,82.71,46A6.74,6.74,0,0,1,83.33,46.51Z"/><path class="cls-2" d="M83.25,42.75h0c-.06.32-.13.66-.2,1l-1.46-.32.8-1.25Z"/><path class="cls-2" d="M81.78,54.26a1.81,1.81,0,0,0-.09-.55c0-.06,0-.13-.07-.2a3.81,3.81,0,0,0-.38-.66,1.67,1.67,0,0,0-.12-.16l-.17-.21c.1-.61.23-1.24.36-1.79a5.1,5.1,0,0,1,2,3.57Z"/><path class="cls-2" d="M82.33,55.21h.81a5.06,5.06,0,0,1-.81,1.51Z"/><path class="cls-2" d="M83.37,50.7a10.43,10.43,0,0,0-.79-.86A7.19,7.19,0,0,1,83.37,50.7Z"/><path class="cls-2" d="M82,65.78l-.44-.68v0h0c.45-.29.9-.58,1.33-.89,0,.19.1.38.14.57s.14.66.21,1h0l-.87.57Z"/><path class="cls-2" d="M82.92,64.18c-.43.31-.88.6-1.33.89-.11-.52-.24-1-.37-1.54.23-.15.46-.3.68-.46s.43-.3.64-.45C82.67,63.13,82.8,63.65,82.92,64.18Z"/><path class="cls-2" d="M81.58,43.44c.11-.52.22-1,.31-1.57l.5.32-.8,1.25Z"/><path class="cls-2" d="M83,58.21a12.91,12.91,0,0,1-1.33,1.25c-.07-.25-.13-.5-.19-.75l0-.2-.17-.69a8.64,8.64,0,0,0,1-1.1v1.49Z"/><path class="cls-2" d="M80.95,56.05a2.93,2.93,0,0,0,.83-1.79h1.5a3.47,3.47,0,0,1-.14,1h-.81v1.51a8.64,8.64,0,0,1-1,1.1C81.18,57.27,81,56.66,80.95,56.05Z"/><path class="cls-2" d="M82.58,49.84c-.19-.18-.39-.37-.6-.55A6.2,6.2,0,0,1,82.58,49.84Z"/><polygon class="cls-2" points="82.04 65.78 82.4 66.34 82.39 66.34 82.04 65.78"/><path class="cls-2" d="M81.43,45.14c.44.28.87.58,1.28.9C82.29,45.73,81.86,45.43,81.43,45.14Z"/><path class="cls-2" d="M81.9,63.07l.64-.45C82.33,62.77,82.12,62.93,81.9,63.07Z"/><path class="cls-2" d="M81.6,65.1l.44.68Z"/><path class="cls-2" d="M80,49.64l.89-1.2.42.32.55.45.09.08c.21.18.41.37.6.55a10.43,10.43,0,0,1,.79.86l.23.3.14.19.07.11.2.31a5.14,5.14,0,0,1,.68,1.75,2.9,2.9,0,0,1,.06.41,3.91,3.91,0,0,1,0,.49h-1.5a5.1,5.1,0,0,0-2-3.57c.06-.24.12-.47.17-.68L80,49.65Z"/><path class="cls-2" d="M81.22,63.53l.68-.46C81.68,63.23,81.45,63.38,81.22,63.53Z"/><path class="cls-2" d="M81.89,49.21l-.55-.45C81.52,48.9,81.71,49.05,81.89,49.21Z"/><path class="cls-2" d="M81.69,53.71c0-.07,0-.13-.07-.2S81.67,53.65,81.69,53.71Z"/><rect class="cls-2" x="81.58" y="43.44" width="0.01" height="0.01"/><rect class="cls-2" x="81.58" y="65.07" width="0.01" height="0.01"/><path class="cls-2" d="M81.58,43.44h0l0,0Z"/><path class="cls-2" d="M81.55,43.43l-1.43-.31c0-.17.07-.34.11-.51Z"/><path class="cls-2" d="M81.59,65.07h0l-.8-1.25.44-.29C81.35,64,81.48,64.55,81.59,65.07Z"/><path class="cls-2" d="M80,49.65l1.45.36c0,.21-.11.44-.17.68C80.92,50.34,80.49,50,80,49.65Z"/><path class="cls-2" d="M81.43,45.14l-.65-.42C81,44.85,81.22,45,81.43,45.14Z"/><path class="cls-2" d="M80.91,60.08,80,58.88h0a14,14,0,0,0,1.29-1l.17.69,0,.2c.06.25.12.5.19.75C81.44,59.68,81.17,59.89,80.91,60.08Z"/><path class="cls-2" d="M81.12,52.69a1.67,1.67,0,0,1,.12.16Z"/><path class="cls-2" d="M81.22,63.53l-.44.29h0Z"/><path class="cls-2" d="M79.65,51.26c.1-.51.23-1,.37-1.6h0c.46.34.89.69,1.28,1-.13.55-.26,1.18-.36,1.79l-.22-.24L80.52,52l-.21-.2-.23-.21C79.95,51.5,79.8,51.38,79.65,51.26Z"/><path class="cls-2" d="M80.78,38a9.18,9.18,0,0,0-1.49-5.41l1.07-1.07A10.6,10.6,0,0,1,82.28,38a21.74,21.74,0,0,1-.39,3.89c-.46-.29-.92-.57-1.37-.83A20.81,20.81,0,0,0,80.78,38Z"/><path class="cls-2" d="M80.52,41c.45.26.91.54,1.37.83-.09.52-.2,1-.31,1.57h0l-1.32-.82C80.34,42.06,80.44,41.53,80.52,41Z"/><path class="cls-2" d="M79.65,57.27a15.29,15.29,0,0,1-.37-3,15,15,0,0,1,.37-3c.15.12.3.24.43.36l.23.21.21.2.21.21.22.24a9.46,9.46,0,0,0,0,3.57A10.47,10.47,0,0,1,79.65,57.27Z"/><path class="cls-2" d="M80,58.87c-.14-.55-.26-1.09-.37-1.6a10.47,10.47,0,0,0,1.3-1.22c.1.61.23,1.22.36,1.77A14,14,0,0,1,80,58.87Z"/><path class="cls-2" d="M80.73,52.24,80.52,52Z"/><path class="cls-3" d="M80.78,38A20.81,20.81,0,0,1,80.52,41l-1.61-1-1.21-.72a8.45,8.45,0,0,0-.61-4.6l2.2-2.2A9.18,9.18,0,0,1,80.78,38Z"/><path class="cls-2" d="M79.49,30.46l.95,1-.08.08A9.22,9.22,0,0,0,79.49,30.46Z"/><path class="cls-2" d="M80.31,51.83l-.23-.21Z"/><path class="cls-4" d="M78.16,67.13l2.08-1.23c.79,3.89,1.11,8.18-1.92,11.2a8.7,8.7,0,0,1-6.58,2.46A22.18,22.18,0,0,1,67.12,79c.42-.69.82-1.38,1.22-2.06l.4-.68.61.09a16.46,16.46,0,0,0,2.33.2A6.22,6.22,0,0,0,76.21,75c1.86-1.88,1.67-4.81,1.37-6.84,0-.21-.06-.41-.1-.62Z"/><path class="cls-2" d="M80.62,61.2c-.21-.79-.42-1.56-.6-2.32l.89,1.2c.26-.19.53-.4.8-.62.08.32.17.65.26,1l.24.9.33,1.27h0l-.64.45-.68.46C81,62.74,80.82,62,80.62,61.2Z"/><path class="cls-2" d="M80.13,65.39c-.25-1.09-.54-2.21-.82-3.29l-.24-.89c-.13-.48-.25-1-.36-1.42.46-.3.9-.6,1.31-.91.18.76.39,1.53.6,2.32s.41,1.54.6,2.33l-.44.28h0l.8,1.25h0c-.44.28-.89.55-1.34.82C80.2,65.73,80.17,65.56,80.13,65.39Z"/><polygon class="cls-2" points="80.03 49.64 80.03 49.65 80.02 49.64 80.03 49.64"/><path class="cls-2" d="M80,49.65h0v0Z"/><path class="cls-2" d="M79.65,57.27c.11.51.23,1.05.37,1.6l-.89-1.2Z"/><path class="cls-2" d="M78.16,41.38,76.1,40.17l1.48.22q.08-.48.12-1l1.21.72,1.61,1c-.08.49-.18,1-.29,1.57Z"/><path class="cls-2" d="M79.13,50.85,80,49.66c-.14.55-.27,1.09-.37,1.6Z"/><path class="cls-4" d="M77.48,67.52c-.29-1.71-.77-3.54-1.22-5.21l-.13-.48c0-.14-.07-.27-.1-.41.92-.53,1.83-1.08,2.68-1.63.11.47.23.94.36,1.42l.24.89c.28,1.08.57,2.2.82,3.29,0,.17.07.34.11.51l-2.08,1.23Z"/><path class="cls-2" d="M79.13,50.85l-.8-.56c.07-.32.15-.66.24-1l1.45.36v0Z"/><path class="cls-2" d="M78.52,59.06a28.33,28.33,0,0,1-.64-3.3h1.4v-1.5a15.29,15.29,0,0,0,.37,3l-.52.4.89,1.2h0c-.41.31-.85.61-1.31.91-.06-.19-.1-.37-.15-.56Z"/><path class="cls-2" d="M79.29,32.57l-2.2,2.2A4.75,4.75,0,0,0,75,32.64l2.19-2.19a8.65,8.65,0,0,1,1.16,1A7.49,7.49,0,0,1,79.29,32.57Z"/><path class="cls-2" d="M79.28,54.26v1.5h-1.4a11.78,11.78,0,0,1-.1-1.5,13.79,13.79,0,0,1,.09-1.5h1.41Z"/><path class="cls-2" d="M78.32,29.29,79,30c-.24-.21-.49-.41-.74-.59Z"/><path class="cls-2" d="M78.32,31.42a8.65,8.65,0,0,0-1.16-1l1.08-1.08c.25.18.5.38.74.59l.51.5a9.22,9.22,0,0,1,.87,1l-1.07,1.07A7.49,7.49,0,0,0,78.32,31.42Z"/><path class="cls-2" d="M78.33,50.29c-.85-.58-1.77-1.15-2.68-1.69.11-.49.24-1,.38-1.51a42.28,42.28,0,0,1,4,2.55l-1.45-.36C78.48,49.63,78.4,50,78.33,50.29Z"/><path class="cls-2" d="M79.28,52.76H77.87a24.43,24.43,0,0,1,.46-2.47l.8.56.52.41a15,15,0,0,0-.37,3Z"/><path class="cls-4" d="M76,61.42a37.26,37.26,0,0,1-1.16-5.66h3a28.33,28.33,0,0,0,.64,3.3l0,.17c0,.19.09.37.15.56C77.86,60.34,76.95,60.89,76,61.42Z"/><path class="cls-3" d="M78.33,50.29a24.43,24.43,0,0,0-.46,2.47h-3a27.85,27.85,0,0,1,.78-4.16C76.56,49.14,77.48,49.71,78.33,50.29Z"/><path class="cls-2" d="M74.78,54.26a12.83,12.83,0,0,1,.09-1.5h3a13.79,13.79,0,0,0-.09,1.5,11.78,11.78,0,0,0,.1,1.5h-3A13.1,13.1,0,0,1,74.78,54.26Z"/><path class="cls-2" d="M77.7,39.37q0,.54-.12,1l-1.48-.22h0l.77-1.28C77.14,39.05,77.42,39.21,77.7,39.37Z"/><path class="cls-2" d="M76.25,38.5a5.11,5.11,0,0,0-1-3.84l1,1,.89-.89a8.45,8.45,0,0,1,.61,4.6c-.28-.16-.56-.32-.83-.49Z"/><path class="cls-2" d="M77.41,42.69c-.72-.42-1.42-.83-2.09-1.24l.78-1.28,2.06,1.21,2.07,1.23c0,.17-.07.34-.11.51l1.43.31,0,0h0l-.81,1.27C79.69,44,78.55,43.35,77.41,42.69Z"/><path class="cls-2" d="M75.14,34.59l-.07-.06-1-1,.89-.9a4.75,4.75,0,0,1,2.12,2.13l-.89.89-1-1Z"/><path class="cls-2" d="M76.25,38.5l.62.38-.77,1.28h0A14.29,14.29,0,0,0,76.25,38.5Z"/><path class="cls-2" d="M76.09,68.35l.78,1.29-.62.38A14.46,14.46,0,0,0,76.09,68.35Z"/><path class="cls-2" d="M75.44,63.51l-.76-1.29h0l.46-.27c.3-.17.6-.34.89-.52,0,.14.06.27.1.41l.13.48c.45,1.67.93,3.5,1.22,5.21-.48.28-.94.55-1.39.83a42.18,42.18,0,0,0-1-4.63Z"/><path class="cls-2" d="M74.74,71a9.37,9.37,0,0,0-.05-1.8c.44-.29.91-.58,1.4-.88A14.46,14.46,0,0,1,76.25,70C75.75,70.33,75.23,70.67,74.74,71Z"/><polygon class="cls-2" points="76.1 40.16 76.1 40.17 76.09 40.16 76.1 40.16"/><path class="cls-2" d="M76.09,40.16l-1.48-.22c0-.23.06-.45.08-.66C75.13,39.57,75.6,39.86,76.09,40.16Z"/><path class="cls-2" d="M74.61,68.58c0-.31-.1-.64-.16-1,.27-.18.56-.35.87-.54l.77,1.28c-.49.3-1,.59-1.4.88C74.67,69,74.64,68.81,74.61,68.58Z"/><path class="cls-2" d="M74.29,47.81l.39-1.5h0l.46.27.89.52c-.14.52-.27,1-.38,1.51l-1.26-.73Z"/><path class="cls-2" d="M75.89,45.27a54.88,54.88,0,0,1,5,3.17L80,49.64h0a42.28,42.28,0,0,0-4-2.55c0-.12.07-.25.1-.38l.13-.5L75,45.83l.48-.82Z"/><path class="cls-2" d="M74.69,39.28a9.25,9.25,0,0,0,.05-1.79c.46.34,1,.67,1.51,1a14.29,14.29,0,0,1-.16,1.66C75.6,39.86,75.13,39.57,74.69,39.28Z"/><path class="cls-2" d="M75.32,67.07c-.31.19-.6.36-.87.54-.19-1-.44-2.06-.71-3.09.45-.28.9-.54,1.34-.8a42.18,42.18,0,0,1,1,4.63Z"/><path class="cls-2" d="M74.68,62.21a40.61,40.61,0,0,1-1.32-6.45h1.51A37.26,37.26,0,0,0,76,61.42c-.29.18-.59.35-.89.52Z"/><path class="cls-2" d="M74.62,41l.7.43Z"/><path class="cls-2" d="M74.68,46.3l.28-.47,1.3.38-.13.5c0,.13-.07.26-.1.38l-.89-.52Z"/><path class="cls-2" d="M75.14,34.59l.06.07-.13-.13Z"/><path class="cls-2" d="M75.08,63.72c-.08-.33-.17-.66-.26-1,0-.17-.09-.33-.14-.51l.76,1.29Z"/><path class="cls-2" d="M74,44.18l.92.55Z"/><path class="cls-2" d="M73.34,63l1.34-.8h0c0,.18.09.34.14.51.09.33.18.66.26,1-.44.26-.89.52-1.34.8-.12-.48-.25-.95-.37-1.4Z"/><path class="cls-2" d="M73.28,54.31v0c0-.49,0-1,.08-1.5h1.51a12.83,12.83,0,0,0-.09,1.5,13.1,13.1,0,0,0,.09,1.5H73.36A14.41,14.41,0,0,1,73.28,54.31Z"/><path class="cls-2" d="M74.69,69.23a9.37,9.37,0,0,1,.05,1.8,10.71,10.71,0,0,0-1.37,1.13,10.86,10.86,0,0,0-1.13,1.37,10.13,10.13,0,0,1-1.79,0,12.32,12.32,0,0,1,4.24-4.25Z"/><path class="cls-2" d="M74.68,46.3l-1.34-.79s0-.1,0-.15l1.58.47Z"/><path class="cls-2" d="M74.61,68.58c0,.23.06.44.08.65a12.32,12.32,0,0,0-4.24,4.25l-.67-.09c-.31,0-.62-.1-1-.16A18.91,18.91,0,0,1,71.25,70a18.49,18.49,0,0,1,3.2-2.42C74.51,67.94,74.57,68.27,74.61,68.58Z"/><path class="cls-2" d="M73.36,52.76a33.78,33.78,0,0,1,.93-5l.1.06,1.26.73a27.85,27.85,0,0,0-.78,4.16Z"/><path class="cls-2" d="M74.29,47.81l-.37-.21.76-1.29Z"/><path class="cls-2" d="M71.67,38.88l-.42-.39,1.07-1.07a15.17,15.17,0,0,0,2.37,1.86c0,.21,0,.43-.08.66l1.48.22h0l-.78,1.28-.7-.43q-.73-.45-1.41-.93l-.28-.2q-.51-.36-1-.75Z"/><path class="cls-2" d="M73.38,36.37l.35.33A3.68,3.68,0,0,1,73.38,36.37Z"/><path class="cls-2" d="M73.4,47.29,72.95,47c.09-.36.18-.73.28-1.1l.06-.22c0-.06,0-.12,0-.19l1.34.79h0l-.76,1.29Z"/><path class="cls-2" d="M73.24,62.62c-.1-.38-.2-.76-.29-1.13l1-.57.76,1.29-1.34.8a1.8,1.8,0,0,0,0-.19Z"/><path class="cls-2" d="M74.69,39.28a15.17,15.17,0,0,1-2.37-1.86l1-1h0a3.68,3.68,0,0,0,.35.33,10.75,10.75,0,0,0,1,.79A9.25,9.25,0,0,1,74.69,39.28Z"/><path class="cls-2" d="M73.28,52.76h.08c0,.51-.08,1-.08,1.5Z"/><path class="cls-2" d="M73.36,55.76h-.08V54.31A14.41,14.41,0,0,0,73.36,55.76Z"/><path class="cls-2" d="M79.38,78.16a10.27,10.27,0,0,1-7.64,2.9,25.3,25.3,0,0,1-5.46-.7c.29-.44.57-.9.84-1.35a22.18,22.18,0,0,0,4.62.55,8.7,8.7,0,0,0,6.58-2.46c3-3,2.71-7.31,1.92-11.2.45-.27.9-.54,1.34-.82h0v0C82.62,69.81,82.91,74.63,79.38,78.16Z"/><path class="cls-2" d="M73.92,60.92l-1,.57a29.64,29.64,0,0,1-1.17-7.23A30.06,30.06,0,0,1,72.94,47c.16.08.31.17.46.26l.52.31.37.21a33.78,33.78,0,0,0-.93,5h-.08v3h.08a40.61,40.61,0,0,0,1.32,6.45Z"/><path class="cls-2" d="M72.93,39.89l.28.2Z"/><path class="cls-4" d="M73.21,40.09q.67.48,1.41.93l.7.43c.67.41,1.37.82,2.09,1.24,1.14.66,2.28,1.32,3.37,2l.65.42c.43.29.86.59,1.28.9l.62.47.61.5c.39.34.77.69,1.13,1.06.17.19.35.38.51.57a2.51,2.51,0,0,1,.26.31c.15.2.3.39.43.59l.21.32a2.14,2.14,0,0,1,.2.32c.17.31.33.62.47.94a.5.5,0,0,1,0,.13c0,.1.08.2.11.3a5.68,5.68,0,0,1,.31,1.11c0,.13,0,.26.07.39a5.35,5.35,0,0,1,.07.7c0,.17,0,.34,0,.51a7.34,7.34,0,0,1-.06,1h-3a4.19,4.19,0,0,0,.1-1,3.91,3.91,0,0,0,0-.49,2.7,2.7,0,0,0-.06-.41A5.14,5.14,0,0,0,84,51.61a2.7,2.7,0,0,0-.2-.31l-.07-.11L83.6,51l-.23-.3a7.19,7.19,0,0,0-.79-.86,6.2,6.2,0,0,0-.6-.55l-.09-.08c-.18-.16-.37-.31-.55-.45l-.42-.32a54.88,54.88,0,0,0-5-3.17L75.44,45,75,44.73,74,44.18c-1-.57-1.89-1.16-2.75-1.78-.26-.19-.52-.38-.77-.58a13.7,13.7,0,0,1-1.39-1.21A15.42,15.42,0,0,1,68,39.28l-.52-.69c-.39-.53-.77-1.09-1.13-1.67l-.53-.85a.56.56,0,0,1,0-.08c1.1-.28,2.13-.52,3.1-.7a18.49,18.49,0,0,0,2.42,3.2l.42.39a2.55,2.55,0,0,0,.3.26q.45.39,1,.75Z"/><path class="cls-2" d="M72.95,47l.45.27c-.15-.09-.3-.18-.46-.26Z"/><path class="cls-2" d="M72.95,47h0l-.8-.49Z"/><path class="cls-2" d="M71.24,33.48a5.07,5.07,0,0,1,3.83,1.05l.13.13a5.11,5.11,0,0,1,1,3.84c-.54-.34-1-.67-1.51-1a2.92,2.92,0,0,0-.66-1.84A2.9,2.9,0,0,0,72.24,35C71.88,34.5,71.54,34,71.24,33.48Z"/><path class="cls-2" d="M72.24,73.53a2.9,2.9,0,0,0,1.85-.67A2.87,2.87,0,0,0,74.74,71c.49-.36,1-.7,1.51-1a4.18,4.18,0,0,1-5,5C71.56,74.53,71.89,74,72.24,73.53Z"/><path class="cls-2" d="M72.31,37.42A14.81,14.81,0,0,1,70.46,35,11.06,11.06,0,0,1,72.24,35a11.62,11.62,0,0,0,1.13,1.37h0l-1,1Z"/><path class="cls-2" d="M71.65,46.24l.49.3Z"/><path class="cls-2" d="M71.67,38.88l.3.26A2.55,2.55,0,0,1,71.67,38.88Z"/><path class="cls-2" d="M71.29,42.4c-.26-.19-.52-.38-.77-.58C70.77,42,71,42.21,71.29,42.4Z"/><path class="cls-2" d="M71.24,33.48a14.13,14.13,0,0,0-1.65.16l1.27-.77C71,33.07,71.1,33.27,71.24,33.48Z"/><path class="cls-2" d="M69.57,74.87a14.38,14.38,0,0,0,1.66.17l-.38.62Z"/><path class="cls-2" d="M71.68,76.56a16.46,16.46,0,0,1-2.33-.2l-.61-.09c.28-.48.55-.94.83-1.4l1.28.79.38-.62a4.18,4.18,0,0,0,5-5l.62-.38-.78-1.29c.45-.28.91-.55,1.39-.83,0,.21.07.41.1.62.3,2,.49,5-1.37,6.84A6.22,6.22,0,0,1,71.68,76.56Z"/><path class="cls-2" d="M71.24,33.48c.3.5.64,1,1,1.51a11.06,11.06,0,0,0-1.78.05c-.3-.44-.59-.9-.89-1.39h0A14.13,14.13,0,0,1,71.24,33.48Z"/><path class="cls-2" d="M72.24,73.53c-.35.48-.68,1-1,1.51a14.38,14.38,0,0,1-1.66-.17c.29-.48.59-1,.88-1.39A10.13,10.13,0,0,0,72.24,73.53Z"/><path class="cls-2" d="M69.79,35.13l.67-.09a14.81,14.81,0,0,0,1.85,2.38h0l-1.07,1.07a18.49,18.49,0,0,1-2.42-3.2C69.16,35.23,69.48,35.17,69.79,35.13Z"/><path class="cls-2" d="M67,26.47c4.35-.84,9.58-1.06,13.46,2.82A11.65,11.65,0,0,1,83.78,38a24.59,24.59,0,0,1-.53,4.77l-.86-.56-.5-.32A21.74,21.74,0,0,0,82.28,38a10.6,10.6,0,0,0-1.92-6.48l.08-.08-.95-1L79,30l-.66-.67-.08.08c-3.4-2.49-7.7-2.15-11.94-1.23l1.25-.8Q67.28,26.91,67,26.47Z"/><path class="cls-2" d="M69.56,74.87l-1.27-.78c.17-.28.35-.57.54-.86.33.06.64.12,1,.16l.67.09c-.29.44-.59.91-.88,1.39Z"/><path class="cls-2" d="M68.29,34.42l1.28-.77c.3.49.59,1,.89,1.39l-.67.09c-.31,0-.63.1-1,.16C68.65,35,68.48,34.73,68.29,34.42Z"/><path class="cls-2" d="M69.59,33.64h0Z"/><path class="cls-2" d="M69.57,33.64l-.82-1.39.61-.09a9.69,9.69,0,0,1,5.61.48l-.89.9,1,1a5.07,5.07,0,0,0-3.83-1.05c-.14-.21-.26-.41-.38-.61l-1.27.77Z"/><path class="cls-2" d="M68.64,44.16c.26.21.53.41.8.61C69.17,44.57,68.9,44.37,68.64,44.16Z"/><path class="cls-2" d="M68.29,74.09l1.27.78a42.53,42.53,0,0,1-4.62-1l.79-1.33c1,.26,2.09.52,3.1.7C68.64,73.52,68.46,73.81,68.29,74.09Z"/><path class="cls-3" d="M65.73,72.53a24.91,24.91,0,0,1,3.39-4.61,24.75,24.75,0,0,1,4.62-3.4c.27,1,.52,2.09.71,3.09A18.49,18.49,0,0,0,71.25,70a18.91,18.91,0,0,0-2.42,3.2C67.82,73.05,66.76,72.79,65.73,72.53Z"/><path class="cls-2" d="M69.12,67.92a24.91,24.91,0,0,0-3.39,4.61l-1.36-.36-.15,0a26.77,26.77,0,0,1,3.84-5.28l.33-.31a29,29,0,0,1,5-3.53l0,.11c.12.45.25.92.37,1.4A24.75,24.75,0,0,0,69.12,67.92Z"/><path class="cls-2" d="M67.83,43.48l.54-.54a1.4,1.4,0,0,0,.37-.64,32.56,32.56,0,0,0,4.6,3.21c0,.07,0,.13,0,.19l-.06.22c-.1.37-.19.74-.28,1.1l-.81-.48-.49-.3c-.76-.47-1.5-1-2.21-1.47-.27-.2-.54-.4-.8-.61S68.09,43.72,67.83,43.48Z"/><path class="cls-2" d="M64.94,34.65a41.69,41.69,0,0,1,4.63-1h0l-1.28.77c.19.31.36.6.54.87-1,.18-2,.42-3.1.7C65.46,35.55,65.2,35.1,64.94,34.65Z"/><path class="cls-2" d="M67.83,43.48c.26.24.53.46.81.68-.28-.21-.55-.44-.82-.67Z"/><path class="cls-2" d="M77.16,30.45c-2.87-2-6.48-1.68-10.05-1-.26-.45-.54-.9-.83-1.35h0c4.24-.92,8.54-1.26,11.94,1.23Z"/><path class="cls-2" d="M68.37,64.39l.09.11A16.59,16.59,0,0,0,67,65.79c-.24.24-.48.5-.71.76l0,0-2.17-2.17a1.5,1.5,0,0,1,2.12-2.13Z"/><path class="cls-2" d="M73.34,63a29,29,0,0,0-5,3.53l0,0a1.48,1.48,0,0,0,.09-2,38.65,38.65,0,0,1,4.49-3c.09.37.19.75.29,1.13l0,.2A1.8,1.8,0,0,1,73.34,63Z"/><path class="cls-2" d="M68.37,66.52a1.49,1.49,0,0,1-1.06.44,1.51,1.51,0,0,1-1-.41c.23-.26.47-.52.71-.76a16.59,16.59,0,0,1,1.46-1.29A1.48,1.48,0,0,1,68.37,66.52Z"/><path class="cls-4" d="M68.34,31.56c-.4-.68-.8-1.37-1.23-2.06,3.57-.73,7.18-1,10.05,1L75,32.64a9.69,9.69,0,0,0-5.61-.48l-.61.09Z"/><path class="cls-2" d="M68.06,41.66A14.56,14.56,0,0,1,67,40.43a1.48,1.48,0,0,1,1.78,1.87C68.51,42.09,68.28,41.88,68.06,41.66Z"/><path class="cls-2" d="M67.44,38.59l.52.69C67.78,39.06,67.61,38.83,67.44,38.59Z"/><path class="cls-2" d="M67.83,43.48h0c-.28-.24-.55-.49-.81-.76C67.27,43,67.54,43.24,67.83,43.48Z"/><path class="cls-2" d="M67.82,43.49,66.2,45.1a1.49,1.49,0,0,1-2.12,0,1.51,1.51,0,0,1,0-2.12l1.66-1.65c.17.21.35.42.53.62l0,.06c.22.26.45.5.68.73h0C67.27,43,67.54,43.25,67.82,43.49Z"/><path class="cls-2" d="M68.06,66.85a26.77,26.77,0,0,0-3.84,5.28L63.81,72l-1.1-.29a33.77,33.77,0,0,1,3.58-5.18,1.51,1.51,0,0,0,1,.41,1.49,1.49,0,0,0,1.06-.44l0,0Z"/><path class="cls-2" d="M66.28,80.36l1.27.81q-.27.43-.57.87l-1-.21-.58-.13C65.69,81.26,66,80.81,66.28,80.36Z"/><path class="cls-2" d="M65.75,41.31l.5-.5a1.38,1.38,0,0,1,.71-.38,14.56,14.56,0,0,0,1.1,1.23c.22.22.45.43.68.64a1.4,1.4,0,0,1-.37.64l-.54.54c-.29-.24-.56-.49-.82-.75s-.46-.48-.69-.73l0-.06C66.09,41.74,65.92,41.53,65.75,41.31Z"/><path class="cls-2" d="M66.32,42c.23.25.46.5.69.73h0C66.77,42.5,66.54,42.26,66.32,42Z"/><path class="cls-2" d="M66.28,80.36a25.3,25.3,0,0,0,5.46.7,10.27,10.27,0,0,0,7.64-2.9c3.53-3.53,3.24-8.35,2.22-13.06l.44.68.35.56h0l.87-.57c.84,4.35,1.06,9.57-2.83,13.46a11.67,11.67,0,0,1-8.7,3.33A24.71,24.71,0,0,1,67,82q.3-.43.57-.87Z"/><path class="cls-4" d="M66.6,78.9c-1.31-.28-2.65-.64-3.8-.94-.61-.17-1.21-.32-1.8-.46.55-.85,1.1-1.76,1.64-2.68l.47.12.46.11c1.63.44,3.45.92,5.17,1.22l-.4.68c-.4.68-.8,1.37-1.22,2.06Z"/><path class="cls-2" d="M65.78,36.07l.53.85C66.13,36.64,65.95,36.36,65.78,36.07Z"/><polygon class="cls-2" points="66.28 28.14 66.29 28.14 66.28 28.15 66.28 28.14"/><path class="cls-2" d="M66.28,28.14h0L65,29l-.28-.44C65.25,28.38,65.76,28.25,66.28,28.14Z"/><path class="cls-2" d="M65,79.56l1.26.8c-.51-.11-1-.23-1.54-.36Z"/><path class="cls-2" d="M65.75,41.31c.17.22.34.43.52.63-.18-.2-.36-.41-.53-.62Z"/><path class="cls-2" d="M66.28,28.14c-.29-.45-.58-.89-.89-1.32l.57-.14,1-.21q.3.43.57.87l-1.25.8h0Z"/><path class="cls-2" d="M67,40.43a32.41,32.41,0,0,1-2.73-4l.11,0L65.73,36a.56.56,0,0,0,0,.08c.17.29.35.57.53.85.36.58.74,1.14,1.13,1.67.17.24.34.47.52.69a15.42,15.42,0,0,0,1.17,1.33,13.7,13.7,0,0,0,1.39,1.21c.25.2.51.39.77.58.86.62,1.79,1.21,2.75,1.78l.92.55.48.28-.48.82-1.58-.47s0,.1,0,.15a32.56,32.56,0,0,1-4.6-3.21A1.48,1.48,0,0,0,67,40.43Z"/><path class="cls-2" d="M65.39,26.82c.31.43.6.87.89,1.32-.52.11-1,.24-1.54.37-.29-.44-.59-.88-.91-1.31Z"/><path class="cls-2" d="M66.28,80.36c-.29.45-.59.9-.9,1.34-.53-.12-1.05-.24-1.56-.38.32-.43.63-.88.92-1.32C65.25,80.13,65.77,80.25,66.28,80.36Z"/><path class="cls-2" d="M65.74,41.32c-.06-.08-.12-.15-.17-.23a1.92,1.92,0,0,0,.18.22Z"/><path class="cls-2" d="M64.91,40.21c.21.3.43.6.66.88C65.34,40.81,65.12,40.51,64.91,40.21Z"/><path class="cls-2" d="M64.73,74.23l-1.3-.76.52.13,1,.26Z"/><path class="cls-2" d="M64.34,36.36l-.11,0c-.27-.44-.53-.89-.8-1.34h0a4.05,4.05,0,0,0,.5-.12l1-.26c.26.45.52.9.79,1.34Z"/><path class="cls-2" d="M63.85,38.64c-.2-.3-.39-.61-.58-.93s-.37-.61-.56-.92l1.05-.28.47-.12a32.41,32.41,0,0,0,2.73,4,1.38,1.38,0,0,0-.71.38l-.5.5a1.92,1.92,0,0,1-.18-.22c-.23-.28-.45-.58-.66-.88C64.54,39.7,64.19,39.18,63.85,38.64Z"/><path class="cls-2" d="M63.43,73.47c.26-.45.52-.9.79-1.34l.15,0,1.36.36-.79,1.33-1-.26Z"/><path class="cls-2" d="M63.45,35l1.28-.74.21.36-1,.26A4.05,4.05,0,0,1,63.45,35Z"/><path class="cls-2" d="M63.85,38.64c-.2-.31-.39-.62-.58-.93C63.46,38,63.65,38.34,63.85,38.64Z"/><path class="cls-2" d="M68.74,76.27c-1.72-.3-3.54-.78-5.17-1.22l-.46-.11-.47-.12.52-.89.27-.46,1.3.76.21-.37a42.53,42.53,0,0,0,4.62,1h0C69.29,75.33,69,75.79,68.74,76.27Z"/><path class="cls-2" d="M62.14,35.8l1.29-.75c.27.45.53.9.8,1.34l-.47.12-1.05.28-.08-.14-.19-.32Z"/><path class="cls-2" d="M63.42,73.47l-1.28-.75.57-1,1.1.29.41.11c-.27.44-.53.89-.79,1.34Z"/><path class="cls-2" d="M64.46,33.83l-1.3.75-.52-.89.41-.1.48-.11c1.91-.51,3.61-1,5.22-1.23l.82,1.39a41.69,41.69,0,0,0-4.63,1l-.21-.36Z"/><polygon class="cls-2" points="63.43 35.04 63.44 35.04 63.43 35.05 63.43 35.04"/><path class="cls-2" d="M63.43,35c-.51.13-1,.27-1.52.39a.41.41,0,0,0,0-.09l1.3-.76Z"/><path class="cls-2" d="M61,31c-.3-.46-.61-.9-.92-1.31h0c.74-.18,1.52-.39,2.3-.6s1.54-.41,2.33-.6L65,29l1.26-.8c.29.45.57.9.83,1.35l-.51.11c-1.09.24-2.2.53-3.28.82l-.79.21Z"/><path class="cls-4" d="M62.64,33.69c-.53-.92-1.08-1.82-1.63-2.66l1.52-.39.79-.21c1.08-.29,2.19-.58,3.28-.82l.51-.11c.43.69.83,1.38,1.23,2.06l.41.69c-1.61.27-3.31.72-5.22,1.23l-.48.11Z"/><path class="cls-2" d="M63.16,34.58l1.3-.75.27.46L63.45,35h0Z"/><path class="cls-3" d="M62.56,27.53l-.8.21L60.67,28c-1.22-1.49-3-3.07-5.2-3.07s-4,1.58-5.2,3.07l-1.1-.3-.77-.2-1.28-.33c2-2.81,4.64-5.24,8.35-5.24s6.32,2.43,8.36,5.24Z"/><path class="cls-2" d="M62.44,36.33l.19.32Z"/><path class="cls-2" d="M62.44,36.33l-.53-.9c.51-.12,1-.26,1.52-.39h0l-1.29.75Z"/><path class="cls-2" d="M62,80.85l-1.35-.35c.22-.27.43-.54.62-.79l-1.2-.9c.75.18,1.53.38,2.32.59s1.55.41,2.33.6c-.29.44-.6.89-.92,1.32Z"/><path class="cls-2" d="M61.76,27.74l.8-.21,1.27-.33c.32.43.62.87.91,1.31-.79.19-1.57.4-2.33.6s-1.56.42-2.3.6l1.19-.89c-.19-.25-.4-.52-.63-.79Z"/><path class="cls-2" d="M61,77.5c.59.14,1.19.29,1.8.46,1.15.3,2.49.66,3.8.94l.52.11c-.27.45-.55.91-.84,1.35L65,79.56l-.28.44c-.78-.19-1.56-.39-2.33-.6s-1.57-.41-2.32-.59C60.4,78.4,60.7,78,61,77.5Z"/><path class="cls-2" d="M60.09,78.81l1.2.9c-.19.25-.4.52-.62.79l-.93-.23L59,80.1A15.88,15.88,0,0,0,60.09,78.81Z"/><path class="cls-2" d="M60.11,29.71h0Z"/><path class="cls-2" d="M60.09,29.71h0l-1.2.89c-.14-.19-.27-.36-.41-.53C59,30,59.54,29.85,60.09,29.71Z"/><path class="cls-2" d="M59.73,28.26l.94-.23c.23.27.44.54.63.79l-1.19.89h0a15.27,15.27,0,0,0-1-1.28Z"/><path class="cls-2" d="M60.09,78.81A15.88,15.88,0,0,1,59,80.1c-.55-.13-1.17-.26-1.78-.36a9.23,9.23,0,0,0,1.23-1.3c.51.11,1,.23,1.6.37Z"/><path class="cls-2" d="M58.89,77.92l1.19.89c-.55-.14-1.09-.26-1.6-.37C58.62,78.28,58.75,78.1,58.89,77.92Z"/><path class="cls-2" d="M58.48,30.08a9.68,9.68,0,0,0-1.23-1.29c.62-.1,1.24-.23,1.79-.36a15.27,15.27,0,0,1,1,1.28C59.54,29.85,59,30,58.48,30.08Z"/><path class="cls-2" d="M55.47,36.45a32.89,32.89,0,0,1-8-1.41l.27-.46.51-.88A30.77,30.77,0,0,0,55.47,35a29.59,29.59,0,0,0,7.17-1.27l.52.89-1.3.76a.41.41,0,0,1,0,.09A27.07,27.07,0,0,1,55.47,36.45Z"/><path class="cls-2" d="M48.23,71.74a29.94,29.94,0,0,1,7.24-1.16,30.56,30.56,0,0,1,7.24,1.15l-.57,1,1.28.75a32.78,32.78,0,0,0-7.95-1.4,27.63,27.63,0,0,0-6.45,1l-.21-.36C48.62,72.39,48.43,72.06,48.23,71.74Z"/><path class="cls-2" d="M50.27,28c1.22-1.49,3-3.07,5.2-3.07s4,1.58,5.2,3.07l-.94.23-.69.17a5.09,5.09,0,0,0-3.57-2,5.13,5.13,0,0,0-3.58,2l-.69-.17Z"/><path class="cls-2" d="M55.47,22c-3.71,0-6.31,2.43-8.35,5.24-.52-.14-1-.27-1.57-.39,2.44-3.5,5.46-6.36,9.92-6.36s7.49,2.87,9.92,6.37l-1.56.38C61.79,24.39,59.19,22,55.47,22Z"/><path class="cls-4" d="M55.47,76.58a21,21,0,0,0-5,.78l-.56.14c-.55-.85-1.1-1.76-1.64-2.68a29.67,29.67,0,0,1,7.17-1.24,29.59,29.59,0,0,1,7.17,1.24c-.54.92-1.09,1.83-1.64,2.68l-.54-.14A21.11,21.11,0,0,0,55.47,76.58Z"/><path class="cls-2" d="M55.47,83.58c-2.22,0-4-1.59-5.19-3.08l.94-.23.69-.17a5.06,5.06,0,0,0,3.56,2,5.06,5.06,0,0,0,3.56-2l.71.17.93.23C59.44,82,57.7,83.58,55.47,83.58Z"/><path class="cls-2" d="M47.51,35a32.89,32.89,0,0,0,8,1.41,27.07,27.07,0,0,0,6.44-1l.53.9.19.32.08.14A30.42,30.42,0,0,1,55.47,38a30.25,30.25,0,0,1-7.24-1.17l.58-1Z"/><path class="cls-2" d="M55.47,28a2.89,2.89,0,0,0-1.77.83c-.62-.1-1.25-.23-1.81-.36a5.13,5.13,0,0,1,3.58-2,5.09,5.09,0,0,1,3.57,2c-.55.13-1.17.26-1.79.36A2.91,2.91,0,0,0,55.47,28Z"/><path class="cls-2" d="M55.47,82.07a5.06,5.06,0,0,1-3.56-2c.55-.13,1.17-.26,1.79-.35a2.81,2.81,0,0,0,1.77.83,2.78,2.78,0,0,0,1.77-.84h0c.61.1,1.23.23,1.78.36A5.06,5.06,0,0,1,55.47,82.07Z"/><path class="cls-2" d="M55.47,30.45a15,15,0,0,1-3-.37,9.07,9.07,0,0,1,1.22-1.29,9.35,9.35,0,0,0,3.55,0,9.68,9.68,0,0,1,1.23,1.29A15.11,15.11,0,0,1,55.47,30.45Z"/><path class="cls-2" d="M55.47,79.58a11.36,11.36,0,0,0-1.77.17,10,10,0,0,1-1.24-1.31,15.11,15.11,0,0,1,3-.37,15.11,15.11,0,0,1,3,.37,9.23,9.23,0,0,1-1.23,1.3h0A12.77,12.77,0,0,0,55.47,79.58Z"/><path class="cls-4" d="M55.47,35a30.77,30.77,0,0,1-7.18-1.26c.54-.92,1.08-1.83,1.64-2.67l.56.14a21.23,21.23,0,0,0,5,.79,21,21,0,0,0,5-.79L61,31c.55.84,1.1,1.74,1.63,2.66A29.59,29.59,0,0,1,55.47,35Z"/><path class="cls-2" d="M53.7,28.79a9.07,9.07,0,0,0-1.22,1.29c-.52-.1-1.07-.23-1.63-.37.34-.46.69-.89,1-1.28C52.45,28.56,53.08,28.69,53.7,28.79Z"/><path class="cls-2" d="M52.46,78.44a10,10,0,0,0,1.24,1.31c-.62.09-1.24.22-1.79.35a15.88,15.88,0,0,1-1.06-1.29h0C51.41,78.67,51.95,78.55,52.46,78.44Z"/><path class="cls-2" d="M52.48,30.08c-.14.17-.28.34-.42.53l-1.21-.9C51.41,29.85,52,30,52.48,30.08Z"/><path class="cls-2" d="M52,77.92c.14.18.27.36.41.52-.51.11-1,.23-1.6.37Z"/><path class="cls-2" d="M52.06,30.61c.14-.19.28-.36.42-.53a15,15,0,0,0,3,.37,15.11,15.11,0,0,0,3-.37c.14.17.27.34.41.53l1.2-.89c.31.41.62.85.92,1.31l-.57.14a21,21,0,0,1-5,.79,21.23,21.23,0,0,1-5-.79L49.93,31c.3-.46.61-.9.92-1.32Z"/><path class="cls-2" d="M50.5,77.36a21,21,0,0,1,5-.78,21.11,21.11,0,0,1,5,.78l.54.14c-.3.46-.6.9-.91,1.31h0l-1.19-.89c-.14.18-.27.36-.41.52a15.11,15.11,0,0,0-3-.37,15.11,15.11,0,0,0-3,.37c-.14-.16-.27-.34-.41-.52l-1.19.89h0c-.31-.41-.61-.85-.91-1.31Z"/><path class="cls-2" d="M50.85,78.81a15.88,15.88,0,0,0,1.06,1.29l-.69.17-.94.23c-.23-.27-.44-.54-.63-.79Z"/><path class="cls-2" d="M51.89,28.43c-.35.39-.7.82-1,1.28l-1.2-.89c.19-.25.39-.52.62-.79l.93.23Z"/><path class="cls-3" d="M48.92,80.86l.26-.06,1.1-.3c1.23,1.49,3,3.08,5.19,3.08s4-1.59,5.2-3.08l1.35.35,1.8.47c-2,2.82-4.64,5.26-8.35,5.26s-6.31-2.44-8.34-5.25Z"/><path class="cls-2" d="M55.47,88.07c-4.45,0-7.47-2.86-9.91-6.36l1.57-.38c2,2.81,4.63,5.25,8.34,5.25s6.31-2.44,8.35-5.26c.51.14,1,.26,1.56.38C62.95,85.2,59.93,88.07,55.47,88.07Z"/><path class="cls-2" d="M55.47,20.45c-4.46,0-7.48,2.86-9.92,6.36L45,26.68l-1-.21C46.44,22.8,50,19,55.47,19s9,3.84,11.51,7.51l-1,.21-.57.14C63,23.32,59.93,20.45,55.47,20.45Z"/><path class="cls-2" d="M55.47,89.58c-5.52,0-9-3.85-11.5-7.53l1-.21.57-.13c2.44,3.5,5.46,6.36,9.91,6.36s7.48-2.87,9.91-6.37l.58.13L67,82C64.51,85.72,61,89.58,55.47,89.58Z"/><path class="cls-2" d="M49,73.08l.06.1-1.3.76h0l-.27-.45,0,0Z"/><path class="cls-2" d="M48.81,72.72l.21.36-1.49.38Z"/><path class="cls-2" d="M55.47,73.58a29.67,29.67,0,0,0-7.17,1.24c-.17-.29-.34-.59-.52-.88l1.3-.76-.06-.1a27.63,27.63,0,0,1,6.45-1,32.78,32.78,0,0,1,7.95,1.4h0l-.27.46-.52.89A29.59,29.59,0,0,0,55.47,73.58Z"/><path class="cls-2" d="M47.51,35l1.3.76-.58,1-1.1-.29-.42-.11C47,35.94,47.25,35.49,47.51,35Z"/><path class="cls-2" d="M48.92,80.86l-1.79.47c-.32-.43-.63-.88-.92-1.33l2.32-.59c.79-.21,1.57-.42,2.32-.6l-1.2.9c.19.25.4.52.63.79l-1.1.3Z"/><path class="cls-4" d="M42.2,76.27c1.72-.3,3.55-.78,5.21-1.23l.48-.11.41-.11c.54.92,1.09,1.83,1.64,2.68l-1.54.4-.25.06c-1.18.31-2.51.66-3.81,1l-.51.11C43.4,78.33,43,77.63,42.6,77Z"/><path class="cls-2" d="M46.21,28.51c.29-.44.59-.88.91-1.31l1.28.33.77.2,1.1.3c-.23.27-.43.54-.62.79l1.2.89c-.75-.18-1.53-.39-2.32-.6S47,28.7,46.21,28.51Z"/><path class="cls-2" d="M47.51,73.47c-.26-.45-.52-.9-.79-1.34l.47-.12,1-.27c.2.32.39.65.58,1l-1.28.74Z"/><path class="cls-2" d="M47.13,36.5l1.1.29a30.29,30.29,0,0,1-4.16,5.8l-.69-.69a1.43,1.43,0,0,0-.44-.3,27,27,0,0,0,3.77-5.21Z"/><path class="cls-2" d="M47.31,70.21c.32.51.63,1,.92,1.53C47.93,71.22,47.62,70.71,47.31,70.21Z"/><path class="cls-2" d="M47.78,73.94l-1.29.75-.27-.46,1.29-.75.27.45Z"/><path class="cls-2" d="M47.53,73.46l0,0h0Z"/><path class="cls-2" d="M46.57,36.35,45.21,36c.27-.44.53-.89.8-1.34l1,.26.51.13h0c-.26.45-.53.9-.8,1.35Z"/><path class="cls-2" d="M47,73.6l.52-.13h0l-1.29.75L46,73.86Z"/><path class="cls-2" d="M46.63,63.32a1.5,1.5,0,0,1,0,2.12L45,67a6.4,6.4,0,0,0-.42-.49c-.22-.25-.45-.5-.68-.73s-.66-.63-1-.92l1.57-1.56A1.51,1.51,0,0,1,46.63,63.32Z"/><path class="cls-2" d="M45.56,81.71c-.31-.43-.61-.88-.9-1.33h0L46.21,80c.29.45.6.9.92,1.33Z"/><path class="cls-2" d="M45.95,73.76l-.26-.43-.48-.81,1.4-.36.11,0c.27.44.53.89.79,1.34L47,73.6l-1,.26Z"/><path class="cls-2" d="M46.22,34.29,47.5,35,47,34.91l-1-.26Z"/><path class="cls-2" d="M46.32,68.71l.19.27Z"/><path class="cls-2" d="M47.41,75c-1.66.45-3.49.93-5.21,1.23-.28-.48-.55-.94-.83-1.4h0a42.53,42.53,0,0,0,4.62-1h0l.21.37.27.46,1.29-.75c.18.29.35.59.52.88l-.41.11Z"/><path class="cls-2" d="M46.21,28.51l-.28.44-1.27-.81Z"/><path class="cls-2" d="M46.21,80l-1.53.37,1.25-.8C46,79.71,46.11,79.86,46.21,80Z"/><path class="cls-2" d="M45.95,73.76l.06.1h0A.47.47,0,0,1,45.95,73.76Z"/><path class="cls-2" d="M41.37,33.64a42.34,42.34,0,0,1,4.64,1c-.27.45-.53.9-.8,1.34-1.09-.28-2.12-.52-3.09-.7l.54-.87Z"/><path class="cls-2" d="M43.83,29.5c.26-.46.54-.91.83-1.36l1.27.81.28-.44c.79.19,1.56.4,2.32.6s1.57.42,2.32.6c-.31.42-.62.86-.92,1.32l-1.54-.4-.76-.2c-1.07-.28-2.19-.58-3.29-.82Z"/><path class="cls-2" d="M45.93,79.57l-1.25.8h0c-.29-.44-.56-.9-.83-1.35l.51-.11c1.3-.29,2.63-.64,3.81-1l.25-.06,1.54-.4c.3.46.6.9.91,1.31-.75.18-1.53.39-2.32.6L46.21,80C46.11,79.86,46,79.71,45.93,79.57Z"/><path class="cls-2" d="M45.58,70.3c.39.59.77,1.21,1.14,1.83l-.11,0-1.4.36,0-.07c-.13-.22-.26-.44-.4-.65h.82Z"/><path class="cls-2" d="M45.69,73.33l.26.43Z"/><path class="cls-2" d="M45.69,73.33l-.48-.81Z"/><path class="cls-2" d="M46.21,28.51l-1.55-.37c.29-.45.58-.89.89-1.33.53.12,1,.25,1.57.39C46.8,27.63,46.5,28.07,46.21,28.51Z"/><path class="cls-2" d="M44.63,71.6c-.17-.28-.35-.56-.53-.82s-.49-.71-.75-1c-.12-.17-.24-.33-.37-.49s-.23-.3-.36-.44h1.91q.56.72,1.05,1.5v1.5h-.82A1.37,1.37,0,0,0,44.63,71.6Z"/><path class="cls-2" d="M45.58,70.3q-.49-.78-1.05-1.5h1.05Z"/><path class="cls-2" d="M42.11,73.23c1-.18,2.06-.44,3.09-.71,0,0,0,0,0,0l.48.81.26.43a.47.47,0,0,0,.05.1,42.53,42.53,0,0,1-4.62,1l1.27-.78C42.47,73.8,42.3,73.51,42.11,73.23Z"/><path class="cls-2" d="M43.41,46.18l-1.62-1.63a18.11,18.11,0,0,0,2.15-1.82l.13-.14,1.47,1.48a1.51,1.51,0,0,1-1.07,2.56A1.48,1.48,0,0,1,43.41,46.18Z"/><path class="cls-2" d="M45,67a2.75,2.75,0,0,1,.22.26Z"/><path class="cls-2" d="M45.58,68.8H44.53c-.21-.29-.43-.58-.66-.85a1.35,1.35,0,0,0,.58-.35L45,67s0,0,0,0l.22.26c.37.45.71.93,1.05,1.42l.19.27c.27.4.54.82.8,1.23s.62,1,.92,1.53l-1,.27-.47.12c-.37-.62-.75-1.24-1.14-1.83Z"/><path class="cls-2" d="M45.16,72.45l0,.07s0,0,0,0Z"/><path class="cls-3" d="M45.16,72.45l0,.07c-1,.27-2.08.53-3.09.71-.31-.49-.62-1-1-1.43h3.6Z"/><path class="cls-2" d="M44.76,71.8c.14.21.27.43.4.65Z"/><path class="cls-2" d="M46,34.65a42.34,42.34,0,0,0-4.64-1l.82-1.39c1.6.27,3.31.71,5.19,1.22l.46.11.45.12-.51.88-.27.46h0l-1.28-.75Z"/><path class="cls-4" d="M47.38,33.47c-1.88-.51-3.59-1-5.19-1.22l.41-.69c.4-.68.8-1.37,1.23-2.06l.51.11c1.1.24,2.22.54,3.29.82l.76.2,1.54.4c-.56.84-1.1,1.75-1.64,2.67l-.45-.12Z"/><path class="cls-2" d="M44,26.47l1,.21.57.13c-.31.44-.6.88-.89,1.33l-1.26-.8Q43.67,26.91,44,26.47Z"/><path class="cls-2" d="M43.4,81.18l1.26-.8c.29.45.59.9.9,1.33l-.57.13-1,.21Q43.67,81.62,43.4,81.18Z"/><path class="cls-2" d="M44.63,71.6a1.37,1.37,0,0,1,.13.2h0Z"/><path class="cls-2" d="M44.63,71.6l.12.2H41.16A13,13,0,0,0,39.7,70h0a7.63,7.63,0,0,0-.59-.53,7.22,7.22,0,0,0-.6-.5l-.26-.2h4.37c.13.14.24.29.36.44s.25.32.37.49q.39.51.75,1Z"/><path class="cls-2" d="M44.62,66.52A6.4,6.4,0,0,1,45,67Z"/><path class="cls-2" d="M44.68,80.37h0Z"/><path class="cls-2" d="M44.1,70.78c.18.26.36.54.53.82Z"/><path class="cls-2" d="M42.88,66.85c-.28-.28-.58-.55-.89-.81a1.4,1.4,0,0,1,.34-.57l.6-.6c.35.29.69.6,1,.92s.46.48.68.73L45,67l-.59.59a1.35,1.35,0,0,1-.58.35C43.55,67.56,43.22,67.19,42.88,66.85Z"/><path class="cls-2" d="M40.88,43.35a16.66,16.66,0,0,0,2-1.69l.06-.06a1.43,1.43,0,0,1,.44.3l.69.69-.13.14a18.11,18.11,0,0,1-2.15,1.82L41.25,44A1.41,1.41,0,0,1,40.88,43.35Z"/><path class="cls-4" d="M32.62,31.42c3-3,7.14-2.76,11.21-1.92-.43.69-.83,1.38-1.23,2.06l-.41.69-.6-.09c-2-.3-5-.49-6.84,1.37-1.41,1.42-1.86,3.66-1.37,6.85,0,.2.06.39.1.59l-.7.41c-.68.4-1.37.8-2.06,1.23C29.91,38.73,29.61,34.44,32.62,31.42Z"/><path class="cls-2" d="M43.35,69.73c-.12-.17-.24-.33-.37-.49C43.11,69.4,43.23,69.56,43.35,69.73Z"/><path class="cls-2" d="M42.94,41.6l-.06.06a16.66,16.66,0,0,1-2,1.69,1.48,1.48,0,0,1,.37-1.46A1.5,1.5,0,0,1,42.94,41.6Z"/><path class="cls-2" d="M41.37,33.64l1.29.78-.54.87c-.33-.06-.65-.12-1-.16L40.48,35C40.78,34.6,41.07,34.13,41.37,33.64Z"/><path class="cls-2" d="M42.65,74.09l-1.27.78h0c-.29-.48-.59-1-.88-1.39l.66-.09c.31,0,.63-.1,1-.16C42.3,73.51,42.47,73.8,42.65,74.09Z"/><path class="cls-4" d="M35.15,75.34c1.87,1.48,4.54,1.3,6.43,1l.62-.09.4.68c.4.68.8,1.38,1.23,2.07-4.07.84-8.19,1.1-11.21-1.92A7.74,7.74,0,0,1,31,74.71Z"/><path class="cls-3" d="M45.21,36a24.91,24.91,0,0,1-3.39,4.61A24.46,24.46,0,0,1,37.21,44c-.27-1.05-.52-2.1-.71-3.09a18.1,18.1,0,0,0,3.2-2.42,19.45,19.45,0,0,0,2.42-3.2C43.09,35.47,44.12,35.71,45.21,36Z"/><path class="cls-4" d="M23.18,54.77c0-.17,0-.34,0-.51a8.31,8.31,0,0,1,.06-1h3.05a4.81,4.81,0,0,0-.11,1,3.91,3.91,0,0,0,0,.49,2.7,2.7,0,0,0,.06.41,5.23,5.23,0,0,0,.51,1.45,6.55,6.55,0,0,0,.81,1.21l.25.29A8.66,8.66,0,0,0,29,59.23a4.56,4.56,0,0,0,.43.36c.2.16.41.33.63.49a53.91,53.91,0,0,0,5,3.17l.45.26c.56.32,1.12.65,1.67,1L38,65c.62.39,1.23.79,1.8,1.21l.62.47a15.15,15.15,0,0,1,1.39,1.22c.27.27.54.57.8.88H38.24c-.32-.25-.66-.49-1-.71L37,67.92c-.46-.3-.91-.59-1.35-.85l-2.09-1.23c-1.14-.66-2.28-1.33-3.37-2l-.62-.4c-.57-.37-1.11-.75-1.62-1.15-.24-.18-.47-.36-.69-.55a12.92,12.92,0,0,1-1.16-1.05c-.12-.11-.23-.23-.34-.35a9,9,0,0,1-.85-1,3.46,3.46,0,0,1-.22-.31,6.29,6.29,0,0,1-.41-.64c-.12-.21-.24-.44-.34-.66a7.85,7.85,0,0,1-.6-1.81c0-.13-.05-.25-.07-.37S23.19,55,23.18,54.77Z"/><path class="cls-2" d="M43.39,68A1.5,1.5,0,0,1,42,66c.31.26.61.53.89.81s.67.71,1,1.1A1.32,1.32,0,0,1,43.39,68Z"/><path class="cls-2" d="M41.37,74.87l-1.28.79L39.7,75A14.46,14.46,0,0,0,41.37,74.87Z"/><path class="cls-2" d="M40.09,32.87l1.28.77a13.93,13.93,0,0,0-1.65-.16C39.84,33.27,40,33.07,40.09,32.87Z"/><path class="cls-2" d="M41.16,71.8H39.28a7.3,7.3,0,0,0-.64-.7L39.7,70A13,13,0,0,1,41.16,71.8Z"/><path class="cls-2" d="M41.15,73.39l-.66.09a18.79,18.79,0,0,0-1.21-1.68h1.88c.33.46.64.94,1,1.43C41.78,73.29,41.46,73.35,41.15,73.39Z"/><path class="cls-2" d="M38.71,35a9.93,9.93,0,0,1,1.77.05,14.8,14.8,0,0,1-1.84,2.38,15.4,15.4,0,0,1-2.39,1.86,10,10,0,0,1-.05-1.78,10.22,10.22,0,0,0,1.38-1.14A10.86,10.86,0,0,0,38.71,35Z"/><path class="cls-2" d="M39.81,66.23l.62.47Z"/><path class="cls-2" d="M40.48,35A9.93,9.93,0,0,0,38.71,35c.35-.48.69-1,1-1.51a13.93,13.93,0,0,1,1.65.16C41.07,34.13,40.78,34.6,40.48,35Z"/><path class="cls-2" d="M39.7,75c-.32-.52-.65-1-1-1.5a11.06,11.06,0,0,0,1.78,0c.29.44.59.91.88,1.39A14.46,14.46,0,0,1,39.7,75Z"/><path class="cls-2" d="M39.7,70h0a7.72,7.72,0,0,0-.59-.54A7.63,7.63,0,0,1,39.7,70Z"/><path class="cls-2" d="M39.29,62.28l-.76-.46Z"/><path class="cls-2" d="M39.28,71.8H37.94l.7-.7A7.3,7.3,0,0,1,39.28,71.8Z"/><path class="cls-2" d="M37.73,70.29V68.8h.52l.26.2c.21.17.41.33.6.5a7.72,7.72,0,0,1,.59.54L38.64,71.1h0A9.11,9.11,0,0,0,37.73,70.29Z"/><path class="cls-2" d="M39.11,69.5c-.19-.17-.39-.33-.6-.5A7.22,7.22,0,0,1,39.11,69.5Z"/><path class="cls-2" d="M41.79,44.55A44.75,44.75,0,0,1,38,47c-.09-.37-.19-.75-.29-1.13l0-.19-.06-.2c1.14-.69,2.26-1.4,3.28-2.16a1.41,1.41,0,0,0,.37.66Z"/><path class="cls-2" d="M41.58,76.36c-1.89.28-4.56.46-6.43-1l.43.07.23-1.49A5,5,0,0,0,39.7,75l.39.63,1.28-.79c.28.46.55.92.83,1.4Z"/><path class="cls-2" d="M38,61.49l.53.33L38,61.5Z"/><path class="cls-2" d="M37.73,70.29a9.11,9.11,0,0,1,.91.8h0l-.7.7h-.21Z"/><path class="cls-2" d="M38.71,73.53a9.6,9.6,0,0,0-1.13-1.37l.36-.36h1.34a18.79,18.79,0,0,1,1.21,1.68A11.06,11.06,0,0,1,38.71,73.53Z"/><path class="cls-2" d="M38,55.33l-.59,1.4a14.64,14.64,0,0,0,.17-1.58Z"/><path class="cls-2" d="M38,65l-.84-.52Z"/><path class="cls-2" d="M37.54,61.23l.46.26h0Z"/><path class="cls-2" d="M37.24,68.09c.34.22.68.46,1,.71C37.92,68.56,37.59,68.33,37.24,68.09Z"/><path class="cls-2" d="M37,47.6l-.76-1.29h0l1.34-.79.06.2,0,.19c.1.38.2.76.29,1.13Z"/><path class="cls-2" d="M36.28,62.22l1.43.38c.1-.37.19-.74.28-1.1l.54.32.76.46a28.67,28.67,0,0,1,3.64,2.59l-.6.6A1.4,1.4,0,0,0,42,66,39.43,39.43,0,0,0,36.28,62.22Z"/><path class="cls-2" d="M37.21,44a24.46,24.46,0,0,0,4.61-3.4A24.91,24.91,0,0,0,45.21,36l1.36.36.14,0a27,27,0,0,1-3.77,5.21,1.5,1.5,0,0,0-1.69.29,1.48,1.48,0,0,0-.37,1.46c-1,.76-2.14,1.47-3.28,2.16a.62.62,0,0,0,0-.1l0-.12Z"/><path class="cls-2" d="M36.15,54.53l1.48.62a14.64,14.64,0,0,1-.17,1.58l-.57,1.36-1.09-.46A18.29,18.29,0,0,0,36.15,54.53Z"/><path class="cls-2" d="M36.26,62.21,37,60.92l.52.31.45.27c-.09.36-.18.73-.28,1.1l-1.43-.38Z"/><path class="cls-2" d="M37.12,71.74a2.09,2.09,0,0,1,.22.2Z"/><path class="cls-2" d="M37.46,56.73a39.58,39.58,0,0,1-.81,4l-.1-.06-1.25-.73c.19-.78.36-1.55.5-2.29l1.09.46Z"/><path class="cls-2" d="M35.5,63.51l.76-1.29h0A39.43,39.43,0,0,1,42,66a1.5,1.5,0,0,0,1.4,2,1.32,1.32,0,0,0,.48-.09c.23.27.45.56.66.85H42.62c-.26-.31-.53-.61-.8-.88a15.15,15.15,0,0,0-1.39-1.22l-.62-.47c-.57-.42-1.18-.82-1.8-1.21l-.84-.52C36.62,64.16,36.06,63.83,35.5,63.51Z"/><path class="cls-2" d="M37,67.92l-1.35-.85C36.07,67.33,36.52,67.62,37,67.92Z"/><path class="cls-2" d="M36.25,39.28a15.4,15.4,0,0,0,2.39-1.86A14.8,14.8,0,0,0,40.48,35l.68.09c.31,0,.63.1,1,.16a19.45,19.45,0,0,1-2.42,3.2,18.1,18.1,0,0,1-3.2,2.42c-.06-.33-.11-.66-.16-1S36.27,39.49,36.25,39.28Z"/><path class="cls-2" d="M36.34,68.58l-1.48-.22h0l.77-1.28,1.35.85.26.17c.35.24.68.47,1,.71h-.51v1.49a16.05,16.05,0,0,0-1.48-1Z"/><path class="cls-2" d="M37.34,71.94a2.09,2.09,0,0,0-.22-.2c-.27-.24-.57-.47-.9-.71h0a10,10,0,0,1,.05-1.78,16.05,16.05,0,0,1,1.48,1V71.8h.21l-.36.36C37.5,72.09,37.43,72,37.34,71.94Z"/><path class="cls-2" d="M37,60.92l-.76,1.29.39-1.5Z"/><path class="cls-2" d="M36.26,46.31,37,47.6,38,47a30.33,30.33,0,0,1,1.16,7.23A30,30,0,0,1,38,61.49l-.46-.26L37,60.92l-.37-.21a39.58,39.58,0,0,0,.81-4l.59-1.4-.42-.18c0-.3,0-.6,0-.89A32.78,32.78,0,0,0,36.26,46.31Z"/><path class="cls-2" d="M34.92,61.42c.13-.51.26-1,.38-1.5l1.25.73.1.06-.39,1.5-.46-.27Z"/><path class="cls-2" d="M36.12,45.78l-.26-1,1.35-.8.33,1.29,0,.12a.62.62,0,0,1,0,.1l-1.34.79C36.21,46.12,36.17,46,36.12,45.78Z"/><path class="cls-2" d="M35.64,41.45l-.78-1.29c.49-.29.95-.59,1.39-.88q0,.31.09.66c.05.31.1.64.16,1C36.23,41.09,35.95,41.27,35.64,41.45Z"/><path class="cls-2" d="M36.25,69.24c-.44-.3-.91-.59-1.39-.88l1.48.22Z"/><path class="cls-2" d="M36.28,62.22h0Z"/><path class="cls-2" d="M36.16,54.26a29.24,29.24,0,0,0-1.25-7.17l.89-.52.46-.27h0a32.78,32.78,0,0,1,1.4,8c0,.29,0,.59,0,.89l-1.48-.62A2.44,2.44,0,0,0,36.16,54.26Z"/><path class="cls-2" d="M36.26,62.21l-1.45-.38c0-.14.07-.28.11-.41l.88.52Z"/><path class="cls-2" d="M36.22,71s0,0,0,0h0Z"/><path class="cls-2" d="M34.69,38.51c.5-.31,1-.65,1.51-1a10,10,0,0,0,.05,1.78c-.44.29-.9.59-1.39.88A14.22,14.22,0,0,1,34.69,38.51Z"/><path class="cls-2" d="M33,56.44a14.08,14.08,0,0,0,.19-2.18c0-.32,0-.66,0-1l3,1.29a18.29,18.29,0,0,1-.35,3.1Z"/><path class="cls-2" d="M36.12,45.78c0,.17.09.34.14.52L35.5,45l.36-.21Z"/><path class="cls-2" d="M35.81,73.92a3.48,3.48,0,0,1-.91-1.65l1.13.17Z"/><path class="cls-3" d="M33,56.44l2.83,1.19c-.14.74-.31,1.51-.5,2.29-.91-.54-1.83-1.1-2.68-1.68C32.77,57.58,32.88,57,33,56.44Z"/><path class="cls-2" d="M34.69,70a14,14,0,0,1,.16-1.64h0c.48.29.95.58,1.39.88A10,10,0,0,0,36.2,71c-.37-.27-.78-.54-1.21-.82Z"/><path class="cls-2" d="M35.63,67.07l-.77,1.28h0c-.66-.41-1.35-.81-2.06-1.21h0l.75-1.29Z"/><path class="cls-2" d="M34.75,75a5.35,5.35,0,0,1-1.45-3l1.6.25a3.48,3.48,0,0,0,.91,1.65l-.23,1.49-.43-.07A3.23,3.23,0,0,1,34.75,75Z"/><path class="cls-2" d="M34.69,38.51a5.06,5.06,0,0,1,1.12-3.92,5,5,0,0,1,3.91-1.11c-.32.51-.66,1-1,1.51A2.32,2.32,0,0,0,36.2,37.5C35.71,37.86,35.19,38.2,34.69,38.51Z"/><path class="cls-2" d="M35.86,44.8a44.67,44.67,0,0,1-1-4.64l.78,1.29c.31-.18.59-.36.86-.54.19,1,.44,2,.71,3.09Z"/><path class="cls-2" d="M35.15,75.34,31,74.71a9.51,9.51,0,0,1-.77-3.16L33.3,72a5.35,5.35,0,0,0,1.45,3A3.23,3.23,0,0,0,35.15,75.34Z"/><path class="cls-4" d="M33.11,53.24a26.18,26.18,0,0,0-.73-3.95c0-.19-.09-.38-.14-.57.84-.55,1.75-1.09,2.67-1.63a29.24,29.24,0,0,1,1.25,7.17,2.44,2.44,0,0,1,0,.27Z"/><path class="cls-2" d="M35,70.2l-.3-.18h0Z"/><path class="cls-2" d="M36,72.44l-1.13-.17A7,7,0,0,1,34.69,70l.3.18c.43.28.84.55,1.21.82h0a2.82,2.82,0,0,0,.67,1.83,2.87,2.87,0,0,0,1.84.67c.34.46.67,1,1,1.5a5,5,0,0,1-3.89-1.11Z"/><path class="cls-2" d="M33.48,41l1.38-.81a44.67,44.67,0,0,0,1,4.64L35.5,45l.76,1.29-.46.27-.89.52c0-.13-.06-.26-.1-.4l-.17-.64C34.2,44.36,33.74,42.61,33.48,41Z"/><path class="cls-2" d="M34.86,40.16l-.77-1.28.6-.37A14.22,14.22,0,0,0,34.86,40.16Z"/><polygon class="cls-2" points="34.86 68.35 34.86 68.36 34.85 68.35 34.86 68.35"/><path class="cls-2" d="M34.86,68.36h0v0Z"/><path class="cls-2" d="M34.85,68.35v0l-.77,1.27-.84-.5c0-.35.08-.69.13-1Z"/><path class="cls-2" d="M34.85,68.37A14,14,0,0,0,34.69,70c-.2-.11-.4-.24-.61-.37Z"/><path class="cls-2" d="M33.38,40.38c-.49-3.19,0-5.43,1.37-6.85,1.87-1.86,4.8-1.67,6.84-1.37l.6.09-.82,1.39-1.28-.77c-.12.2-.25.4-.37.61a5,5,0,0,0-3.91,1.11,5.06,5.06,0,0,0-1.12,3.92l-.6.37.77,1.28L33.48,41C33.44,40.77,33.41,40.58,33.38,40.38Z"/><path class="cls-2" d="M33.3,72a10.74,10.74,0,0,1-.06-2.88l.84.5c.21.13.41.26.61.37h0a7,7,0,0,0,.21,2.25Z"/><path class="cls-4" d="M34.91,47.09c-.92.54-1.83,1.08-2.67,1.63-.11-.42-.22-.85-.34-1.29l-.24-.93c-.29-1.1-.59-2.24-.83-3.37,0-.17-.08-.35-.11-.52.69-.43,1.38-.83,2.06-1.23l.7-.41c.26,1.64.72,3.39,1.16,5.08l.17.64C34.85,46.83,34.88,47,34.91,47.09Z"/><path class="cls-2" d="M32,68.44l.37-.65.38-.65c.71.4,1.4.8,2.06,1.21l-1.48-.22c0,.32-.1.66-.13,1Z"/><path class="cls-2" d="M31.66,54.26l.59-1.38.86.36c0,.36,0,.7,0,1A14.08,14.08,0,0,1,33,56.44l-1.43-.6h0a11.08,11.08,0,0,0,.12-1.56Z"/><path class="cls-2" d="M31.56,78.16a9.4,9.4,0,0,1-2.31-3.72l1.73.27a7.74,7.74,0,0,0,1.64,2.39c3,3,7.14,2.76,11.21,1.92.27.45.54.91.83,1.35C39.93,81.4,35.11,81.71,31.56,78.16Z"/><path class="cls-2" d="M31.82,50.85l-.9-1.21c.41-.31.86-.61,1.32-.92.05.19.1.38.14.57a26.18,26.18,0,0,1,.73,3.95l-.86-.36-.59,1.38a14.84,14.84,0,0,0-.37-3C31.46,51.13,31.63,51,31.82,50.85Z"/><path class="cls-2" d="M34.92,61.42a40.34,40.34,0,0,1-4-2.54l1.45.36c.09-.35.17-.68.24-1,.85.58,1.77,1.14,2.68,1.68C35.18,60.41,35,60.91,34.92,61.42Z"/><path class="cls-2" d="M32.38,59.24l-1.45-.36h0l.89-1.2-.19-.15c.32.24.65.48,1,.72C32.55,58.56,32.47,58.89,32.38,59.24Z"/><path class="cls-3" d="M30.21,71.55a16.87,16.87,0,0,1,.22-4.06c.54.33,1.08.64,1.6.94l.38-.64-.37.65,1.2.7A10.74,10.74,0,0,0,33.3,72Z"/><path class="cls-2" d="M31.08,55.64l.58-1.37a11.08,11.08,0,0,1-.12,1.56Z"/><path class="cls-2" d="M31.54,55.84l1.43.6c-.09.55-.2,1.14-.35,1.8-.35-.24-.68-.48-1-.72h0l-.25-.2-.07-.05h0C31.39,56.76,31.48,56.29,31.54,55.84Z"/><path class="cls-2" d="M31.61,57.52h0l.19.15-.89,1.2c.14-.55.26-1.09.37-1.6l.07.05Z"/><path class="cls-2" d="M31.36,57.32l.25.2Z"/><path class="cls-2" d="M30.16,54.26A12.77,12.77,0,0,0,30,52.49a9.07,9.07,0,0,1,1.29-1.22,14.84,14.84,0,0,1,.37,3h0l-.58,1.37.46.19h0c-.06.45-.15.92-.25,1.42l-.1-.07-.09-.08c-.24-.2-.47-.41-.68-.61L30,56.05A11.6,11.6,0,0,0,30.16,54.26Z"/><path class="cls-2" d="M30,60.08l.89-1.21h0a40.34,40.34,0,0,0,4,2.54c0,.13-.07.27-.11.41l1.45.38h0l-.76,1.29L35,63.25A53.91,53.91,0,0,1,30,60.08Z"/><path class="cls-2" d="M30.83,65.4l-1.46-.32h0l.8-1.26c1.09.7,2.23,1.37,3.37,2l-.75,1.29h0l-2.06-1.21C30.75,65.74,30.79,65.57,30.83,65.4Z"/><path class="cls-2" d="M31.29,57.26h0l-.1-.08Z"/><path class="cls-2" d="M29.64,57.82c.13-.55.25-1.16.35-1.77l.43.45c.2.2.43.4.68.61l.09.08.1.08c-.11.51-.23,1.05-.37,1.6A15.27,15.27,0,0,1,29.64,57.82Z"/><path class="cls-2" d="M32,68.43c-.52-.3-1.06-.61-1.6-.94.08-.53.18-1,.29-1.57l2.06,1.21h0l-.38.65Z"/><path class="cls-2" d="M31.29,51.27c-.1-.53-.23-1.07-.37-1.63l.9,1.21C31.63,51,31.46,51.13,31.29,51.27Z"/><path class="cls-2" d="M30.32,47.31c-.2-.76-.4-1.52-.59-2.3l.44-.29h0l-.81-1.26c.45-.29.9-.57,1.36-.84,0,.17.07.35.11.52.24,1.13.54,2.27.83,3.37l.24.93c.12.44.23.87.34,1.29-.46.31-.91.61-1.32.92C30.74,48.89,30.53,48.11,30.32,47.31Z"/><path class="cls-2" d="M29.63,50.69q.59-.53,1.29-1c.14.56.27,1.1.37,1.63A9.07,9.07,0,0,0,30,52.49C29.9,51.88,29.77,51.27,29.63,50.69Z"/><path class="cls-2" d="M31,74.71l-1.73-.27a8.49,8.49,0,0,1-.39-1.58l.22-1.48,1.13.17A9.51,9.51,0,0,0,31,74.71Z"/><path class="cls-2" d="M30.92,58.87l-1.45-.36.17-.69A15.27,15.27,0,0,0,30.92,58.87Z"/><path class="cls-2" d="M30.83,65.4c0,.17-.08.34-.11.52l-1.35-.84Z"/><path class="cls-2" d="M31.1,57.11c-.25-.21-.48-.41-.68-.61C30.63,56.7,30.86,56.91,31.1,57.11Z"/><path class="cls-2" d="M29.47,50l-.24-.94c.27-.23.54-.44.8-.63l.89,1.2q-.71.52-1.29,1C29.58,50.46,29.52,50.23,29.47,50Z"/><path class="cls-2" d="M30.72,65.92c-.11.52-.21,1-.29,1.57-.46-.27-.93-.55-1.39-.84.1-.52.2-1,.32-1.56h0Z"/><path class="cls-2" d="M28.76,47.26c-.12-.44-.24-.89-.35-1.34h0c.15-.12.31-.23.47-.34l.85-.56c.19.78.39,1.54.59,2.3s.42,1.58.6,2.33L30,48.44c-.26.19-.53.4-.8.63-.07-.29-.15-.58-.23-.88Z"/><path class="cls-2" d="M29.36,43.44c-1-4.73-1.34-9.54,2.2-13.09s8.37-3.24,13.1-2.21c-.29.45-.57.9-.83,1.36-4.07-.84-8.19-1.1-11.21,1.92s-2.71,7.31-1.9,11.19c-.46.27-.91.55-1.36.84Z"/><path class="cls-2" d="M30.17,44.71h0l-.44.29h0Z"/><path class="cls-2" d="M30.17,63.81c-.21-.13-.42-.26-.62-.4Z"/><path class="cls-2" d="M29.72,45h0l-.85.56Q29.3,45.27,29.72,45Z"/><path class="cls-2" d="M29.64,57.82a5.05,5.05,0,0,1-2-3.56h1.5A2.89,2.89,0,0,0,30,56.05C29.89,56.66,29.77,57.27,29.64,57.82Z"/><path class="cls-2" d="M29.36,43.45l.81,1.26-.45.29C29.59,44.49,29.47,44,29.36,43.45Z"/><path class="cls-2" d="M28.67,50.25H28a10.71,10.71,0,0,1,1.27-1.18l.24.94c.05.22.11.45.16.68a10.12,10.12,0,0,0-1,1Z"/><path class="cls-2" d="M28,44.34c.43-.31.88-.6,1.33-.89.11.52.23,1,.36,1.55q-.42.27-.84.57c-.16.11-.32.22-.47.34C28.27,45.39,28.15,44.87,28,44.34Z"/><path class="cls-2" d="M29,59.23l.43.36A4.56,4.56,0,0,1,29,59.23Z"/><polygon class="cls-2" points="29.37 65.07 29.37 65.08 29.36 65.07 29.37 65.07"/><path class="cls-2" d="M29.37,65.08h0v0Z"/><path class="cls-2" d="M29.36,65.07v0l-.8,1.25q-.44-.27-.87-.57.11-.52.21-1Z"/><path class="cls-2" d="M29.25,74.44l-.62-.09.23-1.49A8.49,8.49,0,0,0,29.25,74.44Z"/><path class="cls-2" d="M29.36,65.09c-.12.52-.22,1-.32,1.56l-.48-.31Z"/><path class="cls-2" d="M29.08,71.38l-.22,1.48A18.12,18.12,0,0,1,29,66.65c.46.29.93.57,1.39.84a16.87,16.87,0,0,0-.22,4.06Z"/><path class="cls-3" d="M25.88,48.07a17.81,17.81,0,0,1,2-1.77l.53-.38c.11.45.23.9.35,1.34l.24.93c.08.3.16.59.23.88A10.71,10.71,0,0,0,28,50.25H24.23A11.17,11.17,0,0,1,25.88,48.07Z"/><path class="cls-2" d="M27.69,42.76q.43-.3.87-.57l.8,1.25h0c-.45.29-.9.58-1.33.89-.05-.19-.09-.38-.13-.57Z"/><path class="cls-2" d="M27.66,54.26a3.49,3.49,0,0,1,.16-1h.85V51.72a10.12,10.12,0,0,1,1-1c.14.58.27,1.19.37,1.8a2.85,2.85,0,0,0-.84,1.77Z"/><path class="cls-2" d="M28.67,51.72v1.53h-.85A5.09,5.09,0,0,1,28.67,51.72Z"/><path class="cls-2" d="M26.27,53.25a6.6,6.6,0,0,1,1.69-3h.71v1.47a5.09,5.09,0,0,0-.85,1.53Z"/><path class="cls-2" d="M27.69,42.74c-.85-4.33-1.08-9.54,2.81-13.44S39.62,25.63,44,26.47q-.3.43-.57.87l1.26.8c-4.73-1-9.55-1.34-13.1,2.21s-3.24,8.36-2.2,13.09l-.8-1.25h0Z"/><path class="cls-2" d="M27.82,58.11A11.12,11.12,0,0,0,29,59.23,8.66,8.66,0,0,1,27.82,58.11Z"/><path class="cls-2" d="M30.5,79.23c-3.89-3.9-3.66-9.11-2.81-13.46q.43.3.87.57l.48.31a18.12,18.12,0,0,0-.18,6.21l-.23,1.49.62.09a9.4,9.4,0,0,0,2.31,3.72c3.55,3.55,8.37,3.24,13.1,2.21h0l-1.26.8q.27.44.57.87C39.62,82.89,34.39,83.11,30.5,79.23Z"/><path class="cls-2" d="M28.41,45.91h0l-.53.38Z"/><path class="cls-2" d="M28,50.25a6.6,6.6,0,0,0-1.69,3H23.22c0-.2.06-.4.1-.59s.12-.51.19-.75l.12-.36c.09-.24.19-.47.29-.7s.2-.4.31-.6Z"/><path class="cls-2" d="M27.24,61.71c.22.19.45.37.69.55C27.69,62.08,27.46,61.9,27.24,61.71Z"/><path class="cls-2" d="M27.69,42.74l.86-.56h0q-.44.27-.87.57Z"/><path class="cls-2" d="M27.69,42.74v0c-.45.3-.91.62-1.36,1C26.78,43.37,27.24,43.05,27.69,42.74Z"/><path class="cls-2" d="M26.16,54.26a4.81,4.81,0,0,1,.11-1h1.55a3.49,3.49,0,0,0-.16,1Z"/><path class="cls-2" d="M27.57,57.82a7.1,7.1,0,0,1-.81-1.21,5.23,5.23,0,0,1-.51-1.45,2.7,2.7,0,0,1-.06-.41,3.91,3.91,0,0,1,0-.49h1.5a5.05,5.05,0,0,0,2,3.56l-.17.69,1.45.36L30,60.08c-.22-.16-.43-.33-.63-.49L29,59.23a11.12,11.12,0,0,1-1.15-1.12Z"/><path class="cls-2" d="M27.57,57.82a6.55,6.55,0,0,1-.81-1.21A7.1,7.1,0,0,0,27.57,57.82Z"/><path class="cls-2" d="M25.95,64.51l.89.68C26.54,65,26.24,64.75,25.95,64.51Z"/><path class="cls-2" d="M26.19,54.75a2.7,2.7,0,0,0,.06.41A2.7,2.7,0,0,1,26.19,54.75Z"/><path class="cls-2" d="M26.16,54.26a3.91,3.91,0,0,0,0,.49A3.91,3.91,0,0,1,26.16,54.26Z"/><path class="cls-2" d="M25.74,60.31c.11.12.22.24.34.35C26,60.55,25.85,60.43,25.74,60.31Z"/><path class="cls-2" d="M25,63.74l.95.77C25.63,64.27,25.31,64,25,63.74Z"/><path class="cls-2" d="M24.22,50.25a11.32,11.32,0,0,1,1.66-2.18,11.17,11.17,0,0,0-1.65,2.18Z"/><path class="cls-2" d="M22.53,50.25A15.5,15.5,0,0,1,28,44.34c.12.53.24,1.05.38,1.57l-.53.39a17.81,17.81,0,0,0-2,1.77,11.32,11.32,0,0,0-1.66,2.18Z"/><path class="cls-2" d="M24.11,62.92c.29.28.59.55.89.82A11.52,11.52,0,0,1,24.11,62.92Z"/><path class="cls-2" d="M24.67,59a3.46,3.46,0,0,0,.22.31A2.18,2.18,0,0,1,24.67,59Z"/><path class="cls-2" d="M24.22,50.25h0c-.11.2-.21.4-.31.6C24,50.65,24.12,50.45,24.22,50.25Z"/><path class="cls-2" d="M22.53,50.25h1.69c-.1.2-.21.4-.3.6a6.07,6.07,0,0,0-.29.7l-.12.36a5.88,5.88,0,0,0-.19.75c0,.19-.07.39-.1.59H21.71A9.44,9.44,0,0,1,22.53,50.25Z"/><path class="cls-2" d="M23.92,57.68c.1.22.22.45.34.66A5.13,5.13,0,0,1,23.92,57.68Z"/><path class="cls-2" d="M23.92,50.85c-.1.23-.2.46-.29.7A6.07,6.07,0,0,1,23.92,50.85Z"/><path class="cls-2" d="M23.52,62.32l.09.09A.38.38,0,0,1,23.52,62.32Z"/><path class="cls-2" d="M23.52,46.21c-.21.23-.42.46-.63.71C23.09,46.68,23.29,46.44,23.52,46.21Z"/><path class="cls-2" d="M23.51,51.91c-.07.24-.14.49-.19.75A5.88,5.88,0,0,1,23.51,51.91Z"/><path class="cls-2" d="M23.25,55.5c0,.12,0,.24.07.37C23.29,55.75,23.27,55.63,23.25,55.5Z"/><path class="cls-2" d="M23.16,54.26c0,.17,0,.34,0,.51C23.17,54.6,23.16,54.43,23.16,54.26Z"/><path class="cls-2" d="M29.36,65.07c-4.08-2.6-7.7-5.8-7.7-10.81,0-.35,0-.68.05-1h1.51a8.31,8.31,0,0,0-.06,1c0,.17,0,.34,0,.51s0,.5.07.73,0,.25.07.37a7.85,7.85,0,0,0,.6,1.81,5.13,5.13,0,0,0,.34.66,6.29,6.29,0,0,0,.41.64,2.18,2.18,0,0,0,.22.31,9,9,0,0,0,.85,1c.11.12.22.24.34.35a12.92,12.92,0,0,0,1.16,1.05c.22.19.45.37.69.55.51.4,1.05.78,1.62,1.15.2.14.41.27.62.4l-.8,1.26Z"/><path class="cls-2" d="M22.59,47.3l-.28.38Z"/><path class="cls-2" d="M22.89,61.6a8.34,8.34,0,0,1-.58-.75Z"/><path class="cls-2" d="M21.85,60.15l.3.47Z"/><path class="cls-2" d="M22.53,50.25a9.44,9.44,0,0,0-.82,3h-.05v-3Z"/><path class="cls-2" d="M21.64,59.8a3.24,3.24,0,0,0,.21.35A4.05,4.05,0,0,1,21.64,59.8Z"/><path class="cls-2" d="M20.16,54.26a11.09,11.09,0,0,1,2.15-6.58l.28-.38.3-.38c.21-.25.42-.48.63-.71a20.69,20.69,0,0,1,2.81-2.5c.45-.33.91-.65,1.36-1l.21,1c0,.19.08.38.13.57a15.5,15.5,0,0,0-5.5,5.91h-.87v3h.05c0,.33-.05.66-.05,1,0,5,3.62,8.21,7.7,10.81l-1.46-.32q-.11.5-.21,1l-.85-.58-.89-.68L25,63.74c-.3-.27-.6-.54-.89-.82l-.5-.51-.09-.09c-.21-.23-.43-.48-.63-.72l-.58-.75-.16-.23-.3-.47a3.24,3.24,0,0,1-.21-.35,10.76,10.76,0,0,1-1.17-2.91,3,3,0,0,1-.07-.32,3.29,3.29,0,0,1-.07-.36c0-.16-.06-.33-.08-.5l0-.3c0-.15,0-.32,0-.48s0-.42,0-.63Z"/><path class="cls-2" d="M20.4,56.57a3,3,0,0,0,.07.32C20.44,56.78,20.42,56.68,20.4,56.57Z"/><path class="cls-2" d="M20.25,55.71c0,.17.05.34.08.5C20.3,56.05,20.27,55.88,20.25,55.71Z"/><path class="cls-2" d="M20.22,55.41l0,.3Z"/><path class="cls-2" d="M20.16,54.3c0,.21,0,.42,0,.63C20.17,54.73,20.16,54.51,20.16,54.3Z"/></g></g></svg>