<svg xmlns="http://www.w3.org/2000/svg" viewBox="0 0 108 108"><defs><style>.cls-1{fill:#f66;}.cls-2,.cls-6{fill:#9b9a9a;}.cls-3{fill:#757575;}.cls-4{fill:none;}.cls-4,.cls-5,.cls-6,.cls-8{stroke:#403670;stroke-width:3px;}.cls-4,.cls-6,.cls-8{stroke-linecap:round;stroke-linejoin:round;}.cls-5{fill:#ddce85;stroke-miterlimit:10;}.cls-7{fill:#727272;}.cls-8{fill:#9e9e9e;}</style></defs><title>solemnidad-09</title><g id="colecionables"><g id="Domingo_de_Pascua" data-name="Domingo de Pascua"><rect class="cls-1" width="108" height="108"/><path class="cls-2" d="M87,71.73l-2.66,4H76.07l8.69-11.21h0A13.12,13.12,0,0,1,87,71.73Z"/><path class="cls-3" d="M84.77,64.54h0c-.27.19-4.6,3.21-7,4.66s-1.67,6.55-1.67,6.55H21.42V71.82c0-4.2-.31-8.2,1.19-11.87,1.25-3.08,4.88-5.56,7.71-8.71,2.21-2.45,3.53-5.73,5.6-7.23,5.18-3.75,10.7-7.23,17.58-7.23,4.72,0,10.71,3.69,14.72,5.55,4.66,2.15,5.62,8.75,8.71,12.77C79.43,58.36,82.66,61.18,84.77,64.54Z"/><path class="cls-2" d="M84.76,64.55,76.07,75.76s-.83-5.05,1.67-6.55S84.49,64.74,84.76,64.55Z"/><path class="cls-4" d="M84.77,64.54c-2.11-3.36-5.34-6.18-7.84-9.44-3.09-4-4-10.62-8.71-12.77-4-1.86-10-5.55-14.72-5.55-6.88,0-12.4,3.48-17.58,7.23-2.07,1.5-3.39,4.78-5.6,7.23-2.83,3.15-6.46,5.63-7.71,8.71-1.5,3.67-1.19,7.67-1.19,11.87v3.94H84.33l2.66-4A13.12,13.12,0,0,0,84.77,64.54Z"/><path class="cls-4" d="M76.07,75.76s-.83-5.05,1.67-6.55,6.75-4.47,7-4.66"/><line class="cls-4" x1="84.77" y1="64.54" x2="84.76" y2="64.55"/><path class="cls-5" d="M52.88,60c-4.15,0-7.51,0-7.51,14v1.76h15V74C60.39,60,57,60,52.88,60Z"/><path class="cls-6" d="M28.83,52.79s2.77-.54,3.73,0c3.19,1.79,1.85,9.26,1.85,9.26l.28,13.71H21.42s-1-13.91,2-17.3S28.83,52.79,28.83,52.79Z"/><circle class="cls-7" cx="34.69" cy="67.32" r="8.44"/><path class="cls-4" d="M28.83,52.79s2.77-.54,3.73,0c3.19,1.79,1.85,9.26,1.85,9.26l.28,13.71H21.42s-1-13.91,2-17.3S28.83,52.79,28.83,52.79Z"/><circle class="cls-8" cx="40.99" cy="67.32" r="8.44"/><line class="cls-4" x1="65.58" y1="70.88" x2="65.58" y2="67.54"/><polyline class="cls-4" points="58.74 44.05 65.58 47.6 65.58 51.36"/></g></g></svg>