<svg xmlns="http://www.w3.org/2000/svg" viewBox="0 0 108 108"><defs><style>.cls-1{fill:#ed8053;}.cls-2{fill:#ffc66c;}.cls-3{fill:#98a3e9;}.cls-4{fill:#423372;}.cls-5{fill:none;stroke:#403670;stroke-linecap:round;stroke-linejoin:round;stroke-width:3px;}.cls-6{fill:#5a68af;}.cls-7{fill:#dbad6a;}</style></defs><title>solemnidad-01</title><g id="colecionables"><g id="Santa_María_Madre_de_Dios" data-name="Santa María Madre de Dios"><rect class="cls-1" width="108" height="108"/><path class="cls-2" d="M81.83,54a27.49,27.49,0,0,1-1.66,9.47c-8-8.53-17.35-17.2-19.6-20.88C56.76,36.38,50,35.18,43,38.39S34.34,54,34.34,54V73.7A27.83,27.83,0,1,1,81.83,54Z"/><path class="cls-3" d="M80.17,63.47,76.7,70.08c-2.11-1.72-4.43-3.4-6.84-5A118.67,118.67,0,0,0,48.55,54c-7.51-2.79-11.66.15-13.33,1.9A6.73,6.73,0,0,0,34.34,57V54S35.94,41.59,43,38.39s13.81-2,17.62,4.2C62.82,46.27,72.17,54.94,80.17,63.47Z"/><path class="cls-2" d="M76.7,70.08l3.47-6.61A26.9,26.9,0,0,1,76.7,70.08Z"/><path class="cls-4" d="M76.7,70.08A27.68,27.68,0,0,1,61.17,80.89V78.43l3.47-5.21a55.51,55.51,0,0,0,5.22-8.13C72.27,66.68,74.59,68.36,76.7,70.08Z"/><path class="cls-2" d="M69.86,65.09a55.51,55.51,0,0,1-5.22,8.13L59,68c-.8,1.4-2.2,3-4,2.4a61.62,61.62,0,0,1-6.41-3.2L47,68.42l-3.4-5.21c-5.41-1.6-8.33-7.31-8.33-7.31C36.89,54.15,41,51.21,48.55,54A118.67,118.67,0,0,1,69.86,65.09Z"/><path class="cls-3" d="M64.64,73.22l-3.47,5.21v2.46a27.38,27.38,0,0,1-7.17.94A27.76,27.76,0,0,1,34.34,73.7V57a6.73,6.73,0,0,1,.88-1.11s2.92,5.71,8.33,7.31L47,68.42l1.6-1.2A61.62,61.62,0,0,0,55,70.42c1.8.6,3.2-1,4-2.4Z"/><path class="cls-5" d="M34.34,73.7A27.83,27.83,0,1,1,80.17,63.47a26.9,26.9,0,0,1-3.47,6.61A27.68,27.68,0,0,1,61.17,80.89a27.38,27.38,0,0,1-7.17.94A27.76,27.76,0,0,1,34.34,73.7Z"/><path class="cls-5" d="M34.34,57a6.73,6.73,0,0,1,.88-1.11C36.89,54.15,41,51.21,48.55,54A118.67,118.67,0,0,1,69.86,65.09c2.41,1.59,4.73,3.27,6.84,5l3.47-6.61c-8-8.53-17.35-17.2-19.6-20.88C56.76,36.38,50,35.18,43,38.39S34.34,54,34.34,54v3"/><line class="cls-5" x1="34.34" y1="73.7" x2="34.34" y2="57.01"/><path class="cls-5" d="M35.22,55.9s2.92,5.71,8.33,7.31L47,68.42l1.6-1.2A61.62,61.62,0,0,0,55,70.42c1.8.6,3.2-1,4-2.4l5.68,5.2-3.47,5.21v2.5"/><path class="cls-5" d="M64.64,73.22a55.51,55.51,0,0,0,5.22-8.13"/><line class="cls-5" x1="40.53" y1="78.33" x2="40.53" y2="72"/><line class="cls-5" x1="46.9" y1="80.29" x2="46.9" y2="73.35"/><line class="cls-5" x1="53.4" y1="81.06" x2="53.4" y2="78.05"/><path class="cls-6" d="M54.9,80.26a27.92,27.92,0,0,0,4.77-.47v-1l-.2,0c-.41,0-.82.09-1.24.12l-.45,0c-.53,0-1.06.05-1.6.05s-.85,0-1.27,0Z"/><path class="cls-6" d="M48.37,79.73a27.42,27.42,0,0,0,3.53.58V78.69a27.84,27.84,0,0,1-3.53-.79Z"/><path class="cls-6" d="M42,77.44a27.41,27.41,0,0,0,3.36,1.46v-2A28,28,0,0,1,42,75.17Z"/><path class="cls-7" d="M60.1,67,64,63.19a38.31,38.31,0,0,1,3.91,2.47L64.64,71.1Z"/><path class="cls-6" d="M35.85,73.14A27.79,27.79,0,0,0,39,75.68V73.14a28.28,28.28,0,0,1-2.36-2h-.81Z"/></g></g></svg>