<svg xmlns="http://www.w3.org/2000/svg" viewBox="0 0 108 108"><defs><style>.cls-1{fill:#98a3e9;}.cls-2{fill:#ffc66c;}.cls-2,.cls-6{stroke:#403670;stroke-linecap:round;stroke-linejoin:round;stroke-width:3px;}.cls-3{fill:#dbad6a;}.cls-4{fill:#423372;}.cls-5{fill:#b2675d;}.cls-6{fill:none;}</style></defs><title>solemnidad-04</title><g id="colecionables"><g id="San_Jose_esposo_de_la_Virgen_María" data-name="San Jose, esposo de la Virgen María"><rect class="cls-1" width="108" height="108"/><circle class="cls-2" cx="55.49" cy="54" r="27.11"/><polyline class="cls-3" points="50.04 72.8 48.21 77.52 35.15 63.77 38.58 57.22 46.78 54.43 48.59 57.8 45.69 62.03 50.04 72.8"/><path class="cls-4" d="M29.77,62.57,32.83,60S50.24,75,50.09,80.57C50.09,80.57,35.88,79.43,29.77,62.57Z"/><path class="cls-5" d="M48.21,54a68.22,68.22,0,0,1-9.67,2.27,20.48,20.48,0,0,1,.28-3.77c.08-.48,1-1,1.11-1.48.58-2.23.9-4.55,3-6.12s3.89-3.69,6.19-5.07c.48-.29,1.71-.14,2.18-.4,2.6-1.47,4.85-2.47,6-2.47,1.87,0,8.24-.43,13.35,4,.58.5.75,1.67,1.31,2.29a20.32,20.32,0,0,1,1.77,2.32l1-.27-.82,5.08H72.39L57.2,49l-.84,1.31-2-1.31a3.93,3.93,0,0,0-3.24-.65c-2.12.64-3.29,4.07-1.83,8.44Z"/><path class="cls-5" d="M58.88,67.48,58,69.13h-1l-.44.94-1.49.53s1.61,5.21-3.56,4.14a20.66,20.66,0,0,1-5.2-13.55l2.86-4.39L54.32,49l2,1.31-3.81,6a44.81,44.81,0,0,0,1.35,10.67s.44-.48,1-1.23C55.68,64.78,58.88,67.48,58.88,67.48Z"/><path class="cls-3" d="M54.32,49l-5.08,7.79c-1.45-4.37-.29-7.8,1.83-8.44A3.93,3.93,0,0,1,54.32,49Z"/><path class="cls-6" d="M38.54,56.27a20.48,20.48,0,0,1,.28-3.77c.08-.48,1-1,1.11-1.48.58-2.23.9-4.55,3-6.12s3.89-3.69,6.19-5.07c.48-.29,1.71-.14,2.18-.4,2.6-1.47,4.85-2.47,6-2.47,1.87,0,8.24-.43,13.35,4,.58.5.75,1.67,1.31,2.29a20.32,20.32,0,0,1,1.77,2.32l1-.27-.82,5.08H72.39L57.2,49l-.84,1.31-3.81,6a44.81,44.81,0,0,0,1.35,10.67s.44-.48,1-1.23c.74-.93,3.94,1.77,3.94,1.77L58,69.13h-1l-.44.94-1.49.53s1.61,5.21-3.56,4.14a20.66,20.66,0,0,1-5.2-13.55l2.86-4.39L54.32,49a3.93,3.93,0,0,0-3.24-.65c-2.12.64-3.29,4.07-1.83,8.44l-1-2.79A68.22,68.22,0,0,1,38.54,56.27Z"/><path class="cls-6" d="M58.88,67.48l1.06-1.91c1,1,3.38,1.1,3.38,1.1l3.61-7.8,2.46-.41,3-8.06"/><path class="cls-6" d="M38.54,56.27c0,.6,0,1,0,1L35.15,62"/></g></g></svg>