<svg xmlns="http://www.w3.org/2000/svg" viewBox="0 0 108 108"><defs><style>.cls-1{fill:#ed8053;}.cls-2{fill:#ededed;}.cls-2,.cls-3,.cls-4,.cls-8,.cls-9{stroke:#403670;stroke-width:3px;}.cls-2,.cls-3,.cls-8,.cls-9{stroke-linecap:round;stroke-linejoin:round;}.cls-3,.cls-6{fill:#ffc66c;}.cls-4{fill:#98a3e9;stroke-miterlimit:10;}.cls-5,.cls-8{fill:none;}.cls-7{fill:#f66;}.cls-9{fill:#fff;}</style></defs><title>solemnidad-07</title><g id="colecionables"><g id="Jueves_santo" data-name="Jueves santo"><rect class="cls-1" width="108" height="108"/><path class="cls-2" d="M39.74,41.41A12.73,12.73,0,0,0,28.61,60.32H36v-.1A1.18,1.18,0,0,1,37.19,59h5.59A1.18,1.18,0,0,1,44,60.22v.1h6.92A12.73,12.73,0,0,0,39.74,41.41Z"/><path class="cls-3" d="M51.32,71.7l3.89,6.37H27.88l2.32-5.14a20.3,20.3,0,0,0,5.9,2,1.18,1.18,0,0,0,1.1.76h5.59a1.18,1.18,0,0,0,1.13-.86A20.32,20.32,0,0,0,51.32,71.7Z"/><path class="cls-3" d="M50.88,60.32H44V74.54a1.16,1.16,0,0,1,0,.32,20.32,20.32,0,0,0,7.41-3.16c.27-.18.53-.38.79-.57a20.49,20.49,0,0,0,7.34-10.8Z"/><path class="cls-3" d="M36,69.64V60.32H20A20.46,20.46,0,0,0,36.09,75a1.16,1.16,0,0,1-.08-.42Z"/><path class="cls-4" d="M44,69.76v4.78a1.16,1.16,0,0,1,0,.32,1.18,1.18,0,0,1-1.13.86H37.19a1.18,1.18,0,0,1-1.1-.76,1.16,1.16,0,0,1-.08-.42V60.22A1.18,1.18,0,0,1,37.19,59h5.59A1.18,1.18,0,0,1,44,60.22v9.53Z"/><path class="cls-5" d="M59.45,60.32a20.31,20.31,0,0,1-2.94,6.23,20.52,20.52,0,0,1-4.4,4.57c-.26.2-.52.39-.79.57a20.32,20.32,0,0,1-7.41,3.16"/><path class="cls-5" d="M36.09,75A20.48,20.48,0,0,1,20,60.32"/><path class="cls-5" d="M44,65.92a11.89,11.89,0,0,0,6.3-5.6"/><path class="cls-5" d="M29.22,60.32A11.89,11.89,0,0,0,36,66.1"/><path class="cls-5" d="M28.61,60.32a12.73,12.73,0,1,1,22.27,0"/><polyline class="cls-5" points="51.32 71.7 55.21 78.07 27.88 78.07 30.2 72.93"/><g id="_Grupo_" data-name="&lt;Grupo&gt;"><path class="cls-6" d="M88.5,32.55a17.34,17.34,0,1,1-33.36,0,.38.38,0,0,0,0,.1.52.52,0,0,0,.11.31A17.84,17.84,0,0,0,55,35.77a17.23,17.23,0,0,0,13.2,16.94,16.47,16.47,0,0,0,7.08,0,17.22,17.22,0,0,0,13.34-17A17.88,17.88,0,0,0,88.41,33a.53.53,0,0,0,.1-.3A.44.44,0,0,0,88.5,32.55Z"/><path class="cls-6" d="M88.5,32.55a.44.44,0,0,1,0,.11.53.53,0,0,1-.1.3c-.39.58-1.92,1.11-4.22,1.52a74.53,74.53,0,0,0-12.37-.9,74.52,74.52,0,0,0-12.37.9h0c-2.29-.41-3.82-.94-4.22-1.52a.52.52,0,0,1-.11-.31.38.38,0,0,1,0-.1Z"/><path class="cls-6" d="M88.49,32.51v0H55.14l0-.06c.26-.71,2.2-1.36,5.19-1.82a78.58,78.58,0,0,1,11.47-.75C80.75,29.93,88,31.07,88.49,32.51Z"/><path class="cls-6" d="M88.41,33a17.88,17.88,0,0,1,.22,2.81,17.22,17.22,0,0,1-13.34,17,16.47,16.47,0,0,1-7.08,0A17.23,17.23,0,0,1,55,35.77,17.84,17.84,0,0,1,55.24,33c.4.58,1.92,1.11,4.22,1.52a74.56,74.56,0,0,0,12.37.89,74.22,74.22,0,0,0,12.37-.9C86.49,34.07,88,33.54,88.41,33Z"/><path class="cls-7" d="M84.2,34.48H59.45a74.52,74.52,0,0,1,12.37-.9A74.53,74.53,0,0,1,84.2,34.48Z"/><path class="cls-7" d="M59.45,34.48H84.2a74.22,74.22,0,0,1-12.37.9,74.56,74.56,0,0,1-12.37-.89Z"/><path class="cls-6" d="M81,71.29l2.14,6.56h-22l1.29-4.39a12.57,12.57,0,0,0,8.87.95C76.42,73.11,78,70.47,81,71.29Z"/><path class="cls-6" d="M79.31,66.23,81,71.29c-3-.82-4.54,1.83-9.64,3.11a12.57,12.57,0,0,1-8.87-.95l2-7a1.46,1.46,0,0,0,.62.14H78.29A1.48,1.48,0,0,0,79.31,66.23Z"/><path class="cls-6" d="M79.78,61.23v3.92a1.48,1.48,0,0,1-.47,1.08l-14.81.27a1.49,1.49,0,0,1-.86-1.35V61.23a1.49,1.49,0,0,1,1.48-1.49H78.29A1.49,1.49,0,0,1,79.78,61.23Z"/><path class="cls-6" d="M64.5,66.49l14.81-.27a1.48,1.48,0,0,1-1,.41H65.12A1.46,1.46,0,0,1,64.5,66.49Z"/><path class="cls-6" d="M75.52,54.64l1.67,5.1H66.48l.42-1.43S72,54.8,75.52,54.64Z"/><path class="cls-6" d="M75.4,54.27l.12.37c-3.53.17-8.62,3.67-8.62,3.67l1.2-4.07a17.51,17.51,0,0,0,7.3,0Z"/><path class="cls-8" d="M75.52,54.64c-3.53.17-8.62,3.67-8.62,3.67"/><path class="cls-8" d="M55.14,32.55a17.34,17.34,0,1,0,33.36,0"/><path class="cls-8" d="M88.5,32.55a.44.44,0,0,1,0,.11.53.53,0,0,1-.1.3c-.39.58-1.92,1.11-4.22,1.52a74.22,74.22,0,0,1-12.37.9,74.56,74.56,0,0,1-12.37-.89c-2.29-.41-3.82-.94-4.22-1.52a.52.52,0,0,1-.11-.31.38.38,0,0,1,0-.1h0l0-.06c.26-.71,2.2-1.36,5.19-1.82a78.58,78.58,0,0,1,11.47-.75c8.93,0,16.22,1.14,16.67,2.58Z"/><path class="cls-8" d="M59.45,34.48a74.52,74.52,0,0,1,12.37-.9,74.53,74.53,0,0,1,12.37.9"/><polyline class="cls-8" points="75.4 54.27 75.52 54.64 77.19 59.74"/><polyline class="cls-8" points="68.1 54.24 66.9 58.31 66.48 59.74"/><polyline class="cls-8" points="64.5 66.49 62.45 73.45 61.16 77.84 83.11 77.84 80.97 71.29 79.31 66.22"/><path class="cls-8" d="M64.5,66.49a1.49,1.49,0,0,1-.86-1.35V61.23a1.49,1.49,0,0,1,1.48-1.49H78.29a1.49,1.49,0,0,1,1.49,1.49v3.92a1.49,1.49,0,0,1-1.49,1.49H65.12A1.46,1.46,0,0,1,64.5,66.49Z"/></g><line class="cls-9" x1="39.74" y1="48.52" x2="39.74" y2="57.7"/><line class="cls-9" x1="44.33" y1="53.11" x2="35.16" y2="53.11"/></g></g></svg>