<svg xmlns="http://www.w3.org/2000/svg" viewBox="0 0 108 108"><defs><style>.cls-1{fill:#ffc66c;}.cls-2,.cls-4{fill:#f66;}.cls-2,.cls-3,.cls-4,.cls-5,.cls-7,.cls-8,.cls-9{stroke:#403670;}.cls-2,.cls-3,.cls-5,.cls-8,.cls-9{stroke-miterlimit:10;}.cls-2,.cls-3,.cls-5,.cls-9{stroke-width:3px;}.cls-3,.cls-6{fill:#c9a56f;}.cls-4,.cls-7{stroke-linecap:round;stroke-linejoin:round;}.cls-5,.cls-7,.cls-8{fill:#efe0a0;}.cls-9{fill:none;}</style></defs><title>solemnidad-20</title><g id="colecionables"><g id="Cristo_Rey" data-name="Cristo Rey"><rect class="cls-1" width="108" height="108"/><path class="cls-2" d="M56.58,47.06l-3,.51a1.65,1.65,0,0,1-.55,0l-3-.51a1.65,1.65,0,0,0-1.92,1.73l1.43,22.8h7.63l1.34-22.81A1.65,1.65,0,0,0,56.58,47.06Z"/><path class="cls-3" d="M83.9,57.69a7.84,7.84,0,1,0-12.28,6.45h0l-4.43,7.45h6.45l8.07-8.47A7.81,7.81,0,0,0,83.9,57.69Z"/><polygon class="cls-4" points="50.57 43.81 56.32 43.81 55.08 37.84 60.97 38.67 60.97 33.4 55.08 34.44 56.32 29.52 50.57 29.52 51.75 34.44 46.55 33.33 46.55 39.09 51.73 37.7 50.57 43.81"/><path class="cls-5" d="M74.21,57.69A8.11,8.11,0,0,0,58,56.84h0c0,.21,0,.42,0,.64l-.85,14.11h10l5.28-8.88A8.07,8.07,0,0,0,74.21,57.69Z"/><circle class="cls-6" cx="70.36" cy="67.58" r="8.51" transform="translate(-15.58 113.75) rotate(-72.09)"/><rect class="cls-3" x="32.85" y="71.59" width="40.89" height="6.87"/><path class="cls-3" d="M22.75,57.69A7.84,7.84,0,1,1,35,64.14h0l4.43,7.45H33l-8.07-8.47A7.81,7.81,0,0,1,22.75,57.69Z"/><path class="cls-5" d="M32.49,57.69a8.11,8.11,0,0,1,16.17-.84h0c0,.21,0,.42,0,.64l.85,14.11h-10l-5.28-8.88A8.07,8.07,0,0,1,32.49,57.69Z"/><polygon class="cls-7" points="75.67 58.89 79.67 60.19 80.15 55.76 84.06 57.66 85.25 54 80.91 53.4 82.89 50.25 78.89 48.96 78.6 52.65 75.23 50.71 73.94 54.71 77.86 54.91 75.67 58.89"/><circle class="cls-8" cx="67.12" cy="75.03" r="1.17"/><path class="cls-9" d="M74.21,57.69A8.11,8.11,0,0,0,58,56.84h0c0,.21,0,.42,0,.64l-.85,14.11h10l5.28-8.88A8.07,8.07,0,0,0,74.21,57.69Z"/><circle class="cls-3" cx="74.54" cy="69.98" r="8.51" transform="translate(-14.97 119.38) rotate(-72.09)"/><path class="cls-7" d="M82,70.65l-5.83-1.88,1.88-5.83a7.4,7.4,0,0,0-2.31-.75L73.9,68l-5.83-1.88a7.4,7.4,0,0,0-.75,2.31l14,4.51A7.4,7.4,0,0,0,82,70.65Z"/><circle class="cls-8" cx="39.47" cy="75.03" r="1.17"/><circle class="cls-8" cx="53.3" cy="75.03" r="1.17"/><line class="cls-7" x1="52.12" y1="67.58" x2="52.12" y2="70.65"/><line class="cls-7" x1="40.15" y1="64.51" x2="43.86" y2="70.65"/></g></g></svg>