<svg xmlns="http://www.w3.org/2000/svg" viewBox="0 0 108 108"><defs><style>.cls-1{fill:#98a3e9;}.cls-2{fill:#ddce85;}.cls-2,.cls-4,.cls-5{stroke:#403670;stroke-linecap:round;stroke-linejoin:round;stroke-width:3px;}.cls-3{fill:#c4b269;}.cls-4{fill:none;}.cls-5{fill:#ffc66c;}.cls-6{fill:#d8a65d;}</style></defs><title>solemnidad-13</title><g id="colecionables"><g id="Santísima_trinidad" data-name="Santísima trinidad"><rect class="cls-1" width="108" height="108"/><path class="cls-2" d="M73.48,49C68.88,40.69,63.1,33,57.81,25.16a2.64,2.64,0,0,0-4.38,0C48.13,33,42.27,40.68,37.72,49a2.65,2.65,0,0,0,2.07,3.92,170.3,170.3,0,0,0,31.63,0A2.65,2.65,0,0,0,73.48,49Z"/><circle class="cls-2" cx="73.82" cy="70.93" r="13.08"/><path class="cls-3" d="M58.07,53.6c-1.68,0-3.35,0-5,0A16.37,16.37,0,0,0,41.62,42.43c1-1.62,2.1-3.22,3.18-4.81A16.29,16.29,0,0,1,58.07,53.6Z"/><path class="cls-4" d="M73.48,49C68.88,40.69,63.1,33,57.81,25.16a2.64,2.64,0,0,0-4.38,0C48.13,33,42.27,40.68,37.72,49a2.65,2.65,0,0,0,2.07,3.92,170.3,170.3,0,0,0,31.63,0A2.65,2.65,0,0,0,73.48,49Z"/><circle class="cls-5" cx="37.39" cy="58.18" r="16.3"/><path class="cls-6" d="M40.37,43.63V55.2H51.94A14.89,14.89,0,0,0,40.37,43.63Z"/><path class="cls-6" d="M34.41,55.2V43.63A14.89,14.89,0,0,0,22.85,55.2Z"/><path class="cls-6" d="M34.41,72.73V61.16H22.85A14.89,14.89,0,0,0,34.41,72.73Z"/><path class="cls-6" d="M40.37,61.16V72.73A14.89,14.89,0,0,0,51.94,61.16Z"/></g></g></svg>