<svg xmlns="http://www.w3.org/2000/svg" viewBox="0 0 108 108"><defs><style>.cls-1{fill:#98a3e9;}.cls-2{fill:#efe0a0;}.cls-3{fill:#403670;}.cls-4{fill:#ededed;}.cls-5{fill:#5aa145;}.cls-6{fill:#80c45b;}</style></defs><title>solemnidad-21</title><g id="colecionables"><g id="Inmaculada_Concepción_de_María" data-name="Inmaculada Concepción de María"><rect class="cls-1" width="108" height="108"/><circle class="cls-2" cx="48.16" cy="59.45" r="27.8"/><path class="cls-3" d="M48.16,88.52A29.07,29.07,0,1,1,77.23,59.45,29.11,29.11,0,0,1,48.16,88.52Zm0-55.6A26.53,26.53,0,1,0,74.69,59.45,26.56,26.56,0,0,0,48.16,32.92Z"/><path class="cls-4" d="M62.11,28.8s-2.71.93-4.75,1.37a9,9,0,0,0-6.85,5s5.23-1.81,7.52.76a8.47,8.47,0,0,0,5.33,2.76s4.63,3,6.05,2-.12-6.62-.12-6.62l-5.78-5.79Z"/><path class="cls-3" d="M68.6,42.18c-1.81,0-4.13-1.26-5.67-2.24a9.84,9.84,0,0,1-5.84-3.15c-1.41-1.58-5-.8-6.15-.4a1.27,1.27,0,0,1-1.54-1.8,10.27,10.27,0,0,1,7.7-5.66c1.87-.41,4.4-1.26,4.6-1.33l1.38-.51a1.27,1.27,0,0,1,1.34.29l5.79,5.79a1.27,1.27,0,0,1,.33.56c.66,2.4,1.5,6.63-.36,8A2.6,2.6,0,0,1,68.6,42.18Zm0-2.44ZM54.23,33.3A6.15,6.15,0,0,1,59,35.1a7.28,7.28,0,0,0,4.46,2.34,1.28,1.28,0,0,1,.62.21c1.77,1.16,3.88,2.07,4.58,2,.27-.65,0-2.85-.49-4.91l-5-5-.63.23h0c-.11,0-2.81,1-4.9,1.41a8.14,8.14,0,0,0-4.16,1.91Zm7.89-4.5h0Z"/><path class="cls-3" d="M43,65.21a1.27,1.27,0,0,1-.66-2.36c.42-.25,10.28-6.22,15.94-6.51a18.42,18.42,0,0,1,5,.61c3.42.76,6.37,1.41,11.07-2.47a1.27,1.27,0,1,1,1.62,2c-5.65,4.67-9.68,3.78-13.24,3a16,16,0,0,0-4.32-.56c-5,.26-14.65,6.08-14.75,6.14A1.26,1.26,0,0,1,43,65.21Z"/><path class="cls-5" d="M68.11,42.94,58.35,57.62s7.75,4.84-.74,12.63c0,0-.05-2.94.74-12.63"/><path class="cls-3" d="M57.6,71.52a1.27,1.27,0,0,1-1.27-1.25c0-.12,0-3.11.75-12.75v0a1.27,1.27,0,0,1,.22-.6L67,42.24a1.27,1.27,0,1,1,2.12,1.41l-9.11,13.7a8.13,8.13,0,0,1,2.77,5.18c.26,2.85-1.2,5.77-4.36,8.66A1.27,1.27,0,0,1,57.6,71.52Zm1.8-11.09c-.21,2.79-.34,4.87-.41,6.38a6.14,6.14,0,0,0,1.3-4A4.91,4.91,0,0,0,59.4,60.43Z"/><path class="cls-6" d="M35.93,52.12s7.69-4.58,11.29-.38S51.3,59,51.3,59,42,57.82,35.93,52.12Z"/><path class="cls-3" d="M51.3,59.85h-.11c-.39,0-9.62-1.28-15.85-7.1a.85.85,0,0,1,.14-1.35c.34-.2,8.35-4.89,12.37-.2,3.71,4.33,4.26,7.54,4.28,7.68a.85.85,0,0,1-.84,1ZM37.42,52.3c4.4,3.61,10.13,5.11,12.67,5.63a19.62,19.62,0,0,0-3.52-5.63C44.2,49.53,39.52,51.3,37.42,52.3Z"/><path class="cls-5" d="M50.59,52.34S54,53.55,55.2,53.44s2.62.65,3.36,2.8A7,7,0,0,1,50.59,52.34Z"/><path class="cls-3" d="M57,57.25a7.58,7.58,0,0,1-7.13-4.53.85.85,0,0,1,1-1.17,16.52,16.52,0,0,0,4.25,1c1.44-.13,3.31.68,4.24,3.36a.85.85,0,0,1-.58,1.1A7.93,7.93,0,0,1,57,57.25Zm-4.27-3.36a6,6,0,0,0,4.64,1.67,2.21,2.21,0,0,0-2-1.27A8.79,8.79,0,0,1,52.69,53.89Z"/><path class="cls-6" d="M65.73,59.25s5-1.37,3.53-9.49C69.27,49.76,64.92,54.25,65.73,59.25Z"/><path class="cls-3" d="M65.73,60.1a.85.85,0,0,1-.84-.71c-.87-5.36,3.57-10,3.76-10.21a.84.84,0,0,1,.85-.22.85.85,0,0,1,.59.66C71.72,58.39,66,60.05,66,60.07A.85.85,0,0,1,65.73,60.1Zm2.94-8.22a11.35,11.35,0,0,0-2.19,6C67.49,57.18,68.89,55.5,68.67,51.87Z"/><path class="cls-4" d="M79.54,37.8a4.05,4.05,0,0,1,3.32.82c6.71,4.85,4.4,7.52,4.4,7.52A21.23,21.23,0,0,0,75,44l-4.33-1.57-3-.51,3.22-2.78,8.61-1.38"/><path class="cls-3" d="M87.26,47.41a1.26,1.26,0,0,1-.6-.15,20.12,20.12,0,0,0-11.41-2,1.27,1.27,0,0,1-.64-.06L70.38,43.7l-2.9-.49A1.27,1.27,0,0,1,66.87,41l3.22-2.78a1.27,1.27,0,0,1,.63-.29l8.58-1.37a5.3,5.3,0,0,1,4.3,1c3.26,2.36,5,4.63,5.28,6.76A3.42,3.42,0,0,1,88.22,47,1.27,1.27,0,0,1,87.26,47.41Zm-9.6-4.83a22.37,22.37,0,0,1,8.64,1.68c-.29-1-1.33-2.55-4.19-4.62A2.82,2.82,0,0,0,79.8,39h-.07l-8.26,1.32-.9.78.35.06.22.06,4,1.46A20.7,20.7,0,0,1,77.66,42.59Zm1.88-4.79h0Z"/><path class="cls-4" d="M64.63,43c1.4-2.21,4.12-1.28,4.12-1.28s7.72-1.39,11.54,2.93,2.83,10.7.93,14.19c.49.84-3.36-2.64-6.31-9.52a7.18,7.18,0,0,0-2.47-3.24"/><path class="cls-3" d="M81.24,60.23h-.1c-1.37-.11-5.06-4.93-7.4-10.41a6,6,0,0,0-2-2.66A1.27,1.27,0,0,1,73.1,45a8.34,8.34,0,0,1,3,3.83,32.49,32.49,0,0,0,4.7,7.9c1.16-3.15,1.53-7.87-1.44-11.23C76.05,41.76,69,42.95,69,43a1.27,1.27,0,0,1-.64,0,2.3,2.3,0,0,0-2.63.76,1.27,1.27,0,1,1-2.15-1.36,4.75,4.75,0,0,1,5.28-1.9c1.57-.23,8.58-.95,12.41,3.39,4.22,4.78,3.12,11.6,1.28,15.28a1.29,1.29,0,0,1-1.29,1.15Zm-1.12-.76h0Z"/><path class="cls-4" d="M68.15,40.87s1.24-8.46-4.92-11.31c-3.7-1.71,1.13-3.85-.56-6.69s-3.28-.23-3.28-.23-.41-3.91,6.26-.5S72,30.86,72,30.86l-1.9,8.89Z"/><path class="cls-3" d="M68.15,42.14a1.27,1.27,0,0,1-1.26-1.45c0-.12,1-7.57-4.2-10a3.52,3.52,0,0,1-2-1.93,3.85,3.85,0,0,1,.55-3c.55-1.09.73-1.6.36-2.23s-.6-.7-.61-.7a1.6,1.6,0,0,0-.5.5,1.28,1.28,0,0,1-2.35-.54A3,3,0,0,1,59.35,20c1.42-1,3.67-.66,6.87,1,7.31,3.74,7.09,9.67,7.07,9.92a1.23,1.23,0,0,1,0,.2L71.37,40a1.27,1.27,0,0,1-.62.84l-2,1.12A1.27,1.27,0,0,1,68.15,42.14ZM63.06,28a1.74,1.74,0,0,0,.7.45c4,1.86,5.29,5.67,5.65,8.62l1.35-6.32c0-.63-.26-4.67-5.69-7.44-.37-.19-.71-.35-1-.49a4.78,4.78,0,0,1-.55,4.11A3.78,3.78,0,0,0,63.06,28Z"/><path class="cls-4" d="M56.42,47.8s.09-2.81,3.91-6.92,7.43-2.42,8.1.12,5.05,2.87,4,5.08S60.1,47.75,56.42,47.8Z"/><path class="cls-3" d="M60.86,49.09H58.77c-.93,0-1.73,0-2.33,0a1.31,1.31,0,0,1-.93-.38,1.27,1.27,0,0,1-.36-.93c0-.34.22-3.41,4.25-7.75,2.91-3.13,5.51-3.06,6.8-2.73a4.76,4.76,0,0,1,3.46,3.39c.18.69,1,1.23,1.85,1.76,1.17.74,3.12,2,2.08,4.19C72.65,48.62,68.53,49.09,60.86,49.09Zm-2.8-2.56h.73c2.83,0,11.45.1,12.54-1.07,0,0,0,0,0,0a6.63,6.63,0,0,0-1.18-.86,5.87,5.87,0,0,1-2.94-3.25,2.22,2.22,0,0,0-1.62-1.57c-1.27-.32-2.84.41-4.32,2A15.45,15.45,0,0,0,58.06,46.53Z"/><path class="cls-4" d="M68.43,41l2.38-6.08c-1-5.6,7.8-7.66,7.8-7.66s-.29.32.43,2.38,3.85.77,3.85.77S81.75,38,77.09,39a43.48,43.48,0,0,0-8.33,2.71"/><path class="cls-3" d="M68.76,43a1.27,1.27,0,0,1-1.15-.73,1.3,1.3,0,0,1-.11-.39,1.27,1.27,0,0,1-.24-1.32l2.26-5.77c-.74-6.42,8.42-8.65,8.81-8.74a1.27,1.27,0,0,1,1.51,1.61,6.72,6.72,0,0,0,.41,1.59.33.33,0,0,0,.2.23,3.38,3.38,0,0,0,2-.22,1.27,1.27,0,0,1,1.74,1.37c-.05.35-1.34,8.47-6.8,9.64a42.33,42.33,0,0,0-8.06,2.62A1.27,1.27,0,0,1,68.76,43Zm8.74-14c-2.16.78-6,2.61-5.42,5.77a1.28,1.28,0,0,1-.07.68l-1.69,4.31a45.48,45.48,0,0,1,6.51-1.94c2.45-.52,3.76-3.63,4.37-5.68a3.93,3.93,0,0,1-1.8-.3,2.87,2.87,0,0,1-1.55-1.72C77.7,29.64,77.58,29.27,77.49,28.93Zm2.07-.83h0Zm0,0h0Zm0,0h0Z"/><path class="cls-3" d="M68.76,42.13a.42.42,0,0,1-.42-.44c0-.09.31-8.92-.58-11.8a.42.42,0,0,1,.81-.25c.76,2.46.7,8.69.64,11.11,1.46-1.32,4.75-4.46,6.28-7.37a.42.42,0,0,1,.75.39c-2.07,3.94-7,8.09-7.21,8.26A.43.43,0,0,1,68.76,42.13Z"/></g></g></svg>