<svg xmlns="http://www.w3.org/2000/svg" viewBox="0 0 108 108"><defs><style>.cls-1{fill:#544d89;}.cls-2{fill:#b2675d;}.cls-3{fill:#ff7676;}.cls-4{fill:#d1efff;}.cls-5{fill:#ed8053;}.cls-6{fill:none;stroke:#403670;stroke-linecap:round;stroke-linejoin:round;stroke-width:3px;}.cls-7{fill:#ffc66c;}.cls-8{fill:#403670;stroke:#423372;stroke-miterlimit:10;}</style></defs><title>solemnidad-02</title><g id="colecionables"><g id="Epifanía_del_Señor" data-name="Epifanía del Señor"><rect class="cls-1" width="108" height="108"/><polygon class="cls-1" points="67.09 53.08 67.06 78.12 40.83 78.12 40.83 52.99 54 45.96 67.09 53.08"/><polygon class="cls-2" points="79.94 44.67 79.94 46.48 79.93 49.51 54.19 34.81 32.75 47.15 32.75 46.61 28.06 49.84 28.06 44.67 54.19 29.64 79.94 44.67"/><polygon class="cls-3" points="79.94 46.48 79.94 49.52 79.93 49.52 79.93 49.51 79.94 46.48"/><polygon class="cls-4" points="78.12 48.79 75.09 47.58 75.09 78.12 75.08 47.17 78.12 48.79"/><polygon class="cls-5" points="32.75 78.12 32.75 47.15 54.19 34.81 79.93 49.51 78.12 48.79 75.08 47.17 75.09 78.12 67.06 78.12 67.09 53.08 54 45.96 40.83 52.99 40.83 78.12 32.75 78.12"/><polygon class="cls-3" points="32.75 46.61 32.75 47.15 28.06 49.84 32.75 46.61"/><polyline class="cls-6" points="79.93 49.51 79.94 46.48 79.94 44.67 54.19 29.64 28.06 44.67 28.06 49.84 32.75 47.15 32.75 78.12 40.83 78.12 40.83 52.99 54 45.96 67.09 53.08 67.06 78.12 75.09 78.12 75.08 47.17 78.12 48.79 79.93 49.76 79.93 49.52"/><polygon class="cls-7" points="22.39 24.22 27.45 23.68 29.93 18.99 32.3 23.52 37.48 24.22 33.81 28.1 34.57 33 29.93 30.85 25.24 33 26.11 28.04 22.39 24.22"/><path class="cls-8" d="M25.24,33.33a.32.32,0,0,1-.32-.38l.83-4.8-3.6-3.71a.32.32,0,0,1,.2-.55l4.9-.52,2.4-4.54a.32.32,0,0,1,.29-.17h0a.32.32,0,0,1,.29.17l2.29,4.38,5,.68a.32.32,0,0,1,.19.54l-3.56,3.77L34.89,33a.32.32,0,0,1-.46.34l-4.5-2.09L25.38,33.3A.32.32,0,0,1,25.24,33.33Zm4.69-2.8a.33.33,0,0,1,.14,0l4.09,1.9-.66-4.31a.32.32,0,0,1,.08-.27l3.23-3.42-4.55-.62a.32.32,0,0,1-.24-.17l-2.09-4-2.19,4.15a.32.32,0,0,1-.25.17l-4.41.47,3.26,3.35a.32.32,0,0,1,.09.28l-.76,4.35,4.13-1.9A.33.33,0,0,1,29.93,30.52Z"/></g></g></svg>