<svg xmlns="http://www.w3.org/2000/svg" xmlns:xlink="http://www.w3.org/1999/xlink" viewBox="0 0 108 108"><defs><style>.cls-1{fill:none;}.cls-2{fill:#98a3e9;}.cls-3{clip-path:url(#clip-path);}.cls-4{fill:#bac3f4;stroke:#403670;stroke-linecap:round;stroke-linejoin:round;stroke-width:3px;}.cls-5{fill:#ffc66c;}.cls-6{fill:#403670;}.cls-7{fill:#d8a65d;}</style><clipPath id="clip-path"><rect class="cls-1" width="108" height="108"/></clipPath></defs><title>solemnidad-11</title><g id="colecionables"><g id="Ascensi칩n_del_se침or" data-name="Ascensi칩n del se침or"><rect class="cls-2" width="108" height="108"/><line class="cls-1" x1="5.71" y1="42.22" x2="53.33" y2="4.49"/><g class="cls-3"><polygon class="cls-4" points="-3.41 52.55 54.25 0 111.41 52.11 111.41 85.77 54.31 0 -3.41 86.69 -3.41 52.55"/><polygon class="cls-4" points="25.69 113.18 54.15 0 82.31 111.92 25.69 113.18"/></g><circle class="cls-5" cx="54" cy="36.88" r="13.96"/><path class="cls-6" d="M54,52.34A15.46,15.46,0,1,1,69.46,36.88,15.47,15.47,0,0,1,54,52.34Zm0-27.92A12.46,12.46,0,1,0,66.46,36.88,12.47,12.47,0,0,0,54,24.42Z"/><path class="cls-7" d="M56.5,24.68v9.7h9.7A12.49,12.49,0,0,0,56.5,24.68Z"/><path class="cls-7" d="M51.5,34.38v-9.7a12.49,12.49,0,0,0-9.7,9.7Z"/><path class="cls-7" d="M51.5,49.09V39.38H41.8A12.49,12.49,0,0,0,51.5,49.09Z"/><path class="cls-7" d="M56.5,39.38v9.71a12.49,12.49,0,0,0,9.7-9.71Z"/></g></g></svg>