<svg xmlns="http://www.w3.org/2000/svg" viewBox="0 0 108 108"><defs><style>.cls-1{fill:#ed8053;}.cls-2{fill:#6776c1;}.cls-3{fill:#98a3e9;}.cls-4{fill:none;stroke:#403670;}.cls-4,.cls-5{stroke-linecap:round;stroke-linejoin:round;stroke-width:3px;}.cls-5{fill:#ededed;stroke:#ededed;}</style></defs><title>solemnidad-15</title><g id="colecionables"><g id="San_Juan_Bautista" data-name="San Juan Bautista"><rect class="cls-1" width="108" height="108"/><path class="cls-2" d="M64.83,63.49h0c0,.25,0,.5,0,.75a10.83,10.83,0,0,1-16.49,9.23l5.21-11.82.45-.22c9.37-4.52,6.27-14.07,6.1-14.57C62.56,53.05,64.83,59.77,64.83,63.49Z"/><path class="cls-3" d="M60.1,46.86c.17.5,3.27,10.05-6.1,14.57l-.45.22,6.54-14.81Z"/><path class="cls-3" d="M60.09,46.84,53.55,61.65c-10,5.08-5.21,11.82-5.21,11.82a10.82,10.82,0,0,1-5.16-9.23c0-.25,0-.5,0-.75h0C43.18,55.38,54,32.93,54,32.93S57.18,39.52,60.09,46.84Z"/><path class="cls-2" d="M53.55,61.65,48.34,73.47S43.56,66.73,53.55,61.65Z"/><path class="cls-4" d="M60.09,46.84C57.18,39.52,54,32.93,54,32.93S43.18,55.38,43.18,63.49h0c0,.25,0,.5,0,.75a10.83,10.83,0,1,0,21.65,0c0-.25,0-.5,0-.75h0c0-3.72-2.27-10.44-4.73-16.63"/><path class="cls-4" d="M48.34,73.47s-4.78-6.74,5.21-11.82l.45-.22c9.37-4.52,6.27-14.07,6.1-14.57v0"/><line class="cls-5" x1="53.21" y1="45.26" x2="51.8" y2="49.01"/></g></g></svg>