<svg xmlns="http://www.w3.org/2000/svg" viewBox="0 0 108 108"><defs><style>.cls-1{fill:#544d89;}.cls-2{fill:#b2675d;}.cls-2,.cls-3,.cls-4,.cls-6,.cls-7{stroke:#403670;}.cls-2,.cls-3,.cls-6,.cls-7{stroke-linecap:round;stroke-linejoin:round;}.cls-2,.cls-3,.cls-4,.cls-6{stroke-width:3px;}.cls-3,.cls-7{fill:#efe0a0;}.cls-4{fill:#ffc66c;stroke-miterlimit:10;}.cls-5{fill:#d8a65d;}.cls-6{fill:#ed8053;}.cls-8{fill:#403670;}</style></defs><title>solemnidad-22</title><g id="colecionables"><g id="Natividad_del_Señor" data-name="Natividad del Señor"><rect class="cls-1" width="108" height="108"/><polygon class="cls-2" points="46.79 81.59 39.22 81.48 65.05 55.64 68.89 59.48 46.79 81.59"/><path class="cls-3" d="M43.41,44.93s-7.1-3.86-9.94-4.07l1.5,2H30.83l2.63.93"/><circle class="cls-4" cx="54.06" cy="41.28" r="14.87"/><path class="cls-5" d="M56.68,28.21V38.6H67.07A13.38,13.38,0,0,0,56.68,28.21Z"/><path class="cls-5" d="M51.32,38.6V28.21A13.38,13.38,0,0,0,40.93,38.6Z"/><path class="cls-5" d="M51.32,54.35V44H40.93A13.38,13.38,0,0,0,51.32,54.35Z"/><path class="cls-5" d="M56.68,44V54.35A13.38,13.38,0,0,0,67.07,44Z"/><path class="cls-3" d="M64.59,44.93s7.1-3.86,9.94-4.07l-1.5,2h4.13l-2.63.93"/><path class="cls-3" d="M39.33,42.89s6.16.38,10.08.93c2.79.39,9.77-.59,14.35-.93,1.84-.13,3.29.75,3.93.46l-5.49,4.79H42.39Z"/><polygon class="cls-6" points="61.33 81.59 68.89 81.48 43.06 55.64 39.22 59.48 61.33 81.59"/><path class="cls-3" d="M74.65,52.49c0,4.2-3.41,7.81-8.13,8.59a100.88,100.88,0,0,1-12.46,1.51,100.88,100.88,0,0,1-12.46-1.51c-4.71-.77-8.13-4.38-8.13-8.59V45.66a1.84,1.84,0,0,1,2.09-1.82l6.4.9a87.08,87.08,0,0,0,24.21,0l6.4-.9a1.84,1.84,0,0,1,2.09,1.82Z"/><path class="cls-3" d="M42,44.74a10.65,10.65,0,0,0-4,2.65"/><path class="cls-3" d="M67.07,44.74s3.76.75,3.81,1.32"/><line class="cls-3" x1="56.91" y1="45.4" x2="59.67" y2="47.38"/><line class="cls-7" x1="52.22" y1="61.76" x2="61.6" y2="52.38"/><line class="cls-7" x1="62.01" y1="61.76" x2="55.89" y2="55.64"/><line class="cls-7" x1="72.55" y1="57.07" x2="68.59" y2="53.11"/><line class="cls-7" x1="68.89" y1="59.48" x2="66.14" y2="56.73"/><line class="cls-7" x1="54.92" y1="62.59" x2="61.93" y2="55.57"/><circle class="cls-8" cx="54.06" cy="41.28" r="4.24"/></g></g></svg>