<svg xmlns="http://www.w3.org/2000/svg" viewBox="0 0 108 108"><defs><style>.cls-1{fill:#96cc76;}.cls-2{fill:#403670;}.cls-3{fill:#ed8053;}.cls-4{fill:#b2675d;}.cls-5{fill:#f66;}.cls-6{fill:#f25d3b;}.cls-7{fill:#dd4a4a;}.cls-8{fill:none;stroke:#403670;stroke-linecap:round;stroke-linejoin:round;stroke-width:3px;}</style></defs><title>solemnidad-16</title><g id="colecionables"><g id="Sagrado_Corazón_de_Jesús" data-name="Sagrado Corazón de Jesús"><rect class="cls-1" width="108" height="108"/><path class="cls-2" d="M78.09,67.39c0-.15,0-.3,0-.44C78.09,67.1,78.09,67.24,78.09,67.39Z"/><path class="cls-2" d="M78.08,67c0,.14,0,.29,0,.44a7.81,7.81,0,0,1-2.64,5.74,12.18,12.18,0,0,1-.93.82c-.32.26-.64.51-1,.74l-.39.27L73,74.29c0-.12-.06-.25-.09-.37A10.17,10.17,0,0,0,76.55,70h.31v-.82a6.21,6.21,0,0,0,.25-1.78c0-3.3-2.37-5.39-5.06-7.11h0l1,.21c0-.22.09-.45.13-.66.17.11.34.22.51.35l.64.47c.22.17.42.34.62.51l.59.54.28.28.26.29.26.3.38.49.11.15a3.07,3.07,0,0,1,.2.31,1.64,1.64,0,0,1,.14.23,7,7,0,0,1,.77,1.91c0,.07,0,.14,0,.21s0,.16,0,.24,0,.22.05.33l0,.2C78.07,66.74,78.07,66.85,78.08,67Z"/><path class="cls-2" d="M78.06,66.63l0-.2Z"/><path class="cls-2" d="M78,66.44c0-.11,0-.22-.05-.33C78,66.22,78,66.33,78,66.44Z"/><path class="cls-2" d="M77.94,65.87c0-.07,0-.14,0-.21S77.92,65.8,77.94,65.87Z"/><path class="cls-2" d="M77.12,63.75a1.64,1.64,0,0,0-.14-.23A2.66,2.66,0,0,1,77.12,63.75Z"/><path class="cls-2" d="M77,63.52a3.07,3.07,0,0,0-.2-.31A3.07,3.07,0,0,1,77,63.52Z"/><path class="cls-2" d="M77.11,67.39a6.21,6.21,0,0,1-.25,1.78V68h-.78a4.83,4.83,0,0,0,0-.62c0-.11,0-.22,0-.34a3.52,3.52,0,0,0,0-.46,2.57,2.57,0,0,0,0-.26,3.73,3.73,0,0,0-.2-.73c0-.07,0-.13-.07-.2a.33.33,0,0,0,0-.09,4.93,4.93,0,0,0-.31-.62,1.41,1.41,0,0,0-.13-.21,1.45,1.45,0,0,0-.14-.21,3.88,3.88,0,0,0-.28-.39,1.65,1.65,0,0,0-.17-.2c-.1-.12-.22-.25-.34-.37a8.31,8.31,0,0,0-.74-.7c-.13-.12-.26-.22-.4-.33a4.43,4.43,0,0,0-.41-.31c-.27-.21-.55-.41-.84-.59l-.43-.28.53-.84C74.73,62,77.11,64.09,77.11,67.39Z"/><path class="cls-2" d="M76.86,69.17V70h-.31A5.79,5.79,0,0,0,76.86,69.17Z"/><path class="cls-2" d="M76.86,68v1.16a5.79,5.79,0,0,1-.31.82H75.44a5.24,5.24,0,0,0,.64-2Z"/><path class="cls-2" d="M75.44,70h1.11a10.17,10.17,0,0,1-3.62,3.93c-.08-.35-.16-.69-.25-1a12.36,12.36,0,0,0,1.66-1.43A7.5,7.5,0,0,0,75.44,70Z"/><path class="cls-2" d="M76.68,63.06l-.38-.49A5.48,5.48,0,0,1,76.68,63.06Z"/><path class="cls-2" d="M76.12,67.39c0-.11,0-.22,0-.34C76.11,67.17,76.12,67.28,76.12,67.39Z"/><path class="cls-3" d="M76.11,67.06c0,.11,0,.22,0,.34a4.83,4.83,0,0,1,0,.62h-2a2.76,2.76,0,0,0,.07-.62,2.57,2.57,0,0,0,0-.32,1.78,1.78,0,0,0,0-.27,3.38,3.38,0,0,0-.45-1.15,1.78,1.78,0,0,0-.13-.2c-.09-.13-.18-.26-.29-.39a4.73,4.73,0,0,0-.52-.57,4.08,4.08,0,0,0-.39-.36l-.06-.05-.36-.3-.28-.21a37.58,37.58,0,0,0-3.31-2.09l-.3-.17-.32-.18-.61-.36c-.63-.37-1.24-.76-1.81-1.17l-.51-.38a9,9,0,0,1-.91-.8,10.14,10.14,0,0,1-.77-.87l-.34-.45c-.26-.35-.51-.72-.74-1.1l-.35-.56,0-.05c.72-.18,1.4-.34,2-.46A12.16,12.16,0,0,0,65.25,57l.28.26a1.68,1.68,0,0,0,.2.17q.3.26.63.49l.18.13q.44.32.93.61l.46.28,1.37.82c.75.43,1.5.87,2.22,1.34l.43.28.84.59.41.31.4.33c.26.22.51.45.74.7l.34.37a1.65,1.65,0,0,1,.17.2c.1.13.2.26.28.39l.14.21a1.41,1.41,0,0,1,.13.21c.11.2.22.41.31.62a.33.33,0,0,1,0,.09c0,.07.05.13.07.2a3.73,3.73,0,0,1,.2.73c0,.09,0,.17,0,.26A3.52,3.52,0,0,1,76.11,67.06Z"/><path class="cls-2" d="M74.08,68h2a5.24,5.24,0,0,1-.64,2H73A4.16,4.16,0,0,0,74.08,68Z"/><path class="cls-2" d="M76.06,66.6c0-.09,0-.17,0-.26A2.57,2.57,0,0,1,76.06,66.6Z"/><path class="cls-2" d="M76,62.27,75.78,62A2.68,2.68,0,0,1,76,62.27Z"/><path class="cls-2" d="M75.81,65.61c0-.07,0-.13-.07-.2S75.79,65.54,75.81,65.61Z"/><path class="cls-2" d="M75.4,64.71a4.93,4.93,0,0,1,.31.62C75.61,65.12,75.51,64.91,75.4,64.71Z"/><path class="cls-2" d="M75.5,61.7l-.59-.54A6.46,6.46,0,0,1,75.5,61.7Z"/><path class="cls-4" d="M75.44,70a7.5,7.5,0,0,1-1.11,1.47,12.81,12.81,0,0,1-1.66,1.42L72.46,72l-.16-.59c-.06-.22-.12-.43-.17-.64A8.49,8.49,0,0,0,73,70Z"/><path class="cls-2" d="M75.27,64.5l-.14-.21A1.45,1.45,0,0,1,75.27,64.5Z"/><path class="cls-2" d="M74.85,63.9a3.88,3.88,0,0,1,.28.39C75,64.15,74.94,64,74.85,63.9Z"/><path class="cls-2" d="M74.52,73.95a12.18,12.18,0,0,0,.93-.82A12.18,12.18,0,0,1,74.52,73.95Z"/><path class="cls-2" d="M74.91,61.16c-.2-.18-.41-.34-.62-.51C74.5,60.81,74.71,61,74.91,61.16Z"/><path class="cls-2" d="M74.67,63.69l-.34-.37C74.46,63.44,74.58,63.57,74.67,63.69Z"/><path class="cls-2" d="M74.29,60.65l-.64-.47C73.86,60.32,74.08,60.48,74.29,60.65Z"/><path class="cls-2" d="M73.6,62.62a8.31,8.31,0,0,1,.74.7C74.1,63.08,73.85,62.85,73.6,62.62Z"/><path class="cls-2" d="M74.15,67.39a2.57,2.57,0,0,0,0-.32A2.57,2.57,0,0,1,74.15,67.39Z"/><path class="cls-2" d="M74.13,67.07a2.57,2.57,0,0,1,0,.32h-1A3.35,3.35,0,0,0,71.87,65L72,64.6l-1-.24h0l.59-.79.28.21.36.3.06.05.39.36c.19.19.36.37.52.57s.2.26.29.39l.13.2a3.38,3.38,0,0,1,.45,1.15A1.9,1.9,0,0,1,74.13,67.07Z"/><path class="cls-2" d="M73.16,67.39h1a2.76,2.76,0,0,1-.07.62h-1A2.25,2.25,0,0,0,73.16,67.39Z"/><path class="cls-2" d="M74.13,67.07a1.9,1.9,0,0,0,0-.27A1.78,1.78,0,0,1,74.13,67.07Z"/><path class="cls-2" d="M73.07,68h1A4.16,4.16,0,0,1,73,70h-.47V69A3.33,3.33,0,0,0,73.07,68Z"/><path class="cls-2" d="M73.64,65.65l-.13-.2A1.78,1.78,0,0,1,73.64,65.65Z"/><path class="cls-2" d="M73.6,62.62l-.4-.33C73.33,62.4,73.46,62.5,73.6,62.62Z"/><path class="cls-2" d="M73.55,74.69l-.39.28h0Z"/><path class="cls-2" d="M73.49,56.68a16.17,16.17,0,0,1-.35,3.14l-.57-.37-.33-.21a14.3,14.3,0,0,0,.26-2.56,7,7,0,0,0-1.26-4.26l.05-.05-.62-.63-.34-.33L69.9,51l-.05.05c-2.24-1.64-5.06-1.41-7.85-.81l.82-.53q-.18-.29-.37-.57c2.86-.55,6.3-.7,8.85,1.85A7.66,7.66,0,0,1,73.49,56.68Z"/><path class="cls-2" d="M73.15,75c.55,2.86.7,6.29-1.86,8.85A7.68,7.68,0,0,1,65.57,86a16.25,16.25,0,0,1-3.13-.34q.2-.29.37-.57L62,84.56a16.64,16.64,0,0,0,3.59.46,6.76,6.76,0,0,0,5-1.91c2.32-2.32,2.13-5.49,1.46-8.59l.52.82h0Z"/><path class="cls-2" d="M73.19,62.29,72.79,62A4.43,4.43,0,0,1,73.19,62.29Z"/><path class="cls-2" d="M73.16,67.39h-1a1.19,1.19,0,0,0-.06-.36s0-.09,0-.13a2.58,2.58,0,0,0-.44-.68c.07-.4.15-.82.24-1.18A3.35,3.35,0,0,1,73.16,67.39Z"/><path class="cls-2" d="M72.17,67.39h1a2.25,2.25,0,0,1-.09.62h-.53v1a6.16,6.16,0,0,1-.67.72c-.09-.36-.17-.76-.24-1.16A1.93,1.93,0,0,0,72.17,67.39Z"/><path class="cls-2" d="M73.15,75h0l-.57.37-.53-.82h0c.3-.19.59-.38.87-.59,0,.12.07.25.09.37Z"/><path class="cls-2" d="M73.14,59.82h0c0,.21-.09.43-.13.66l-1-.21.53-.82Z"/><path class="cls-2" d="M72.54,68h.53a3.33,3.33,0,0,1-.53,1Z"/><path class="cls-2" d="M72.54,70H73a8.49,8.49,0,0,1-.87.82c0-.16-.09-.33-.12-.49l0-.13-.11-.45a6.16,6.16,0,0,0,.67-.72Z"/><path class="cls-2" d="M72.7,64.48a4.73,4.73,0,0,1,.52.57C73.06,64.86,72.89,64.67,72.7,64.48Z"/><path class="cls-2" d="M72.67,72.88a12.81,12.81,0,0,0,1.66-1.42,12.36,12.36,0,0,1-1.66,1.43Z"/><path class="cls-2" d="M72.67,72.89c.09.34.17.68.25,1-.29.2-.58.39-.87.59-.07-.34-.16-.68-.24-1C72.1,73.3,72.39,73.1,72.67,72.89Z"/><path class="cls-2" d="M72.46,72l.22.84h0l-.87.6c-.12-.52-.26-1-.39-1.53s-.28-1-.39-1.53l.59.79.53-.41c.05.21.11.43.17.64Z"/><polygon class="cls-2" points="72.06 74.52 72.58 75.34 72.58 75.34 72.06 74.52"/><path class="cls-2" d="M72.58,59.45l-.53.82h0c.07-.34.14-.69.2-1Z"/><path class="cls-2" d="M72.7,64.48l-.39-.36A4.08,4.08,0,0,1,72.7,64.48Z"/><path class="cls-2" d="M71.94,61.39c.29.18.57.38.84.59Z"/><path class="cls-2" d="M72.5,56.68a14.3,14.3,0,0,1-.26,2.56c-.3-.19-.6-.37-.9-.55a13.69,13.69,0,0,0,.17-2,6,6,0,0,0-1-3.56l.7-.7A7,7,0,0,1,72.5,56.68Z"/><path class="cls-2" d="M72.25,64.07l-.36-.3Z"/><path class="cls-2" d="M72.06,74.52c.67,3.1.86,6.27-1.46,8.59a6.76,6.76,0,0,1-5,1.91A16.64,16.64,0,0,1,62,84.56c.19-.29.37-.59.55-.89a14.59,14.59,0,0,0,3,.36,5.72,5.72,0,0,0,4.33-1.62c2-2,1.78-4.81,1.26-7.37l.88-.54h0Z"/><path class="cls-2" d="M72.25,59.24c-.06.34-.13.69-.2,1h0l-.87-.54c.07-.36.14-.71.19-1C71.65,58.87,72,59.05,72.25,59.24Z"/><path class="cls-2" d="M72,70.32c0,.16.08.33.12.49l-.53.41L71,70.43h0a9.19,9.19,0,0,0,.85-.69l.11.45Z"/><path class="cls-2" d="M72.12,67l0-.13S72.1,67,72.12,67Z"/><rect class="cls-2" x="72.04" y="60.27" width="0.01" height="0.01"/><rect class="cls-2" x="72.04" y="74.5" width="0.01" height="0.01"/><path class="cls-2" d="M72,60.28l-.53.84c-.72-.46-1.47-.9-2.22-1.34L67.93,59l.51-.84,1.36.8,1.36.81c0,.11,0,.22-.07.34l.94.2h0Z"/><path class="cls-2" d="M72,74.5h0l-.53-.82.29-.19C71.89,73.82,72,74.16,72,74.5Z"/><path class="cls-2" d="M71.52,73.68l.53.82h0l-.88.54c0-.11,0-.22-.07-.34-.16-.72-.36-1.45-.54-2.16L70.39,72c-.09-.32-.16-.62-.24-.93.3-.2.59-.39.86-.6.12.5.26,1,.39,1.53s.27,1,.39,1.53l-.29.18Z"/><path class="cls-2" d="M72,60.27h0Z"/><path class="cls-2" d="M72,60.27l-.94-.2c0-.11,0-.22.07-.34Z"/><path class="cls-2" d="M71,64.36l1,.24-.11.45C71.61,64.81,71.33,64.58,71,64.36Z"/><path class="cls-2" d="M71.94,61.39l-.43-.28Z"/><path class="cls-2" d="M71.81,73.49l.87-.6C72.39,73.1,72.1,73.3,71.81,73.49Z"/><path class="cls-2" d="M71.81,73.49l-.29.19h0Z"/><path class="cls-2" d="M71.87,65c-.09.36-.17.78-.24,1.18l-.14-.16-.14-.14-.14-.13-.15-.14-.28-.24c.07-.34.15-.69.24-1.05h0C71.33,64.58,71.61,64.81,71.87,65Z"/><path class="cls-2" d="M71.63,68.57c.07.4.15.8.24,1.16a9.19,9.19,0,0,1-.85.69c-.09-.36-.17-.72-.24-1.05A6.89,6.89,0,0,0,71.63,68.57Z"/><path class="cls-2" d="M71.48,66.06l.14.16a6.22,6.22,0,0,0,0,2.35,6.89,6.89,0,0,1-.86.8,10.06,10.06,0,0,1-.24-2,9.88,9.88,0,0,1,.24-2l.28.24.15.14.14.13Z"/><path class="cls-2" d="M71.61,63.56l-.59.79h0a27.81,27.81,0,0,0-2.62-1.68c0-.08,0-.16.07-.25l.09-.33-.86-.25.32-.54.3.17A37.58,37.58,0,0,1,71.61,63.56Z"/><path class="cls-2" d="M71.48,66.06l-.14-.14Z"/><path class="cls-4" d="M71.52,56.68a13.69,13.69,0,0,1-.17,2l-1.06-.62-.8-.47a5.56,5.56,0,0,0-.4-3l1.45-1.45A6,6,0,0,1,71.52,56.68Z"/><path class="cls-2" d="M70.67,51.74l.62.63-.05.05A6.18,6.18,0,0,0,70.67,51.74Z"/><path class="cls-2" d="M71.24,52.42l-.7.7a4.92,4.92,0,0,0-.64-.76,5.69,5.69,0,0,0-.76-.64l.71-.71c.16.12.33.25.49.39l.34.33A6.18,6.18,0,0,1,71.24,52.42Z"/><path class="cls-2" d="M71.21,65.79l-.15-.14Z"/><path class="cls-2" d="M71.35,58.7c-.05.32-.12.67-.19,1l-1.36-.81-1.36-.8,1,.14q0-.32.08-.67l.8.47Z"/><path class="cls-3" d="M71.16,75c.52,2.56.73,5.38-1.26,7.37A5.72,5.72,0,0,1,65.57,84a14.59,14.59,0,0,1-3-.36c.28-.45.54-.91.8-1.36l.26-.45.4.06a10.82,10.82,0,0,0,1.53.13,4.09,4.09,0,0,0,3-1c1.22-1.24,1.1-3.16.9-4.5,0-.14,0-.27-.07-.41l.45-.26Z"/><path class="cls-3" d="M71.09,74.71c0,.11,0,.22.07.34l-1.37.81-.45.26c-.19-1.12-.51-2.33-.8-3.43l-.09-.32c0-.09,0-.18-.07-.27.61-.35,1.2-.71,1.76-1.07.07.31.15.62.24.93l.16.59C70.73,73.26,70.92,74,71.09,74.71Z"/><polygon class="cls-2" points="71.02 64.35 71.02 64.36 71.02 64.35 71.02 64.35"/><path class="cls-2" d="M71,64.36h0Z"/><path class="cls-2" d="M71,70.42h0c-.27.2-.56.4-.86.6,0-.12-.07-.24-.1-.37l0-.11a18.63,18.63,0,0,1-.42-2.17h.92v-1a10.06,10.06,0,0,0,.24,2l-.34.26Z"/><path class="cls-2" d="M71,64.35h0l-.59.78-.53-.37c0-.21.1-.43.16-.66Z"/><path class="cls-2" d="M71,64.35l-1-.24c-.06.23-.11.45-.16.66-.56-.38-1.16-.75-1.76-1.11.07-.32.16-.65.25-1A27.81,27.81,0,0,1,71,64.35Z"/><path class="cls-2" d="M70.43,65.15l.59-.78c-.09.36-.18.72-.24,1.05Z"/><path class="cls-2" d="M71,70.42l-.59-.79.34-.26C70.85,69.71,70.92,70.06,71,70.42Z"/><path class="cls-2" d="M70.43,65.15l.34.27a9.88,9.88,0,0,0-.24,2v-1H69.6a16.07,16.07,0,0,1,.3-1.62Z"/><path class="cls-2" d="M70.54,53.12l-1.45,1.45a3.12,3.12,0,0,0-1.39-1.4l1.44-1.44a5.69,5.69,0,0,1,.76.64A4.92,4.92,0,0,1,70.54,53.12Z"/><path class="cls-2" d="M70.53,67.39v1h-.92a7.75,7.75,0,0,1-.07-1,9.07,9.07,0,0,1,.06-1h.93Z"/><path class="cls-2" d="M69.9,51l.43.44c-.16-.14-.32-.26-.49-.39Z"/><path class="cls-3" d="M70.06,70.66c0,.12.06.24.1.37-.56.36-1.16.72-1.76,1.07a24.51,24.51,0,0,1-.76-3.72h2A18.63,18.63,0,0,0,70,70.55Z"/><path class="cls-2" d="M69.85,51l-.71.71c-1.89-1.3-4.26-1.11-6.61-.62-.17-.3-.36-.59-.55-.89h0C64.78,49.6,67.61,49.38,69.85,51Z"/><path class="cls-4" d="M69.91,64.78a16.07,16.07,0,0,0-.3,1.62h-2a18.32,18.32,0,0,1,.51-2.74C68.74,64,69.35,64.4,69.91,64.78Z"/><path class="cls-2" d="M69.61,68.38h-2a8.61,8.61,0,0,1-.06-1,8.44,8.44,0,0,1,.06-1h2a9.07,9.07,0,0,0-.06,1A7.75,7.75,0,0,0,69.61,68.38Z"/><path class="cls-2" d="M69.09,54.57a5.56,5.56,0,0,1,.4,3l-.55-.32L68.54,57a3.36,3.36,0,0,0-.69-2.53l.66.66Z"/><path class="cls-2" d="M69.49,57.6q0,.36-.08.67l-1-.14h0l.51-.84Z"/><path class="cls-2" d="M69.41,76.52c.2,1.34.32,3.26-.9,4.5a4.09,4.09,0,0,1-3,1A10.82,10.82,0,0,1,64,81.93l-.4-.06.55-.92.84.52.25-.41a2.75,2.75,0,0,0,3.3-3.3l.41-.25-.51-.85.91-.55C69.37,76.25,69.39,76.38,69.41,76.52Z"/><path class="cls-3" d="M69.14,51.73l-1.44,1.44A6.37,6.37,0,0,0,64,52.85l-.4.06-.27-.45c-.26-.45-.53-.9-.81-1.36C64.87,50.62,67.25,50.43,69.14,51.73Z"/><path class="cls-2" d="M69.35,76.11l-.91.55a27.75,27.75,0,0,0-.66-3l.24-.14-.5-.85h0l.3-.18.59-.34c0,.09,0,.18.07.27l.09.32C68.84,73.78,69.16,75,69.35,76.11Z"/><path class="cls-2" d="M69.09,54.57l-.59.59-.66-.66,0,0,0,0-.65-.65.59-.59a3.12,3.12,0,0,1,1.39,1.4Z"/><path class="cls-2" d="M68.94,57.27l-.51.84h0A9.4,9.4,0,0,0,68.54,57Z"/><path class="cls-2" d="M68.43,76.66l.51.85-.41.25A9.51,9.51,0,0,0,68.43,76.66Z"/><path class="cls-2" d="M67.85,54.5A3.36,3.36,0,0,1,68.54,57c-.36-.22-.69-.44-1-.66a1.94,1.94,0,0,0-.43-1.21,1.91,1.91,0,0,0-1.21-.43c-.24-.32-.46-.66-.66-1a3.34,3.34,0,0,1,2.52.69Z"/><path class="cls-2" d="M68.54,62.1l-.09.33c0,.09,0,.17-.07.25l-.59-.34-.3-.18.18-.31Z"/><path class="cls-2" d="M68.54,77.76a2.75,2.75,0,0,1-3.3,3.3c.22-.34.43-.68.66-1a1.92,1.92,0,0,0,1.22-.44,1.9,1.9,0,0,0,.43-1.2C67.87,78.19,68.21,78,68.54,77.76Z"/><path class="cls-2" d="M67.54,56.36c.3.22.64.44,1,.66a9.4,9.4,0,0,1-.11,1.09l-.92-.58A6.09,6.09,0,0,0,67.54,56.36Z"/><path class="cls-2" d="M68.43,76.66a9.51,9.51,0,0,1,.11,1.1c-.33.2-.67.43-1,.66a6.16,6.16,0,0,0,0-1.18Z"/><polygon class="cls-2" points="68.44 58.12 68.44 58.12 68.43 58.12 68.44 58.12"/><path class="cls-2" d="M68.44,58.12l-.51.84-.46-.28q-.48-.3-.93-.61l-.18-.13q-.34-.24-.63-.49l-.2-.17L65.25,57l.7-.7a10,10,0,0,0,1.56,1.22c0,.14,0,.28-.05.43l1,.14Z"/><path class="cls-2" d="M68.43,76.66l-.51-.84-.57.36c-.12-.66-.29-1.36-.47-2l.88-.53A27.75,27.75,0,0,1,68.43,76.66Z"/><path class="cls-2" d="M67.93,75.82l.51.84-.92.58c0-.14,0-.28-.05-.43s-.07-.42-.11-.64Z"/><path class="cls-2" d="M68.43,58.12l-1-.14c0-.15,0-.3.05-.43Z"/><path class="cls-2" d="M68.39,62.67c-.09.34-.18.67-.25,1l-.83-.48-.07,0,.26-1h0l.3.18Z"/><path class="cls-2" d="M68.39,72.1l-.59.34-.3.18a26.71,26.71,0,0,1-.87-4.24h1A24.51,24.51,0,0,0,68.39,72.1Z"/><path class="cls-2" d="M68,61.31l-.32.54-1-.31,0,.1a21.42,21.42,0,0,1-3-2.11,1,1,0,0,0-1.17-1.23,21.32,21.32,0,0,1-1.8-2.66l.07,0,.91-.24,0,.05c.11.19.23.37.35.56.24.38.49.75.74,1.1.11.16.22.31.34.45a10.14,10.14,0,0,0,.77.87,9,9,0,0,0,.91.8l.51.38c.57.41,1.18.8,1.81,1.17l.61.36Z"/><path class="cls-2" d="M67.5,72.63l.5.85-.24.14c-.05-.22-.11-.43-.17-.65Z"/><path class="cls-2" d="M67.46,58.68l.46.28Z"/><path class="cls-2" d="M67.81,54.45l0,0-.09-.09Z"/><path class="cls-2" d="M67.11,53.76l.65.65a3.34,3.34,0,0,0-2.52-.69l-.25-.4-.84.51h0l-.54-.91.4-.06a6.37,6.37,0,0,1,3.69.32Z"/><path class="cls-2" d="M67.31,63.19l.83.48a18.32,18.32,0,0,0-.51,2.74h-1a22.22,22.22,0,0,1,.61-3.26Z"/><path class="cls-2" d="M67.6,73c.06.22.12.43.17.65l-.88.53c-.08-.32-.16-.62-.24-.92l0-.07.88-.53h0Z"/><path class="cls-2" d="M66.65,61.54l1,.31-.18.31-.88-.52Z"/><path class="cls-2" d="M67.08,60.76l.61.36Z"/><path class="cls-2" d="M66.64,66.4h1a8.44,8.44,0,0,0-.06,1,8.61,8.61,0,0,0,.06,1h-1a9.48,9.48,0,0,1-.05-1v0C66.58,67.07,66.6,66.74,66.64,66.4Z"/><path class="cls-2" d="M67.54,56.36a6.09,6.09,0,0,1,0,1.18A10,10,0,0,1,66,56.31l.69-.69.24.22A7.07,7.07,0,0,0,67.54,56.36Z"/><path class="cls-2" d="M67.51,77.24a6.16,6.16,0,0,1,0,1.18,7,7,0,0,0-.9.74,7.14,7.14,0,0,0-.74.9,6.66,6.66,0,0,1-1.18,0,8.1,8.1,0,0,1,2.79-2.8Z"/><path class="cls-2" d="M67.5,62.16h0L67,63l-.34-.2-.3-.18c.06-.24.12-.48.18-.72l0-.14s0-.08,0-.12Z"/><path class="cls-2" d="M67.46,76.81c0,.15,0,.29.05.43A8.1,8.1,0,0,0,64.72,80L64.28,80l-.62-.11a12.44,12.44,0,0,1,1.59-2.1,12.16,12.16,0,0,1,2.1-1.59C67.39,76.39,67.43,76.61,67.46,76.81Z"/><path class="cls-2" d="M67,63l.5-.85-.26,1Z"/><path class="cls-2" d="M67.5,72.62l-.5-.85-.64.37a19.5,19.5,0,0,1-.77-4.76,19.77,19.77,0,0,1,.76-4.76l.3.17L67,63l.24.14a22.22,22.22,0,0,0-.61,3.26h-.05v2h.05A26.71,26.71,0,0,0,67.5,72.62Z"/><path class="cls-2" d="M67,71.77l.5.85-.88.53a1.19,1.19,0,0,0,0-.12l0-.13c-.07-.25-.13-.5-.19-.74Z"/><path class="cls-4" d="M66.89,74.14c.18.68.34,1.37.47,2a12.16,12.16,0,0,0-2.1,1.59,12.44,12.44,0,0,0-1.59,2.1c-.66-.12-1.36-.29-2-.46a16.39,16.39,0,0,1,2.23-3A16.28,16.28,0,0,1,66.89,74.14Z"/><path class="cls-2" d="M66.64,55.62l.24.22-.24-.22-.69.69h0a9.74,9.74,0,0,1-1.22-1.57,7.28,7.28,0,0,1,1.17,0A7.65,7.65,0,0,0,66.64,55.62Z"/><path class="cls-2" d="M66.64,73.22c.08.3.16.61.24.92a16.28,16.28,0,0,0-3,2.24,16.39,16.39,0,0,0-2.23,3l-.89-.24-.1,0a17.61,17.61,0,0,1,2.53-3.47l.22-.2a19.1,19.1,0,0,1,3.26-2.32Z"/><path class="cls-2" d="M66.37,62.63l.3.18-.3-.17Z"/><path class="cls-2" d="M66.58,66.4h.05c0,.34-.05.66-.05,1Z"/><path class="cls-2" d="M66.64,68.38h-.05v-1A9.48,9.48,0,0,0,66.64,68.38Z"/><path class="cls-2" d="M66.62,61.64s0,.09,0,.12l0,.14c-.07.24-.12.49-.18.72l-.86-.51a22.88,22.88,0,0,1-2-1.37c-.18-.14-.36-.29-.53-.45l.36-.36a.92.92,0,0,0,.24-.42A21.42,21.42,0,0,0,66.62,61.64Z"/><path class="cls-2" d="M66.59,73a1.19,1.19,0,0,1,0,.12,19.1,19.1,0,0,0-3.26,2.32h0a1,1,0,0,0,.06-1.33,25.42,25.42,0,0,1,3-2c.06.24.12.49.19.74Z"/><path class="cls-2" d="M66.35,57.94l.18.13Z"/><path class="cls-2" d="M66.37,62.63h0l-.85-.52Z"/><path class="cls-2" d="M66,56.31l-.7.7a12.16,12.16,0,0,1-1.59-2.1l.63-.11.44-.06a9.74,9.74,0,0,0,1.22,1.57Z"/><path class="cls-2" d="M65.9,54.72a7.28,7.28,0,0,0-1.17,0c-.2-.29-.39-.59-.59-.91h0a9.16,9.16,0,0,1,1.09-.11C65.44,54.05,65.66,54.39,65.9,54.72Z"/><path class="cls-2" d="M64.72,80a6.66,6.66,0,0,0,1.18,0c-.23.32-.45.66-.66,1a9.46,9.46,0,0,1-1.09-.11C64.33,80.63,64.53,80.32,64.72,80Z"/><path class="cls-2" d="M65.52,57.27l.2.17A1.68,1.68,0,0,1,65.52,57.27Z"/><path class="cls-2" d="M64.77,59.21l.51.38Z"/><path class="cls-2" d="M65.23,81.06l-.25.41-.84-.52A9.46,9.46,0,0,0,65.23,81.06Z"/><path class="cls-2" d="M65,53.32l.25.4a9.16,9.16,0,0,0-1.09.11Z"/><path class="cls-2" d="M64.73,54.75l-.44.06-.63.11c-.12-.18-.23-.37-.36-.57l.84-.51C64.34,54.16,64.53,54.46,64.73,54.75Z"/><path class="cls-2" d="M64.28,80l.44.06c-.19.29-.39.6-.58.91h0l-.84-.51.36-.57Z"/><path class="cls-2" d="M64.16,53.83h0Z"/><path class="cls-2" d="M64.14,53.83h0l-.84.51c.12.2.24.39.36.57-.64.12-1.32.28-2,.46-.18-.29-.35-.59-.52-.88A27.42,27.42,0,0,1,64.14,53.83Z"/><path class="cls-2" d="M64.14,80.95h0l-.55.92c-1.13-.2-2.33-.51-3.4-.8l-.3-.07-.31-.08.34-.59.18-.3.86.5.14-.24A28,28,0,0,0,64.14,80.95Z"/><path class="cls-2" d="M63.3,80.44l.84.51a28,28,0,0,1-3-.66l.52-.87c.68.17,1.37.34,2,.46Z"/><path class="cls-2" d="M63.6,52.91l.54.91a27.42,27.42,0,0,0-3,.66L61,54.26l-.18-.3-.86.49-.34-.59.27-.07.32-.07C61.43,53.39,62.54,53.09,63.6,52.91Z"/><path class="cls-2" d="M63.36,58.55a1,1,0,0,1,.24,1l-.45-.42a9.58,9.58,0,0,1-.72-.81A1,1,0,0,1,63.36,58.55Z"/><path class="cls-3" d="M63.33,52.46l.27.45c-1.06.18-2.18.47-3.43.81l-.32.07-.27.07c-.35-.61-.71-1.2-1.07-1.75l1-.26.52-.14c.71-.19,1.44-.38,2.16-.54l.34-.07C62.81,51.56,63.07,52,63.33,52.46Z"/><path class="cls-2" d="M63.15,59.1l.45.42a.92.92,0,0,1-.24.42L63,60.3c-.19-.16-.37-.32-.54-.49L62,59.33l0,0c-.12-.13-.23-.27-.34-.41l.33-.33a.91.91,0,0,1,.47-.25A9.58,9.58,0,0,0,63.15,59.1Z"/><path class="cls-3" d="M63.6,81.87l-.26.45c-.26.45-.53.9-.8,1.36l-.34-.07c-.86-.18-1.74-.42-2.5-.62l-1.18-.3c.36-.56.72-1.16,1.08-1.76l.31.08.3.07C61.27,81.36,62.47,81.67,63.6,81.87Z"/><path class="cls-2" d="M63,60.3c.17.16.35.3.53.45-.18-.14-.36-.29-.54-.44Z"/><path class="cls-2" d="M63.41,74.13a1,1,0,0,1-.76,1.62,1,1,0,0,1-.67-.27c.15-.17.31-.34.47-.5A10.91,10.91,0,0,1,63.41,74.13Z"/><path class="cls-2" d="M63.35,74.05l.06.07a10.91,10.91,0,0,0-1,.85c-.16.16-.32.33-.47.5l0,0L60.53,74a1,1,0,1,1,1.39-1.4Z"/><path class="cls-2" d="M63.37,75.47l-.22.2a17.61,17.61,0,0,0-2.53,3.47l-.27-.07-.72-.19A22.21,22.21,0,0,1,62,75.48a1,1,0,0,0,.67.27,1,1,0,0,0,.7-.29Z"/><path class="cls-2" d="M62.74,57.08l.34.45C63,57.39,62.85,57.24,62.74,57.08Z"/><path class="cls-2" d="M63,60.3h0c-.18-.16-.36-.32-.53-.5C62.63,60,62.81,60.14,63,60.3Z"/><path class="cls-2" d="M63,60.31l-1.07,1.06a1,1,0,0,1-1.39,0,1,1,0,0,1,0-1.39l1.09-1.09.35.41,0,0c.14.17.3.33.45.48h0C62.63,60,62.81,60.15,63,60.31Z"/><path class="cls-2" d="M62.81,49.68l-.82.53h0c-.19-.3-.38-.59-.59-.87l.37-.09.67-.14Q62.64,49.4,62.81,49.68Z"/><path class="cls-2" d="M62,84.56l.84.53q-.18.29-.37.57l-.67-.14-.38-.09C61.59,85.15,61.79,84.86,62,84.56Z"/><path class="cls-2" d="M62.19,83.6l.34.07c-.18.3-.36.6-.55.89L61.15,84l-.18.29-1.53-.39-1.53-.39c.2-.27.4-.56.6-.86l1.18.3C60.45,83.18,61.33,83.41,62.19,83.6Z"/><path class="cls-2" d="M62,50.22c.19.3.37.59.55.89l-.34.07c-.72.16-1.45.35-2.16.54l-.52.14-1,.26c-.2-.3-.4-.59-.61-.86h0l1.51-.39L61,50.45l.18.29Z"/><path class="cls-2" d="M62,59.33l.45.48h0C62.3,59.66,62.15,59.5,62,59.33Z"/><path class="cls-2" d="M61.77,85.53l.67.14c-1.62,2.42-3.94,5-7.57,5s-5.95-2.53-7.56-5l.67-.14.37-.09c1.6,2.3,3.59,4.18,6.52,4.18s4.92-1.89,6.52-4.19Z"/><path class="cls-2" d="M62.44,49.11l-.67.14-.37.09c-1.6-2.3-3.59-4.19-6.53-4.19S49.95,47,48.34,49.34L48,49.25l-.66-.14c1.62-2.41,3.94-4.94,7.56-4.94S60.81,46.7,62.44,49.11Z"/><path class="cls-2" d="M62.43,58.29a.91.91,0,0,0-.47.25l-.33.33a1.26,1.26,0,0,1-.12-.14c-.15-.18-.3-.38-.43-.58s-.47-.68-.7-1c-.13-.2-.26-.4-.38-.61l-.37-.61.69-.18.31-.08A21.32,21.32,0,0,0,62.43,58.29Z"/><path class="cls-2" d="M61.65,55.43,62,56C61.88,55.8,61.76,55.62,61.65,55.43Z"/><polygon class="cls-2" points="61.98 50.21 61.98 50.22 61.98 50.21 61.98 50.21"/><path class="cls-2" d="M62,50.21h0l-.83.53L61,50.45Z"/><path class="cls-2" d="M61.15,84l.83.53-1-.24Z"/><path class="cls-2" d="M61.63,58.87c.11.14.22.28.34.41l-.35-.41Z"/><path class="cls-2" d="M61.39,49.34c.2.28.39.57.59.87l-1,.24c-.19-.29-.39-.58-.6-.86Z"/><path class="cls-2" d="M62,84.56c-.19.3-.39.59-.59.88-.35-.08-.69-.16-1-.25.21-.28.41-.58.61-.87Z"/><path class="cls-2" d="M61.51,58.73a1.26,1.26,0,0,0,.12.14h0Z"/><path class="cls-2" d="M61.1,54.49c.17.3.34.59.52.88l-.91.24-.07,0-.53-.88h0l.33-.08Z"/><path class="cls-2" d="M61.08,58.15c.14.2.28.39.43.58C61.36,58.54,61.22,58.35,61.08,58.15Z"/><path class="cls-2" d="M61.62,79.41l-.52.87-.65-.17L60.1,80c.17-.3.34-.59.52-.88l.1,0Z"/><path class="cls-2" d="M61.1,80.28l-.14.24L60.1,80l.34.09Z"/><path class="cls-2" d="M61,54.26l.14.24-.65.17-.33.08Z"/><path class="cls-2" d="M61,54.26l-.84.49h0l-.18-.3.86-.49Z"/><path class="cls-2" d="M61.39,49.34l-1,.25c-1.34-1.85-3.05-3.45-5.5-3.45s-4.15,1.6-5.49,3.45l-1-.26c1.6-2.3,3.59-4.18,6.53-4.18S59.79,47,61.39,49.34Z"/><path class="cls-2" d="M60.37,49.59c.21.28.41.57.6.86l-1.53.39-1.51.39.78-.59c-.12-.16-.26-.34-.41-.52l.72-.19.53-.14Z"/><path class="cls-2" d="M61,84.32c-.19.29-.39.59-.61.87l-1.18-.31-.89-.23.41-.52-.79-.59,1.53.39Z"/><path class="cls-2" d="M60.35,79.07l.27.07c-.18.29-.35.59-.52.88h0l-.84-.49.37-.65Z"/><path class="cls-2" d="M60.63,55.64l-.31.08-.69.18-.18-.3-.2-.35.85-.49Z"/><path class="cls-2" d="M60.36,85.19c.34.09.68.17,1,.25-1.6,2.3-3.58,4.19-6.52,4.19S50,87.75,48.35,85.45l1-.25c1.34,1.85,3,3.45,5.49,3.45S59,87,60.36,85.19Z"/><path class="cls-2" d="M60,56.5c.12.21.25.41.38.61Z"/><path class="cls-4" d="M60.37,49.59l-.84.22-.53.14-.72.19a4.66,4.66,0,0,0-3.42-2,4.67,4.67,0,0,0-3.42,2l-.72-.2-.51-.13-.84-.22c1.34-1.85,3.05-3.45,5.49-3.45S59,47.74,60.37,49.59Z"/><polygon class="cls-2" points="60.11 54.75 60.1 54.76 60.1 54.75 60.11 54.75"/><path class="cls-2" d="M60.1,54.75h0l-.85.49.2.35L59.1,55Z"/><path class="cls-2" d="M59.93,54.45l.18.3-1,.26,0-.06Z"/><path class="cls-2" d="M60.1,80l-.18.3-.34.59a19.46,19.46,0,0,0-4.72-.82,19.52,19.52,0,0,0-4.72.82l-.34-.58.86-.5,0-.07a18.17,18.17,0,0,1,4.24-.66A21.56,21.56,0,0,1,60.1,80Z"/><path class="cls-2" d="M59.26,79.53l.84.49a21.56,21.56,0,0,0-5.23-.92,18.17,18.17,0,0,0-4.24.66l-.14-.24c-.12-.22-.25-.43-.38-.64a19.69,19.69,0,0,1,4.76-.76,20.1,20.1,0,0,1,4.76.76Z"/><path class="cls-2" d="M59.93,54.45l-.86.5,0,.06a17.81,17.81,0,0,1-4.24.67,21.63,21.63,0,0,1-5.24-.93l.18-.3.34-.58a20.24,20.24,0,0,0,4.72.83,19.46,19.46,0,0,0,4.72-.84Z"/><path class="cls-4" d="M59.18,84.88l1.18.31C59,87,57.31,88.65,54.87,88.65S50.72,87,49.38,85.2l1.18-.31.17,0,.72-.2a4.69,4.69,0,0,0,3.41,2,4.69,4.69,0,0,0,3.42-2Z"/><path class="cls-2" d="M59.45,55.6l.18.3a20,20,0,0,1-4.76.77,19.9,19.9,0,0,1-4.76-.77l.38-.65-.86-.5a21.63,21.63,0,0,0,5.24.93A17.81,17.81,0,0,0,59.1,55Z"/><path class="cls-2" d="M58.7,50.66l-.78.59h0a10,10,0,0,0-.69-.84l.45-.11.62-.15C58.44,50.32,58.58,50.49,58.7,50.66Z"/><path class="cls-2" d="M57.91,83.54l.79.59-.41.52-.61-.15-.47-.11A10.45,10.45,0,0,0,57.91,83.54Z"/><path class="cls-3" d="M58.51,52.11c.36.55.72,1.14,1.07,1.75a19.46,19.46,0,0,1-4.72.84,20.24,20.24,0,0,1-4.72-.83c.36-.61.71-1.2,1.08-1.76l.37.09a14,14,0,0,0,3.28.52,13.82,13.82,0,0,0,3.27-.52Z"/><path class="cls-3" d="M59.58,80.92c-.36.61-.72,1.2-1.08,1.76l-.36-.09a13.88,13.88,0,0,0-3.28-.51,13.79,13.79,0,0,0-3.27.51l-.37.09c-.36-.56-.72-1.16-1.08-1.76a19.52,19.52,0,0,1,4.72-.82A19.46,19.46,0,0,1,59.58,80.92Z"/><path class="cls-2" d="M58.51,52.11l-.37.09a13.82,13.82,0,0,1-3.27.52,14,14,0,0,1-3.28-.52l-.37-.09c.2-.3.4-.59.61-.87l.8.59.28-.35a8.12,8.12,0,0,0,3.95,0l.27.35.79-.59C58.11,51.52,58.31,51.81,58.51,52.11Z"/><path class="cls-2" d="M58.15,82.59l.36.09c-.2.3-.39.59-.6.86h0L57.12,83c-.09.12-.18.24-.27.34a8.18,8.18,0,0,0-4,0c-.09-.11-.18-.22-.27-.34l-.78.59h0c-.2-.27-.4-.56-.6-.86l.37-.09a13.79,13.79,0,0,1,3.27-.51A13.88,13.88,0,0,1,58.15,82.59Z"/><path class="cls-2" d="M58.29,50.14l-.62.15-.45.11a3.35,3.35,0,0,0-2.35-1.3,3.37,3.37,0,0,0-2.35,1.3l-.45-.11-.61-.15a4.67,4.67,0,0,1,3.42-2A4.66,4.66,0,0,1,58.29,50.14Z"/><path class="cls-2" d="M57.68,84.5l.61.15a4.69,4.69,0,0,1-3.42,2,4.69,4.69,0,0,1-3.41-2l.62-.15.45-.11a3.33,3.33,0,0,0,2.34,1.3,3.33,3.33,0,0,0,2.34-1.3Z"/><path class="cls-2" d="M57.92,51.24h0Z"/><path class="cls-2" d="M57.91,51.24h0l-.79.59-.27-.35Z"/><path class="cls-2" d="M57.9,83.54h0a10.45,10.45,0,0,1-.7.85c-.36-.09-.77-.17-1.17-.24a6.07,6.07,0,0,0,.81-.86Z"/><path class="cls-2" d="M57.12,83l.78.59-1.05-.24C56.94,83.19,57,83.07,57.12,83Z"/><path class="cls-2" d="M57.22,50.4a10,10,0,0,1,.69.84l-1.06.24a6.37,6.37,0,0,0-.81-.85C56.45,50.57,56.85,50.49,57.22,50.4Z"/><path class="cls-2" d="M54.87,49.1a3.35,3.35,0,0,1,2.35,1.3c-.36.09-.77.17-1.18.24a1.52,1.52,0,0,0-2.34,0c-.41-.07-.82-.15-1.19-.24A3.37,3.37,0,0,1,54.87,49.1Z"/><path class="cls-2" d="M57.21,84.39a3.33,3.33,0,0,1-2.34,1.3,3.33,3.33,0,0,1-2.34-1.3c.36-.09.77-.17,1.18-.23a1.85,1.85,0,0,0,1.16.55A1.83,1.83,0,0,0,56,84.15h0C56.44,84.22,56.85,84.3,57.21,84.39Z"/><path class="cls-2" d="M56.85,83.3a6.07,6.07,0,0,1-.81.86h0A8.4,8.4,0,0,0,54.87,84a7.47,7.47,0,0,0-1.16.11,6.58,6.58,0,0,1-.82-.86,8.18,8.18,0,0,1,4,0Z"/><path class="cls-2" d="M56,50.64a6.37,6.37,0,0,1,.81.85,8.12,8.12,0,0,1-3.95,0,6,6,0,0,1,.8-.85,6.15,6.15,0,0,0,2.34,0Z"/><path class="cls-2" d="M53.7,50.64a6,6,0,0,0-.8.85c-.34-.07-.7-.15-1.07-.24.22-.3.45-.59.68-.84C52.88,50.49,53.3,50.57,53.7,50.64Z"/><path class="cls-2" d="M52.89,83.3a6.58,6.58,0,0,0,.82.86c-.41.06-.82.14-1.18.23a10.45,10.45,0,0,1-.7-.85h0Z"/><path class="cls-2" d="M52.9,51.49l-.28.35-.8-.59C52.2,51.33,52.56,51.42,52.9,51.49Z"/><path class="cls-2" d="M52.62,83c.09.12.18.24.27.34l-1.05.24Z"/><path class="cls-2" d="M52.53,84.39l-.45.11-.62.15c-.15-.18-.29-.36-.41-.52l.79-.59A10.45,10.45,0,0,0,52.53,84.39Z"/><path class="cls-2" d="M52.06,50.29l.45.11c-.23.26-.46.54-.68.84L51,50.66c.12-.16.26-.34.41-.52Z"/><path class="cls-2" d="M51.83,83.54l-.79.59c.12.16.26.34.41.52l-.72.2-.17,0-1.18.31c-.21-.29-.41-.58-.61-.87l1.53-.39Z"/><path class="cls-2" d="M51,50.66l.79.59-1.53-.39-1.53-.39c.2-.29.39-.58.6-.86l.84.22.51.13.72.2C51.3,50.32,51.16,50.49,51,50.66Z"/><path class="cls-2" d="M51.83,51.24c-.2.28-.41.57-.61.87l-1-.26-.5-.13c-.7-.18-1.44-.38-2.16-.54l-.34-.07c.17-.3.36-.6.55-.89l.84.53.18-.29,1.53.39Z"/><path class="cls-2" d="M51.23,82.68c.2.3.39.59.6.86l-1.53.39-1.53.39L48.59,84l-.82.53h0c-.19-.29-.37-.59-.55-.89l.34-.07c.86-.19,1.73-.42,2.51-.62l.16,0Z"/><path class="cls-3" d="M50.21,51.85l1,.26c-.37.55-.72,1.15-1.08,1.76l-.3-.08-.3-.07c-1.24-.34-2.36-.62-3.41-.8l.27-.45c.26-.45.53-.9.81-1.36l.34.07c.72.16,1.46.36,2.16.54Z"/><path class="cls-3" d="M51.23,82.68l-1,.26-.16,0c-.78.2-1.65.43-2.51.62l-.34.07c-.28-.45-.55-.91-.81-1.36l-.26-.45c1.13-.2,2.34-.51,3.43-.81l.32-.07.27-.07C50.51,81.52,50.87,82.12,51.23,82.68Z"/><path class="cls-2" d="M50.63,79.77l0,.07-.86.5h0l-.18-.3h0Z"/><path class="cls-2" d="M50.49,79.53l.14.24-1,.25Z"/><path class="cls-2" d="M50.11,78.89c.13.21.26.43.38.64l-.84.49h0c-.17-.3-.34-.59-.52-.88l.31-.08Z"/><path class="cls-2" d="M49.63,54.75l.86.5-.38.65-.72-.19-.28-.07Z"/><path class="cls-2" d="M50.15,80.92l-.27.07-.32.07c-1.09.3-2.3.61-3.43.81l-.55-.92h0a28,28,0,0,0,3-.66h0l.14.24.18.3.85-.49Z"/><path class="cls-2" d="M49.85,53.79l.3.08-.34.58-.18.3h0l-.84-.49-.14.24a27.85,27.85,0,0,0-3.05-.66l.54-.91c1.05.18,2.18.47,3.41.8Z"/><path class="cls-2" d="M50.11,78.89l-.68.18-.31.08c-.24-.41-.49-.82-.75-1.2V77h-.69c-.14-.19-.28-.38-.43-.56a.89.89,0,0,0,.38-.23l.39-.39a18.3,18.3,0,0,1,1.49,2.1C49.7,78.21,49.91,78.55,50.11,78.89Z"/><path class="cls-2" d="M49.38,55.71l.72.19a19.93,19.93,0,0,1-2.74,3.82l-.45-.45a.94.94,0,0,0-.29-.2,17.76,17.76,0,0,0,2.48-3.43Z"/><path class="cls-2" d="M49.5,77.88c.21.34.41.66.61,1C49.91,78.55,49.7,78.21,49.5,77.88Z"/><path class="cls-2" d="M49.81,80.33h0l-.85.49-.18-.3.85-.49Z"/><path class="cls-2" d="M49.65,80h0Z"/><path class="cls-2" d="M49.63,80h0l-.85.49-.14-.24.64-.17Z"/><path class="cls-2" d="M49.63,54.75h0l-.53.89-.09,0-.89-.24.53-.88.64.17Z"/><path class="cls-2" d="M49.63,80l-.34.09-.64.17,0-.07-.17-.28-.32-.53.92-.24.07,0C49.29,79.44,49.46,79.73,49.63,80Z"/><path class="cls-2" d="M48.78,54.26l.84.49-.34-.09-.64-.17Z"/><path class="cls-2" d="M49.05,73.35a1,1,0,0,1,0,1.39l-1,1a4.21,4.21,0,0,0-.28-.32c-.14-.16-.3-.33-.45-.48s-.43-.41-.66-.61l1-1A1,1,0,0,1,49.05,73.35Z"/><path class="cls-2" d="M49.11,79.15l-.07,0-.92.24,0,0c-.09-.14-.17-.29-.26-.43h.54v-1C48.62,78.33,48.87,78.74,49.11,79.15Z"/><path class="cls-2" d="M48.34,49.34l1,.26c-.2.28-.4.57-.6.86l-1-.24C47.95,49.91,48.14,49.62,48.34,49.34Z"/><path class="cls-2" d="M49,55.61l.09,0a17.76,17.76,0,0,1-2.48,3.43,1,1,0,0,0-1.11.19,1,1,0,0,0-.24,1c-.67.5-1.41,1-2.16,1.42l0-.07,0-.08-.22-.85a16.09,16.09,0,0,0,3-2.24,16.39,16.39,0,0,0,2.23-3Z"/><path class="cls-2" d="M48.78,84.32c.19.3.39.59.61.87l-1,.25c-.2-.28-.4-.58-.59-.87h0Z"/><path class="cls-2" d="M48.78,50.45l-.18.29-.84-.53Z"/><path class="cls-2" d="M48.78,84.32l-1,.24.82-.53Z"/><path class="cls-2" d="M48.61,80.22l0,.07h0Z"/><path class="cls-2" d="M48.61,80.22l0,.07a28,28,0,0,1-3,.66l.84-.51c-.12-.19-.23-.38-.36-.57.66-.12,1.36-.29,2-.47h0l.32.53Z"/><path class="cls-2" d="M48.34,60.69a1,1,0,0,1-.7,1.68,1,1,0,0,1-.7-.3L45.87,61a11.92,11.92,0,0,0,1.41-1.2l.09-.09Z"/><path class="cls-2" d="M48.65,54.49l-.53.88c-.72-.18-1.39-.34-2-.46l.36-.57-.85-.51A27.85,27.85,0,0,1,48.65,54.49Z"/><path class="cls-2" d="M48.44,79.94l-.32-.53Z"/><path class="cls-2" d="M48.36,77.94v1h-.54a.9.9,0,0,0-.09-.13c-.11-.18-.23-.37-.35-.54s-.32-.47-.49-.69l-.24-.32c-.08-.1-.15-.2-.24-.29h1.26Q48,77.43,48.36,77.94Z"/><path class="cls-2" d="M48.36,77v1q-.33-.51-.69-1Z"/><path class="cls-2" d="M48.35,85.45l-.37.09-.67.14q-.2-.29-.37-.57l.83-.53C47.95,84.87,48.15,85.16,48.35,85.45Z"/><path class="cls-2" d="M48,49.25l.37.09c-.2.29-.39.58-.59.87l-.83-.53q.18-.29.37-.57Z"/><path class="cls-2" d="M48.09,79.36l0,0h0Z"/><path class="cls-4" d="M48.09,79.36l0,0c-.68.18-1.37.35-2,.47-.2-.32-.41-.64-.62-.94h2.37Z"/><path class="cls-2" d="M48.09,79.36l-.26-.43C47.92,79.07,48,79.21,48.09,79.36Z"/><path class="cls-2" d="M48,75.78l-.39.39a.89.89,0,0,1-.38.23c-.21-.26-.43-.5-.65-.72s-.38-.36-.59-.53a.92.92,0,0,1,.22-.37l.39-.39c.23.19.45.39.66.61s.3.32.45.48Z"/><path class="cls-2" d="M48,75.78l-.28-.32A4.21,4.21,0,0,1,48,75.78Z"/><path class="cls-2" d="M47.74,78.8a.9.9,0,0,1,.09.13h0Z"/><path class="cls-2" d="M47.74,78.8l.08.13H45.46a8.55,8.55,0,0,0-1-1.16h0a5,5,0,0,0-.39-.35,4.75,4.75,0,0,0-.39-.33L43.54,77h2.87c.09.09.16.19.24.29l.24.32q.26.34.49.69Z"/><path class="cls-2" d="M47.77,84.57h0Z"/><path class="cls-2" d="M47.76,84.57h0l-.83.53q.18.29.37.57c-2.86.55-6.3.7-8.86-1.85S36,77.82,36.59,75l.57.37.32.2a11.92,11.92,0,0,0-.12,4.08l-.15,1,.41.06a6.19,6.19,0,0,0,1.52,2.45C41.48,85.45,44.65,85.24,47.76,84.57Z"/><path class="cls-2" d="M47.21,83.68c.18.3.36.6.55.89-3.11.68-6.28.88-8.62-1.45a6.19,6.19,0,0,1-1.52-2.45l1.14.18a5.09,5.09,0,0,0,1.08,1.57C41.82,84.4,44.53,84.23,47.21,83.68Z"/><path class="cls-2" d="M47.76,50.21c-.19.3-.37.59-.55.89-2.68-.55-5.39-.72-7.37,1.26s-1.78,4.81-1.25,7.36l-.89.55h0c-.68-3.11-.88-6.28,1.45-8.61S44.65,49.53,47.76,50.21Z"/><path class="cls-2" d="M46.93,49.68l.83.53c-3.11-.68-6.28-.88-8.62,1.45s-2.13,5.5-1.45,8.61l-.53-.82h0l-.57.37C36,57,35.88,53.54,38.44,51s6-2.41,8.86-1.86Q47.11,49.4,46.93,49.68Z"/><path class="cls-2" d="M47.74,78.8l-.35-.54C47.51,78.43,47.63,78.61,47.74,78.8Z"/><path class="cls-2" d="M47.67,77H46.42c-.17-.2-.35-.4-.53-.58a10,10,0,0,0-.91-.8l-.41-.31c-.37-.28-.78-.54-1.18-.8l-.55-.34-1.1-.65.5-.85h0A25.93,25.93,0,0,1,46,75.14a1,1,0,0,0,.92,1.32.87.87,0,0,0,.32-.06C47.39,76.57,47.53,76.76,47.67,77Z"/><path class="cls-2" d="M47.37,59.71l-.09.09A11.92,11.92,0,0,1,45.87,61l-.36-.36a.93.93,0,0,1-.24-.43,11,11,0,0,0,1.32-1.11l0,0a.94.94,0,0,1,.29.2Z"/><path class="cls-2" d="M47.24,76.4a.87.87,0,0,1-.32.06A1,1,0,0,1,46,75.14c.2.17.4.35.59.53S47,76.14,47.24,76.4Z"/><path class="cls-3" d="M47.21,51.1c-.28.45-.55.91-.81,1.36l-.27.45-.39-.06c-1.34-.2-3.27-.32-4.5.9-.93.93-1.22,2.41-.9,4.51,0,.13,0,.26.07.39l-.46.27c-.45.26-.9.53-1.36.81-.53-2.55-.73-5.37,1.25-7.36S44.53,50.55,47.21,51.1Z"/><path class="cls-3" d="M46.4,82.32c.26.45.53.91.81,1.36-2.68.55-5.39.72-7.37-1.26a5.09,5.09,0,0,1-1.08-1.57l2.74.41c1.23,1,3,.86,4.23.67l.41-.06Z"/><path class="cls-2" d="M46.9,77.57l-.24-.32Z"/><path class="cls-2" d="M46.63,59.06l0,0a11,11,0,0,1-1.32,1.11,1,1,0,0,1,.24-1A1,1,0,0,1,46.63,59.06Z"/><path class="cls-2" d="M46.62,74.37l-.39.39a.92.92,0,0,0-.22.37,25.93,25.93,0,0,0-3.76-2.51l.94.25c.07-.24.12-.49.18-.72l.36.21.5.3A18.86,18.86,0,0,1,46.62,74.37Z"/><path class="cls-2" d="M45.59,53.83l.85.51-.36.57-.63-.11L45,54.75C45.21,54.46,45.4,54.15,45.59,53.83Z"/><path class="cls-2" d="M46.44,80.44l-.84.51h0c-.19-.32-.39-.62-.58-.91l.43-.06.63-.11C46.21,80.05,46.32,80.24,46.44,80.44Z"/><path class="cls-3" d="M46.42,77H43.53c-.21-.16-.43-.32-.66-.47l-.17-.11c-.3-.2-.6-.39-.89-.56L40.44,75c-.75-.43-1.5-.87-2.22-1.34l-.41-.26c-.37-.24-.73-.49-1.07-.76l-.45-.36a8.5,8.5,0,0,1-.76-.69l-.22-.23a5.93,5.93,0,0,1-.56-.67l-.14-.2a4.14,4.14,0,0,1-.27-.42c-.08-.14-.16-.29-.22-.43a5.17,5.17,0,0,1-.39-1.19c0-.09,0-.16,0-.24s0-.32,0-.48,0-.22,0-.34a5.46,5.46,0,0,1,0-.66h2a3.16,3.16,0,0,0-.07.66,2.57,2.57,0,0,0,0,.32,1.78,1.78,0,0,0,0,.27,3.44,3.44,0,0,0,.34,1,4.31,4.31,0,0,0,.53.8l.16.19a5.7,5.7,0,0,0,.76.74,3,3,0,0,0,.28.24l.41.32a36,36,0,0,0,3.3,2.09l.3.17,1.1.65.55.34c.41.26.81.52,1.18.8l.41.31a10,10,0,0,1,.91.8C46.07,76.55,46.24,76.75,46.42,77Z"/><path class="cls-4" d="M48.12,55.37a16.39,16.39,0,0,1-2.23,3,16.09,16.09,0,0,1-3,2.24c-.18-.69-.34-1.38-.47-2A11.91,11.91,0,0,0,44.49,57a12.79,12.79,0,0,0,1.59-2.1C46.72,55,47.4,55.19,48.12,55.37Z"/><path class="cls-2" d="M46.14,81.87l-.41.06c-1.24.18-3,.3-4.23-.67l.28,0,.15-1a3.29,3.29,0,0,0,2.56.73l.26.41.84-.52Z"/><path class="cls-2" d="M45.74,52.85l.39.06-.54.91-.84-.51-.24.4a3.32,3.32,0,0,0-2.57.73A3.33,3.33,0,0,0,41.2,57l-.39.24.51.84-.91.53c0-.13,0-.26-.07-.39-.32-2.1,0-3.57.9-4.51C42.47,52.53,44.4,52.66,45.74,52.85Z"/><path class="cls-2" d="M46.08,79.87l-.63.11L45,80a12.36,12.36,0,0,0-.8-1.11h1.24C45.67,79.23,45.88,79.55,46.08,79.87Z"/><path class="cls-2" d="M45.51,60.65l.36.36a29.44,29.44,0,0,1-2.49,1.63c-.06-.24-.12-.49-.19-.74l0-.12,0-.13c.75-.45,1.49-.92,2.16-1.42A.93.93,0,0,0,45.51,60.65Z"/><path class="cls-2" d="M45.46,54.81l.63.11A12.79,12.79,0,0,1,44.49,57a11.91,11.91,0,0,1-2.1,1.59c0-.22-.07-.43-.11-.64s0-.3-.06-.43a10.13,10.13,0,0,0,1.57-1.22A9.73,9.73,0,0,0,45,54.75Z"/><path class="cls-2" d="M45.59,80.95l-.84.52-.26-.41A9.51,9.51,0,0,0,45.59,80.95Z"/><path class="cls-2" d="M44.75,53.32l.84.51a9.16,9.16,0,0,0-1.09-.11Z"/><path class="cls-2" d="M45.46,78.93H44.22a4.8,4.8,0,0,0-.42-.46l.7-.7A8.55,8.55,0,0,1,45.46,78.93Z"/><path class="cls-2" d="M45.59,53.83c-.2.32-.39.63-.59.92a6.53,6.53,0,0,0-1.16,0c.23-.32.45-.66.66-1A9.16,9.16,0,0,1,45.59,53.83Z"/><path class="cls-2" d="M45,80c.19.29.39.6.58.91a9.51,9.51,0,0,1-1.1.11c-.21-.34-.43-.68-.65-1A7.28,7.28,0,0,0,45,80Z"/><path class="cls-2" d="M45,75.57l-.41-.31Z"/><path class="cls-2" d="M41.94,54.45a3.32,3.32,0,0,1,2.57-.73c-.21.34-.43.68-.66,1a1.52,1.52,0,0,0-1.65,1.65c-.32.24-.66.46-1,.66A3.33,3.33,0,0,1,41.94,54.45Z"/><path class="cls-2" d="M43.84,54.72a6.53,6.53,0,0,1,1.16,0,9.73,9.73,0,0,1-1.21,1.57,10.13,10.13,0,0,1-1.57,1.22,6.59,6.59,0,0,1,0-1.17,6.72,6.72,0,0,0,.91-.75A7.14,7.14,0,0,0,43.84,54.72Z"/><path class="cls-2" d="M44.49,77.76h0a5.08,5.08,0,0,0-.39-.36A5,5,0,0,1,44.49,77.76Z"/><path class="cls-2" d="M44.49,77.77l-.7.7h0a6,6,0,0,0-.6-.53V77h.34l.17.13.39.33A5.08,5.08,0,0,1,44.49,77.77Z"/><path class="cls-2" d="M45,80a7.28,7.28,0,0,1-1.17,0,6.31,6.31,0,0,0-.74-.9l.24-.24h.88A12.36,12.36,0,0,1,45,80Z"/><path class="cls-2" d="M44.49,81.05a3.29,3.29,0,0,1-2.56-.73l.14-1-.74-.11a4.61,4.61,0,0,1-.14-1.48l.2.12c.28.18.55.36.8.54h0a1.87,1.87,0,0,0,.44,1.2,1.89,1.89,0,0,0,1.21.44C44.07,80.37,44.28,80.71,44.49,81.05Z"/><path class="cls-2" d="M44.23,72.67l-.5-.3Z"/><path class="cls-2" d="M44.22,78.93h-.88l.46-.46A4.8,4.8,0,0,1,44.22,78.93Z"/><path class="cls-2" d="M44.11,77.42l-.39-.33A4.75,4.75,0,0,1,44.11,77.42Z"/><path class="cls-2" d="M43.8,78.46h0l-.46.46H43.2v-1A6,6,0,0,1,43.8,78.46Z"/><path class="cls-2" d="M43.38,72.15l.35.22-.36-.21Z"/><path class="cls-2" d="M43.38,62.64a20,20,0,0,1,.76,4.76,19.74,19.74,0,0,1-.76,4.76l-.3-.17-.34-.2-.24-.14A26,26,0,0,0,43,69l.39-.92L43.13,68c0-.2,0-.39,0-.59a21.56,21.56,0,0,0-.92-5.23l.5.85Z"/><path class="cls-2" d="M43.53,77H43.2v1a10.56,10.56,0,0,0-1-.69q0-.21.06-.43l-1-.14h0l.51-.84.89.56.17.11Z"/><path class="cls-2" d="M43.41,68.1,43,69a9.63,9.63,0,0,0,.11-1Z"/><path class="cls-2" d="M43.38,74.47l-.55-.34Z"/><path class="cls-2" d="M43.38,72.15h0l-.3-.18Z"/><path class="cls-2" d="M43.19,61.89c.07.25.13.5.19.74l-.64.37-.5-.85h0l.88-.52,0,.13Z"/><path class="cls-2" d="M43.37,72.15c-.06.24-.12.48-.18.72l-.94-.25h0l.5-.85.34.2Z"/><path class="cls-2" d="M43.34,78.93l-.24.24L42.94,79l-.14-.13c-.18-.16-.37-.31-.59-.47h0a6.59,6.59,0,0,1,0-1.17,10.56,10.56,0,0,1,1,.69v1Z"/><path class="cls-2" d="M42.88,76.49c.22.14.45.3.66.47Z"/><path class="cls-2" d="M43.15,67.39c0,.19,0,.39,0,.59l-1-.41a1.6,1.6,0,0,0,0-.18,19.24,19.24,0,0,0-.82-4.72l.59-.34.3-.18h0A21.56,21.56,0,0,1,43.15,67.39Z"/><path class="cls-2" d="M42.16,67.57l1,.41A9.63,9.63,0,0,1,43,69l-.37.89-.72-.3A12,12,0,0,0,42.16,67.57Z"/><path class="cls-2" d="M43.09,61.57l0,.07-.88.52c0-.12-.06-.23-.09-.34L42,61.17l.89-.53.22.85Z"/><path class="cls-2" d="M42.65,69.91,43,69a26,26,0,0,1-.53,2.62l-.07,0-.82-.48c.12-.51.24-1,.33-1.51Z"/><path class="cls-2" d="M42.94,79l-.14-.13Z"/><path class="cls-2" d="M42.73,71.77l-.5.85.26-1Z"/><path class="cls-2" d="M42.42,71.59l.07,0-.26,1-.3-.18-.58-.34c.09-.34.17-.66.25-1Z"/><path class="cls-2" d="M42.39,58.61c.12.65.29,1.34.47,2l-.89.53a29.38,29.38,0,0,1-.66-3.05l.51.85Z"/><path class="cls-2" d="M42.28,58c0,.2.07.42.11.64l-.57.36-.51-.85c.32-.19.62-.39.91-.58Q42.25,57.74,42.28,58Z"/><path class="cls-2" d="M41.31,76.67l1,.14q0,.23-.06.43C41.94,77,41.63,76.86,41.31,76.67Z"/><path class="cls-2" d="M42.25,72.63h0Z"/><path class="cls-2" d="M42.23,72.62h0l-.5.85-.3-.17a36,36,0,0,1-3.3-2.09l.59-.8h0a26.54,26.54,0,0,0,2.62,1.67c0,.09,0,.18-.07.27Z"/><path class="cls-2" d="M42.14,61.81c0,.11.06.22.09.34l-.5-.85.24-.14Z"/><path class="cls-2" d="M42.23,62.16l-.3.18-.59.34c0-.09,0-.17-.07-.26L41.17,62c-.29-1.11-.59-2.26-.76-3.34l.91-.53A29.38,29.38,0,0,0,42,61.17l-.24.14Z"/><path class="cls-2" d="M42.23,72.62l-1-.25c0-.09,0-.18.07-.27l.58.34Z"/><path class="cls-2" d="M42.21,78.42h0Z"/><path class="cls-2" d="M42.19,78.42c-.24-.18-.51-.36-.8-.54l-.2-.12a9.19,9.19,0,0,1,.11-1.08h0c.32.19.62.38.91.58A6.59,6.59,0,0,0,42.19,78.42Z"/><path class="cls-2" d="M42.19,56.37a6.59,6.59,0,0,0,0,1.17c-.29.19-.59.39-.91.58A9.35,9.35,0,0,1,41.2,57C41.53,56.83,41.87,56.6,42.19,56.37Z"/><path class="cls-3" d="M42.17,67.39a1.6,1.6,0,0,1,0,.18l-2-.85a17.22,17.22,0,0,0-.48-2.6c0-.12-.06-.25-.09-.37.55-.36,1.15-.72,1.76-1.07A19.24,19.24,0,0,1,42.17,67.39Z"/><path class="cls-2" d="M41.82,75.82c.29.17.59.36.89.56Z"/><path class="cls-2" d="M40.16,66.72l2,.85a12,12,0,0,1-.23,2l-1.86-.78a9.26,9.26,0,0,0,.12-1.43C40.19,67.18,40.18,67,40.16,66.72Z"/><path class="cls-2" d="M42.08,79.35l-.14,1a2.35,2.35,0,0,1-.6-1.09Z"/><path class="cls-2" d="M41.94,80.32l-.15,1-.28,0a2.13,2.13,0,0,1-.26-.23,3.56,3.56,0,0,1-1-2l1.05.16A2.35,2.35,0,0,0,41.94,80.32Z"/><path class="cls-4" d="M40.07,68.83l1.86.78c-.09.49-.2,1-.33,1.51-.6-.36-1.2-.72-1.76-1.11C39.94,69.58,40,69.19,40.07,68.83Z"/><path class="cls-2" d="M41.82,75.82l-.51.84h0c-.43-.27-.89-.53-1.36-.8h0l.49-.85Z"/><path class="cls-2" d="M41.5,81.26l-2.74-.41a6.26,6.26,0,0,1-.51-2.08l2,.31a3.56,3.56,0,0,0,1,2A2.13,2.13,0,0,0,41.5,81.26Z"/><path class="cls-2" d="M41.6,71.11c-.08.32-.16.65-.25,1a26.54,26.54,0,0,1-2.62-1.67l1,.24c.06-.23.11-.45.16-.66C40.4,70.39,41,70.76,41.6,71.11Z"/><path class="cls-2" d="M41.4,77.88l-.2-.12h0Z"/><path class="cls-3" d="M41.28,62.41c0,.09,0,.18.07.26-.61.36-1.2.71-1.76,1.07-.07-.28-.14-.56-.22-.85l-.16-.61c-.19-.72-.39-1.47-.55-2.22,0-.11-.05-.23-.07-.34.45-.28.91-.55,1.36-.81l.46-.27c.17,1.08.47,2.23.76,3.34Z"/><path class="cls-2" d="M41.34,79.24l-1.05-.16a7.06,7.06,0,0,1,0-1.89l.55.33.4.24h0A4.61,4.61,0,0,0,41.34,79.24Z"/><path class="cls-2" d="M41.31,58.12l-.51-.84L41.2,57A9.35,9.35,0,0,0,41.31,58.12Z"/><polygon class="cls-2" points="41.31 76.66 41.31 76.67 41.3 76.66 41.31 76.66"/><path class="cls-2" d="M41.31,76.67h0Z"/><path class="cls-2" d="M41.3,76.66h0l-.51.84-.55-.33c0-.23.05-.45.09-.66Z"/><path class="cls-2" d="M41.3,76.66l-1-.14c0,.21-.07.43-.09.66l-.79-.46.24-.43.25-.43C40.42,76.13,40.87,76.39,41.3,76.66Z"/><path class="cls-2" d="M40.8,77.51l.51-.84a9.19,9.19,0,0,0-.11,1.08Z"/><path class="cls-2" d="M40.44,75l-.49.85h0l-1.36-.8c0-.12,0-.23.07-.34l-1-.21h0l.53-.83C38.94,74.13,39.69,74.57,40.44,75Z"/><path class="cls-4" d="M40.29,79.07l-2-.31a11.09,11.09,0,0,1,.14-2.67l1.05.62.25-.42-.24.43.79.46A7.06,7.06,0,0,0,40.29,79.07Z"/><path class="cls-2" d="M40.16,66.72c0,.24,0,.46,0,.67a9.26,9.26,0,0,1-.12,1.43l-.94-.39h0a7.29,7.29,0,0,0,.08-1h0l.39-.91Z"/><path class="cls-2" d="M40.16,66.72l-.57-.24-.39.91a9.76,9.76,0,0,0-.24-2l.35-.28-.59-.8c.27-.2.57-.4.87-.61,0,.12.07.25.09.37A17.22,17.22,0,0,1,40.16,66.72Z"/><path class="cls-2" d="M39.13,68.43l.94.39c-.06.36-.13.75-.23,1.18l-.66-.47h0L39,69.4l0,0h0C39,69,39.09,68.73,39.13,68.43Z"/><path class="cls-2" d="M39.95,75.86l-.25.43-.25.42-1.05-.62c.05-.35.12-.69.19-1l1.36.8h0Z"/><path class="cls-2" d="M39.84,70c0,.21-.1.43-.16.66l-1-.24h0l.59-.79-.12-.1Z"/><path class="cls-2" d="M39.36,62.9c.08.29.15.57.22.85-.3.2-.6.4-.87.61-.12-.49-.26-1-.39-1.53s-.26-1-.39-1.51l.29-.19h0l-.53-.83.89-.55c0,.11,0,.23.07.34.16.74.36,1.49.55,2.22Z"/><path class="cls-2" d="M38.72,64.35l.59.8-.35.28C38.9,65.08,38.81,64.72,38.72,64.35Z"/><path class="cls-2" d="M39.31,69.63l-.59.79c.09-.36.17-.72.24-1.05l0,0,.16.13h0Z"/><path class="cls-2" d="M39.21,67.39h0l-.38.9.3.12h0c0,.3-.1.61-.16.93l-.07,0-.06-.05c-.16-.13-.31-.27-.45-.4l-.28-.3a7.63,7.63,0,0,0,.11-1.18,8.4,8.4,0,0,0-.11-1.16,6,6,0,0,1,.85-.8A9.76,9.76,0,0,1,39.21,67.39Z"/><path class="cls-2" d="M38.82,68.3l.38-.9a7.29,7.29,0,0,1-.08,1Z"/><path class="cls-2" d="M39,69.4l.16.13Z"/><path class="cls-2" d="M39,69.36h0l-.07-.05Z"/><path class="cls-2" d="M38.9,69.32l.07.05c-.07.34-.15.69-.24,1.05a10,10,0,0,1-.84-.69c.09-.36.16-.76.23-1.16l.28.3c.13.13.28.26.45.4Z"/><path class="cls-2" d="M38.72,64.35c.09.37.18.72.24,1.07a6,6,0,0,0-.85.8c-.07-.4-.15-.8-.24-1.18Q38.26,64.7,38.72,64.35Z"/><path class="cls-2" d="M38.76,80.84l-1.14-.18a5.58,5.58,0,0,1-.26-1l.14-1,.74.11A6.26,6.26,0,0,0,38.76,80.84Z"/><path class="cls-2" d="M38.72,70.42l-.59.8-.41-.32-.28-.24a8.06,8.06,0,0,1-.76-.74l-.16-.19a4.94,4.94,0,0,1-.53-.8,3.44,3.44,0,0,1-.34-1,1.78,1.78,0,0,1,0-.27,2.57,2.57,0,0,1,0-.32h1a3.32,3.32,0,0,0,1.3,2.34l-.11.45Z"/><path class="cls-2" d="M38.72,64.35l-.59-.79c-.17.12-.35.26-.53.41,0-.19-.1-.38-.15-.58l-.16-.61c-.08-.29-.16-.59-.23-.88h0l.31-.22.56-.37c.12.51.26,1,.39,1.51S38.6,63.86,38.72,64.35Z"/><path class="cls-2" d="M38.13,63.56l.59.79q-.46.35-.85.69c0-.15-.07-.3-.11-.45L37.61,64C37.79,63.83,38,63.69,38.13,63.56Z"/><path class="cls-2" d="M38.72,70.42l-1-.24.11-.45A10,10,0,0,0,38.72,70.42Z"/><path class="cls-2" d="M38.66,74.72c0,.11-.05.22-.07.34l-.89-.55Z"/><path class="cls-2" d="M38.84,69.27c-.16-.14-.32-.27-.45-.4C38.53,69,38.68,69.13,38.84,69.27Z"/><path class="cls-2" d="M38.59,75.06c-.07.34-.14.68-.19,1l-.91-.55c.07-.34.13-.68.21-1h0Z"/><path class="cls-2" d="M38.25,78.76l-.74-.11-.14,1a11.92,11.92,0,0,1,.12-4.08l.91.55A11.09,11.09,0,0,0,38.25,78.76Z"/><path class="cls-2" d="M38.23,61.11h0l-.29.19h0Z"/><path class="cls-2" d="M38.23,73.67l-.53.83h0c-2.68-1.71-5.06-3.82-5.06-7.11,0-.23,0-.45,0-.66h1a5.46,5.46,0,0,0,0,.66c0,.11,0,.22,0,.34s0,.33,0,.48,0,.16,0,.24a5.17,5.17,0,0,0,.39,1.19,3.38,3.38,0,0,0,.22.43,4.14,4.14,0,0,0,.27.42,1.44,1.44,0,0,0,.14.2,5.93,5.93,0,0,0,.56.67l.22.23a8.5,8.5,0,0,0,.76.69l.45.36c.34.26.69.51,1.07.76Z"/><path class="cls-2" d="M38.23,61.11l-.3.19c-.09-.34-.16-.68-.24-1Z"/><path class="cls-2" d="M37.82,73.41l.41.26Z"/><path class="cls-2" d="M38.11,66.23a1.88,1.88,0,0,0-.55,1.16h-1a2.3,2.3,0,0,1,.11-.66h.56v-1a6.66,6.66,0,0,1,.63-.68C38,65.42,38,65.83,38.11,66.23Z"/><path class="cls-2" d="M37.56,67.39a1.9,1.9,0,0,0,.55,1.18c-.07.4-.14.8-.23,1.16a3.32,3.32,0,0,1-1.3-2.34Z"/><path class="cls-2" d="M37.93,61.3h0l-.56.37Z"/><path class="cls-2" d="M37.77,64.6c0,.14.07.3.11.45a6.66,6.66,0,0,0-.63.68v-1h-.47a7,7,0,0,1,.84-.78Z"/><path class="cls-2" d="M37.69,60.28c.07.34.15.68.24,1l-.55.37-.31.22c-.09-.34-.17-.68-.25-1C37.1,60.66,37.4,60.47,37.69,60.28Z"/><path class="cls-2" d="M37.44,70.66l.28.24A3,3,0,0,1,37.44,70.66Z"/><polygon class="cls-2" points="37.7 74.5 37.7 74.51 37.69 74.5 37.7 74.5"/><path class="cls-2" d="M37.7,74.51h0Z"/><path class="cls-2" d="M37.69,60.27h0c-.3.19-.59.38-.87.59,0-.12-.06-.25-.09-.37l-.14-.66.57-.37Z"/><path class="cls-2" d="M37.69,74.5h0l-.53.82L36.59,75l.14-.67Z"/><path class="cls-2" d="M37.69,74.5l-1-.21-.14.67L36,74.58l-.59-.45-.62-.51-.59-.54a11.1,11.1,0,0,1-.8-.87l-.38-.49L33,71.57c-.07-.11-.14-.2-.2-.31a2.13,2.13,0,0,1-.14-.23,7.08,7.08,0,0,1-.77-1.91,2,2,0,0,1,0-.21,2.16,2.16,0,0,1,0-.24c0-.11,0-.22-.05-.33l0-.2c0-.1,0-.21,0-.32s0-.28,0-.41v0c0-3.18,1.95-5.35,4.06-6.94.3-.22.6-.43.89-.62l.14.66c0,.12.05.25.09.37a10.2,10.2,0,0,0-3.62,3.89h-.57v2h0c0,.22,0,.43,0,.66C32.63,70.69,35,72.79,37.69,74.5Z"/><path class="cls-2" d="M37.17,75.34l.53-.82c-.08.34-.14.68-.21,1Z"/><path class="cls-2" d="M37.62,80.67l-.41-.06.15-1A5.58,5.58,0,0,0,37.62,80.67Z"/><path class="cls-4" d="M37.46,63.4c.05.2.11.39.15.58a7,7,0,0,0-.84.78H34.32a7.35,7.35,0,0,1,1.09-1.43,11.72,11.72,0,0,1,1.32-1.16l.35-.25c.07.3.15.59.23.88Z"/><path class="cls-2" d="M37.24,65.72v1h-.56A3.34,3.34,0,0,1,37.24,65.72Z"/><path class="cls-2" d="M37.24,64.75v1a3.34,3.34,0,0,0-.56,1h-1a4.34,4.34,0,0,1,1.11-2Z"/><path class="cls-2" d="M37.16,59.45h0l-.57.37h0Z"/><path class="cls-2" d="M37.07,61.9h0l-.35.25Z"/><path class="cls-2" d="M37.07,61.9l-.35.26a11.72,11.72,0,0,0-1.32,1.16,7.44,7.44,0,0,0-1.09,1.43H33.2a10.2,10.2,0,0,1,3.62-3.89C36.9,61.21,37,61.56,37.07,61.9Z"/><path class="cls-2" d="M36.68,69.92a8.06,8.06,0,0,0,.76.74A5.7,5.7,0,0,1,36.68,69.92Z"/><path class="cls-2" d="M36.77,64.75a4.34,4.34,0,0,0-1.11,2h-2c0-.13,0-.26.07-.39s.08-.34.12-.49l.08-.24c.06-.16.12-.31.19-.46l.2-.39Z"/><path class="cls-2" d="M36.3,72.29l.45.36Z"/><path class="cls-2" d="M35.66,66.73h1a2.3,2.3,0,0,0-.11.66h-1A3.16,3.16,0,0,1,35.66,66.73Z"/><path class="cls-2" d="M36.59,59.81h0c-.3.2-.6.41-.89.62C36,60.23,36.3,60,36.59,59.81Z"/><path class="cls-2" d="M36.52,69.73a4.31,4.31,0,0,1-.53-.8A4.94,4.94,0,0,0,36.52,69.73Z"/><path class="cls-2" d="M35.45,74.13l.59.45C35.84,74.44,35.64,74.29,35.45,74.13Z"/><path class="cls-2" d="M35.61,67.71a1.78,1.78,0,0,0,0,.27A1.78,1.78,0,0,1,35.61,67.71Z"/><path class="cls-2" d="M35.59,67.39a2.57,2.57,0,0,0,0,.32A2.57,2.57,0,0,1,35.59,67.39Z"/><path class="cls-2" d="M35.31,71.37l.22.23Z"/><path class="cls-2" d="M34.83,73.63l.62.51C35.24,74,35,73.81,34.83,73.63Z"/><path class="cls-2" d="M35.4,63.32a7.35,7.35,0,0,0-1.09,1.43h0A7.44,7.44,0,0,1,35.4,63.32Z"/><path class="cls-2" d="M34.24,73.09l.59.54A7.58,7.58,0,0,1,34.24,73.09Z"/><path class="cls-2" d="M34.61,70.5l.14.2A1.44,1.44,0,0,1,34.61,70.5Z"/><path class="cls-2" d="M34.31,64.75h0l-.2.39C34.17,65,34.25,64.89,34.31,64.75Z"/><path class="cls-2" d="M33.2,64.75h1.11c-.07.13-.14.26-.2.39a4,4,0,0,0-.19.46l-.08.24a3.86,3.86,0,0,0-.12.49c0,.12,0,.26-.07.39h-1A6,6,0,0,1,33.2,64.75Z"/><path class="cls-2" d="M34.12,69.64c.07.14.14.3.22.43A3.38,3.38,0,0,1,34.12,69.64Z"/><path class="cls-2" d="M34.12,65.15c-.07.15-.13.3-.19.46A4,4,0,0,1,34.12,65.15Z"/><path class="cls-2" d="M33.85,65.85c0,.16-.09.32-.12.49A3.86,3.86,0,0,1,33.85,65.85Z"/><path class="cls-2" d="M33.67,68.21c0,.08,0,.16,0,.24C33.7,68.37,33.69,68.29,33.67,68.21Z"/><path class="cls-2" d="M33.62,67.39c0,.11,0,.22,0,.34C33.62,67.61,33.62,67.5,33.62,67.39Z"/><path class="cls-2" d="M33.44,72.22a5.48,5.48,0,0,1-.38-.49Z"/><path class="cls-2" d="M32.63,64.75h.57a6,6,0,0,0-.54,2h0Z"/><path class="cls-2" d="M32.75,71.27c.06.11.12.2.2.31A3.07,3.07,0,0,1,32.75,71.27Z"/><path class="cls-2" d="M32.62,71a2.13,2.13,0,0,0,.14.23A2.66,2.66,0,0,1,32.62,71Z"/><path class="cls-2" d="M31.8,68.91a2,2,0,0,0,0,.21C31.83,69,31.81,69,31.8,68.91Z"/><path class="cls-2" d="M31.7,68.35c0,.11,0,.22.05.33C31.73,68.57,31.71,68.46,31.7,68.35Z"/><path class="cls-2" d="M31.68,68.15l0,.2Z"/><path class="cls-2" d="M31.64,67.42c0,.14,0,.28,0,.41C31.65,67.7,31.64,67.56,31.64,67.42Z"/><path class="cls-5" d="M71.84,42.18a12,12,0,0,0-17,0,12,12,0,0,0-17,17l17,17,17-17A12,12,0,0,0,71.84,42.18Z"/><path class="cls-2" d="M37.89,59.15l17,17,17-17a12,12,0,0,0-17-17,12,12,0,1,0-17,17Zm1.9-15.08a9.33,9.33,0,0,1,13.18,0,2.68,2.68,0,0,0,3.79,0A9.32,9.32,0,0,1,69.94,57.26L54.87,72.33,39.79,57.26A9.33,9.33,0,0,1,39.79,44.08Z"/><path class="cls-6" d="M61.63,27.14c1.14,1.92,3,6.31,1.51,9.7-1.22,2.85-4.53,4.53-9,4.2a7.92,7.92,0,0,1-2.09-.43l1.3-2.71a24.81,24.81,0,0,1,3.17-2.31c6-3.84,3.61-11.06,3.46-11.48A30.9,30.9,0,0,0,61.63,27.14Z"/><path class="cls-7" d="M56.46,20.09a4.2,4.2,0,0,1,4.6-3.77,8.93,8.93,0,0,0-1.89,3A7.49,7.49,0,0,0,60,24.1L53.38,37.91c-2.27,2-1.36,2.67-1.3,2.71a7.13,7.13,0,0,1-3.86-3.44C46.5,34.08,47,29.12,50.08,26.8s2.58-4.72,2.58-4.72c1.89,2.84,1.86,3.62.66,6.55a6,6,0,0,0-.41,1.48,1.65,1.65,0,0,0,3.2.76l0-.06a30.09,30.09,0,0,0,.36-9A5,5,0,0,1,56.46,20.09Z"/><path class="cls-7" d="M60,24.11c.15.42,2.58,7.64-3.46,11.48a24.81,24.81,0,0,0-3.17,2.31L60,24.1Z"/><path class="cls-5" d="M53.38,37.91l-1.3,2.71h0C52,40.58,51.11,39.93,53.38,37.91Z"/><path class="cls-8" d="M52.08,40.62a7.92,7.92,0,0,0,2.09.43c4.43.33,7.74-1.35,9-4.2,1.45-3.39-.36-7.78-1.51-9.7a30.9,30.9,0,0,1-1.61-3"/><path class="cls-8" d="M60,24.1a7.49,7.49,0,0,1-.84-4.8,8.93,8.93,0,0,1,1.89-3,4.2,4.2,0,0,0-4.6,3.77,5,5,0,0,0,0,1.71,30.09,30.09,0,0,1-.36,9l0,.06a1.65,1.65,0,0,1-3.2-.76,6,6,0,0,1,.41-1.48c1.2-2.93,1.23-3.71-.66-6.55,0,0,.52,2.4-2.58,4.72s-3.58,7.28-1.86,10.37a7.13,7.13,0,0,0,3.86,3.44"/><path class="cls-8" d="M52.08,40.62h0c-.06,0-1-.69,1.3-2.71a24.81,24.81,0,0,1,3.17-2.31c6-3.84,3.61-11.06,3.46-11.48v0"/></g></g></svg>