<svg xmlns="http://www.w3.org/2000/svg" viewBox="0 0 108 108"><defs><style>.cls-1{fill:#f66;}.cls-2{fill:#efe0a0;}.cls-2,.cls-4{stroke:#403670;stroke-linecap:round;stroke-linejoin:round;stroke-width:3px;}.cls-3{fill:#c9b76b;}.cls-4{fill:none;}</style></defs><title>solemnidad-18</title><g id="colecionables"><g id="Todos_los_santos" data-name="Todos los santos"><rect class="cls-1" width="108" height="108"/><circle class="cls-2" cx="30.48" cy="44.83" r="6.5"/><circle class="cls-2" cx="77.52" cy="44.83" r="6.5"/><path class="cls-3" d="M36.64,49.26a9.76,9.76,0,0,1-2.19,1.27,6.47,6.47,0,0,0-7.94,0,9.76,9.76,0,0,1-2.19-1.27,6.5,6.5,0,0,1,12.32,0Z"/><circle class="cls-4" cx="30.48" cy="44.83" r="6.5"/><path class="cls-3" d="M83.68,49.26a9.76,9.76,0,0,1-2.19,1.27,6.47,6.47,0,0,0-7.94,0,9.76,9.76,0,0,1-2.19-1.27,6.5,6.5,0,0,1,12.32,0Z"/><circle class="cls-4" cx="77.52" cy="44.83" r="6.5"/><circle class="cls-2" cx="53.56" cy="48.58" r="10.25"/><circle class="cls-2" cx="30.48" cy="58.83" r="10.54"/><circle class="cls-2" cx="77.52" cy="58.83" r="10.54"/><circle class="cls-2" cx="53.56" cy="63.16" r="6.5"/><path class="cls-2" d="M53.56,56.67a6.48,6.48,0,0,1,4,1.36,10.25,10.25,0,0,1-7.94,0A6.48,6.48,0,0,1,53.56,56.67Z"/><path class="cls-3" d="M59.72,56.76A9.76,9.76,0,0,1,57.53,58a6.47,6.47,0,0,0-7.94,0,9.76,9.76,0,0,1-2.19-1.27,6.5,6.5,0,0,1,12.32,0Z"/><circle class="cls-4" cx="53.56" cy="48.58" r="10.25"/><path class="cls-2" d="M60.06,63.17a6.5,6.5,0,1,1-13,0A6.27,6.27,0,0,1,47.44,61a6.36,6.36,0,0,1,2.15-3,6.47,6.47,0,0,1,7.94,0,6.36,6.36,0,0,1,2.15,3A6.27,6.27,0,0,1,60.06,63.17Z"/></g></g></svg>