<svg xmlns="http://www.w3.org/2000/svg" viewBox="0 0 108 108"><defs><style>.cls-1{fill:#ffc66c;}.cls-2{fill:#f25d3b;}.cls-3{fill:#dd4a4a;}.cls-4{fill:#f66;}.cls-5{fill:none;stroke:#403670;stroke-linecap:round;stroke-linejoin:round;stroke-width:3px;}</style></defs><title>solemnidad-12</title><g id="colecionables"><g id="Pentecostés"><rect class="cls-1" width="108" height="108"/><path class="cls-2" d="M66.45,50.22c2.31,3.88,6,12.72,3,19.57-2.46,5.75-9.14,9.13-18.06,8.47a16,16,0,0,1-4.23-.87l2.62-5.46a50.05,50.05,0,0,1,6.39-4.66c12.18-7.74,7.28-22.3,7-23.16A62.32,62.32,0,0,0,66.45,50.22Z"/><path class="cls-3" d="M56,36c1.45-8.52,9.27-7.61,9.27-7.61s-3.27,3.49-3.81,6-.19,5.48,1.7,9.68L49.82,71.93c-4.58,4.08-2.75,5.39-2.63,5.46a14.37,14.37,0,0,1-7.78-6.94c-3.47-6.24-2.49-16.24,3.75-20.92S48.36,40,48.36,40c3.81,5.74,3.76,7.31,1.33,13.22a12,12,0,0,0-.83,3,3.33,3.33,0,0,0,6.45,1.53l0-.13c1.12-3.49,1.42-14.25.72-18.19A10.07,10.07,0,0,1,56,36Z"/><path class="cls-3" d="M63.19,44.11c.3.85,5.2,15.42-7,23.16a50.05,50.05,0,0,0-6.39,4.66L63.18,44.07Z"/><path class="cls-4" d="M49.82,71.93,47.2,77.39h0C47.07,77.31,45.24,76,49.82,71.93Z"/><path class="cls-5" d="M47.2,77.39a16,16,0,0,0,4.23.87c8.93.67,15.6-2.72,18.06-8.47,2.93-6.85-.73-15.69-3-19.57a62.32,62.32,0,0,1-3.26-6.11"/><path class="cls-5" d="M63.18,44.07c-1.89-4.2-2.26-7.08-1.7-9.68s3.81-6,3.81-6S57.46,27.47,56,36a10.07,10.07,0,0,0,.06,3.44c.69,3.93.4,14.69-.72,18.19l0,.13a3.33,3.33,0,0,1-6.45-1.53,12,12,0,0,1,.83-3c2.43-5.91,2.48-7.48-1.33-13.22,0,0,1,4.84-5.2,9.52S35.94,64.2,39.41,70.44a14.37,14.37,0,0,0,7.78,6.94"/><path class="cls-5" d="M47.2,77.39h0c-.12-.07-1.95-1.38,2.63-5.46a50.05,50.05,0,0,1,6.39-4.66c12.18-7.74,7.28-22.3,7-23.16v0"/></g></g></svg>